<svg width="150" height="120" viewBox="0 0 150 120" fill="none" xmlns="http://www.w3.org/2000/svg">
<path d="M142.295 17.4801C121.446 -6.37796 36.9388 -3.01584 14.5453 13.1461C-7.84818 29.3079 -0.294381 86.4014 14.5453 97.8883C29.385 109.375 108.786 129.492 122.685 114.869C136.585 100.246 163.144 41.3381 142.295 17.4801Z" fill="#633F61"/>
<path d="M65.1874 65.7993C65.0936 63.7368 64.4686 62.1587 63.3124 61.0649C62.1561 59.9399 60.7343 59.2681 59.0468 59.0493L59.2811 57.8306C60.0936 58.2056 61.1249 58.5024 62.3749 58.7212C63.6249 58.9399 64.9999 59.1118 66.4999 59.2368C68.0311 59.3306 69.6249 59.3774 71.2811 59.3774C72.9686 59.3774 74.6249 59.3462 76.2499 59.2837C77.9061 59.1899 79.4843 59.0649 80.9843 58.9087C82.5155 58.7524 83.8905 58.5649 85.1093 58.3462C84.9843 59.1587 84.8436 60.0806 84.6874 61.1118C84.5624 62.1431 84.453 63.1743 84.3593 64.2056C84.2655 65.2368 84.2186 66.2368 84.2186 67.2056C84.2186 68.1431 84.2968 68.9556 84.453 69.6431L83.5155 69.7837C83.078 68.0962 82.5468 66.6587 81.9218 65.4712C81.328 64.2524 80.5155 63.3149 79.4843 62.6587C78.453 61.9712 77.1561 61.5806 75.5936 61.4868C74.0311 61.3931 72.078 61.5962 69.7343 62.0962C69.578 64.5962 69.453 66.8149 69.3593 68.7524C69.2655 70.6899 69.2186 72.5806 69.2186 74.4243C70.7186 74.2056 71.9374 73.9243 72.8749 73.5806C73.8436 73.2368 74.6249 72.8306 75.2186 72.3618C75.8124 71.8618 76.2655 71.2837 76.578 70.6274C76.9218 69.9399 77.2343 69.1274 77.5155 68.1899L78.6874 68.4243C78.4061 69.6118 78.2186 70.7056 78.1249 71.7056C78.0311 72.7056 77.9686 73.6899 77.9374 74.6587C77.9374 75.6274 77.9686 76.6118 78.0311 77.6118C78.0936 78.5806 78.1561 79.6118 78.2186 80.7056L77.2343 80.5181C77.1718 79.2056 76.8749 78.2212 76.3436 77.5649C75.8124 76.8774 75.1561 76.4243 74.3749 76.2056C73.5936 75.9556 72.7499 75.8774 71.8436 75.9712C70.9374 76.0649 70.0624 76.2056 69.2186 76.3931C69.2499 77.9243 69.3124 79.5024 69.4061 81.1274C69.4999 82.7212 69.6405 84.5181 69.828 86.5181C69.9218 87.7056 70.0936 88.6899 70.3436 89.4712C70.6249 90.2524 70.953 90.8931 71.328 91.3931C71.703 91.8618 72.1093 92.2212 72.5468 92.4712C73.0155 92.6899 73.4843 92.8618 73.953 92.9868V94.0181C73.5155 93.9556 72.7811 93.8931 71.7499 93.8306C70.7499 93.7681 69.6561 93.7524 68.4686 93.7837C67.2811 93.8149 66.078 93.9087 64.8593 94.0649C63.6718 94.2212 62.6561 94.4868 61.8124 94.8618L61.4843 93.8774C62.2655 93.5337 62.9374 93.1743 63.4999 92.7993C64.0624 92.3931 64.5311 91.9243 64.9061 91.3931C65.2811 90.8306 65.5468 90.1743 65.703 89.4243C65.8905 88.6431 65.9843 87.7056 65.9843 86.6118C65.9843 85.8931 65.9686 84.9712 65.9374 83.8462C65.9061 82.7212 65.8593 81.5024 65.7968 80.1899C65.7655 78.8774 65.7186 77.5181 65.6561 76.1118C65.5936 74.7056 65.5311 73.3618 65.4686 72.0806C65.4061 70.7681 65.3436 69.5649 65.2811 68.4712C65.2499 67.3774 65.2186 66.4868 65.1874 65.7993ZM84.1249 93.4087C84.8436 93.1587 85.4374 92.8306 85.9061 92.4243C86.3749 92.0181 86.7343 91.6118 86.9843 91.2056C87.2968 90.7368 87.4999 90.2524 87.5936 89.7524C88.2811 86.5649 88.6249 83.5337 88.6249 80.6587C88.6249 77.7524 88.4061 75.2681 87.9686 73.2056C87.8436 72.5493 87.6093 71.9399 87.2655 71.3774C86.9843 70.9087 86.5936 70.4712 86.0936 70.0649C85.5936 69.6274 84.953 69.3462 84.1718 69.2212L84.1249 68.4712C84.7499 68.5337 85.328 68.5806 85.8593 68.6118C86.4218 68.6118 86.9061 68.6118 87.3124 68.6118H88.6249C88.9999 68.6431 89.3749 68.6587 89.7499 68.6587C90.0936 68.6899 90.4374 68.7056 90.7811 68.7056C91.1561 68.7056 91.5155 68.7368 91.8593 68.7993C91.7655 69.9243 91.6874 71.0806 91.6249 72.2681C91.5624 73.4243 91.5155 74.4712 91.4843 75.4087C91.4218 76.5024 91.3905 77.5649 91.3905 78.5962C91.328 79.7524 91.2811 81.0181 91.2499 82.3931C91.2186 83.7368 91.2343 85.0181 91.2968 86.2368C91.3593 87.4556 91.4686 88.5337 91.6249 89.4712C91.7811 90.3774 92.0311 90.9712 92.3749 91.2524C92.5624 91.3774 92.8124 91.5024 93.1249 91.6274C93.3749 91.7524 93.703 91.8774 94.1093 92.0024C94.5468 92.1274 95.078 92.2524 95.703 92.3774L95.7499 93.1743C95.1249 93.1431 94.5155 93.1431 93.9218 93.1743C93.3593 93.1743 92.8593 93.1743 92.4218 93.1743C91.8905 93.2056 91.3905 93.2212 90.9218 93.2212C90.2655 93.2524 89.5624 93.3149 88.8124 93.4087C88.1874 93.4712 87.4843 93.5493 86.703 93.6431C85.9218 93.7368 85.1718 93.8462 84.453 93.9712L84.1249 93.4087ZM88.953 65.3306C87.9843 65.3931 87.2343 65.1743 86.703 64.6743C86.1718 64.1431 85.8749 63.5493 85.8124 62.8931C85.7499 62.2368 85.9218 61.6274 86.328 61.0649C86.7655 60.4712 87.453 60.1118 88.3905 59.9868C89.3593 59.8618 90.1249 60.0649 90.6874 60.5962C91.2811 61.1274 91.6249 61.7368 91.7186 62.4243C91.8124 63.0806 91.6405 63.7212 91.203 64.3462C90.7655 64.9399 90.0155 65.2681 88.953 65.3306ZM115.625 107.049C115.125 107.893 114.531 108.674 113.844 109.393C113.156 110.143 112.391 110.768 111.547 111.268C110.703 111.799 109.812 112.19 108.875 112.44C107.937 112.69 106.969 112.784 105.969 112.721C104.844 112.627 103.859 112.331 103.016 111.831C102.172 111.331 101.469 110.706 100.906 109.956C100.344 109.237 99.9374 108.456 99.6874 107.612C99.4686 106.799 99.4061 106.034 99.4999 105.315C99.5936 104.565 99.828 103.831 100.203 103.112C100.609 102.393 101.125 101.752 101.75 101.19C102.375 100.627 103.125 100.174 104 99.8306C104.875 99.4868 105.859 99.3306 106.953 99.3618C107.453 99.3931 107.953 99.5181 108.453 99.7368C108.953 99.9556 109.391 100.252 109.766 100.627C110.172 101.002 110.469 101.44 110.656 101.94C110.875 102.471 110.969 103.018 110.937 103.581C110.875 104.143 110.703 104.706 110.422 105.268C110.172 105.831 109.828 106.331 109.391 106.768C108.984 107.237 108.5 107.581 107.937 107.799C107.375 108.049 106.781 108.127 106.156 108.034C105.469 107.94 104.953 107.581 104.609 106.956C104.266 106.362 104.109 105.721 104.141 105.034C104.203 104.346 104.453 103.706 104.891 103.112C105.359 102.549 106.047 102.237 106.953 102.174C107.578 102.143 108.031 102.362 108.312 102.831C108.625 103.331 108.656 103.784 108.406 104.19C108.125 104.627 107.734 104.815 107.234 104.752C106.734 104.721 106.375 104.393 106.156 103.768C105.906 103.956 105.703 104.221 105.547 104.565C105.422 104.94 105.375 105.299 105.406 105.643C105.437 106.018 105.562 106.331 105.781 106.581C106 106.862 106.344 107.002 106.812 107.002C107.375 107.002 107.844 106.877 108.219 106.627C108.625 106.409 108.953 106.112 109.203 105.737C109.453 105.393 109.625 105.018 109.719 104.612C109.844 104.237 109.906 103.893 109.906 103.581C109.906 103.268 109.844 102.924 109.719 102.549C109.594 102.206 109.391 101.877 109.109 101.565C108.828 101.284 108.453 101.049 107.984 100.862C107.516 100.706 106.937 100.643 106.25 100.674C105.625 100.706 105 100.846 104.375 101.096C103.781 101.346 103.234 101.69 102.734 102.127C102.234 102.565 101.828 103.096 101.516 103.721C101.203 104.346 101.047 105.034 101.047 105.784C101.047 106.565 101.203 107.268 101.516 107.893C101.859 108.518 102.312 109.034 102.875 109.44C103.437 109.877 104.078 110.206 104.797 110.424C105.516 110.674 106.266 110.784 107.047 110.752C107.797 110.721 108.641 110.44 109.578 109.909C110.516 109.409 111.359 108.627 112.109 107.565C112.859 106.534 113.422 105.19 113.797 103.534C114.203 101.909 114.234 99.9399 113.891 97.6274C113.734 96.5337 113.609 95.4868 113.516 94.4868C113.453 93.4868 113.422 92.5181 113.422 91.5806C113.016 92.1743 112.531 92.7993 111.969 93.4556C111.437 94.0806 110.828 94.6431 110.141 95.1431C109.484 95.6743 108.75 96.0962 107.937 96.4087C107.125 96.7524 106.25 96.8931 105.312 96.8306C104.187 96.7681 103.078 96.5024 101.984 96.0337C100.922 95.5649 99.9686 94.7837 99.1249 93.6899C98.3124 92.6274 97.6718 91.2212 97.203 89.4712C96.7655 87.7212 96.6249 85.5337 96.7811 82.9087C96.9061 80.2837 97.3749 78.1431 98.1874 76.4868C98.9999 74.8306 99.953 73.5493 101.047 72.6431C102.141 71.7368 103.281 71.1431 104.469 70.8618C105.687 70.5493 106.75 70.4399 107.656 70.5337C109 70.6899 110.312 71.2368 111.594 72.1743C112.906 73.1118 113.922 74.5493 114.641 76.4868C114.891 75.2993 115.125 74.3149 115.344 73.5337C115.594 72.7524 115.703 72.1431 115.672 71.7056C116.672 71.9868 117.766 72.1431 118.953 72.1743C120.141 72.2056 121.359 72.1743 122.609 72.0806L122.562 72.9712C121.156 73.0962 120.047 73.6899 119.234 74.7524C118.453 75.7837 117.844 77.4399 117.406 79.7212C117.125 81.1587 116.953 82.5493 116.891 83.8931C116.828 85.2368 116.812 86.5493 116.844 87.8306C116.875 89.0806 116.937 90.3149 117.031 91.5337C117.156 92.7212 117.266 93.9087 117.359 95.0962C117.422 95.8149 117.469 96.6587 117.5 97.6274C117.531 98.5962 117.5 99.6118 117.406 100.674C117.312 101.737 117.125 102.815 116.844 103.909C116.594 105.034 116.187 106.081 115.625 107.049ZM113.703 83.1899C113.734 82.1899 113.828 81.2056 113.984 80.2368C113.766 78.5806 113.266 77.2212 112.484 76.1587C111.734 75.0649 110.531 74.4243 108.875 74.2368C107.906 74.1118 106.953 74.2368 106.016 74.6118C105.078 74.9556 104.219 75.5493 103.437 76.3931C102.687 77.2056 102.047 78.2681 101.516 79.5806C100.984 80.8618 100.656 82.3931 100.531 84.1743C100.375 85.9556 100.437 87.5493 100.719 88.9556C101.031 90.3306 101.484 91.4868 102.078 92.4243C102.703 93.3306 103.422 93.9868 104.234 94.3931C105.047 94.8306 105.891 95.0024 106.766 94.9087C107.547 94.7837 108.312 94.4712 109.062 93.9712C109.812 93.4712 110.484 92.8774 111.078 92.1899C111.703 91.4712 112.219 90.7056 112.625 89.8931C113.062 89.0493 113.359 88.2212 113.516 87.4087C113.547 86.7212 113.578 86.0493 113.609 85.3931C113.641 84.7056 113.672 83.9712 113.703 83.1899Z" fill="white"/>
<path d="M56.6744 54.0671C54.9244 54.0046 53.2213 53.5202 51.5651 52.614C49.9401 51.739 48.5026 50.4733 47.2526 48.8171C46.0338 47.1296 45.0807 45.0671 44.3932 42.6296C43.7057 40.1921 43.4244 37.3796 43.5494 34.1921C43.6744 31.0046 44.2369 28.1765 45.2369 25.7077C46.2682 23.239 47.5338 21.1921 49.0338 19.5671C50.5338 17.9108 52.1744 16.6921 53.9557 15.9108C55.7682 15.1296 57.5494 14.8327 59.2994 15.0202C60.3619 15.1452 61.2994 15.4421 62.1119 15.9108C62.9244 16.3796 63.6276 16.9577 64.2213 17.6452C64.8151 18.3015 65.3151 19.0202 65.7213 19.8015C66.1276 20.5515 66.4557 21.2858 66.7057 22.0046C66.8932 22.1921 67.0963 22.2858 67.3151 22.2858C67.9088 22.3171 68.4401 21.8796 68.9088 20.9733C69.4088 20.0358 69.8307 18.5046 70.1744 16.3796L71.4869 16.5202C71.2057 17.5827 70.8932 18.8171 70.5494 20.2233C70.2369 21.5983 69.9401 23.0202 69.6588 24.489C69.4088 25.9577 69.1901 27.4108 69.0026 28.8483C68.8463 30.2858 68.7994 31.5827 68.8619 32.739C68.3932 32.5515 67.9557 32.4265 67.5494 32.364C67.1432 32.2702 66.7682 32.2077 66.4244 32.1765C66.0494 32.1452 65.7057 32.1452 65.3932 32.1765C65.4557 30.239 65.3932 28.3796 65.2057 26.5983C65.0494 24.8171 64.7369 23.2546 64.2682 21.9108C63.7994 20.5358 63.1744 19.4265 62.3932 18.5827C61.6432 17.739 60.7057 17.2702 59.5807 17.1765C58.5807 17.0827 57.5026 17.3015 56.3463 17.8327C55.1901 18.3327 54.0963 19.2546 53.0651 20.5983C52.0338 21.9108 51.1432 23.6765 50.3932 25.8952C49.6432 28.114 49.1744 30.8796 48.9869 34.1921C48.8932 35.9421 48.9557 37.7858 49.1744 39.7233C49.3932 41.6608 49.8307 43.4577 50.4869 45.114C51.1432 46.739 52.0338 48.0983 53.1588 49.1921C54.2838 50.2546 55.7057 50.7702 57.4244 50.739C58.7369 50.6452 59.9557 50.3015 61.0807 49.7077C62.0494 49.1765 63.0026 48.3796 63.9401 47.3171C64.8776 46.2546 65.5494 44.7233 65.9557 42.7233L67.5026 43.6608C67.2526 44.4733 66.8776 45.489 66.3776 46.7077C65.8776 47.8952 65.1901 49.0515 64.3151 50.1765C63.4713 51.3015 62.4088 52.239 61.1276 52.989C59.8776 53.7702 58.3932 54.1296 56.6744 54.0671ZM91.8776 48.9577C92.0963 48.9577 92.3151 48.8952 92.5338 48.7702C92.7213 48.6765 92.8932 48.5358 93.0494 48.3483C93.2369 48.1608 93.3932 47.8796 93.5182 47.5046H94.2213C94.1901 47.8171 94.0963 48.1765 93.9401 48.5827C93.7838 48.9577 93.5494 49.3171 93.2369 49.6608C92.9244 49.9733 92.5338 50.239 92.0651 50.4577C91.5963 50.6765 91.0494 50.7546 90.4244 50.6921C88.4244 50.5046 87.2213 48.5671 86.8151 44.8796C86.5338 45.6296 86.2057 46.3952 85.8307 47.1765C85.4869 47.9577 85.0651 48.6765 84.5651 49.3327C84.0651 49.989 83.4713 50.5202 82.7838 50.9265C82.1276 51.364 81.3307 51.5827 80.3932 51.5827C79.2057 51.5827 78.1588 51.3327 77.2526 50.8327C76.3776 50.364 75.6432 49.7233 75.0494 48.9108C74.4557 48.0983 74.0338 47.1765 73.7838 46.1452C73.5338 45.0827 73.4401 43.989 73.5026 42.864C73.5963 41.3015 73.8151 39.7233 74.1588 38.1296C74.5026 36.5046 74.7057 34.989 74.7682 33.5827C74.8619 32.1452 74.6901 30.8952 74.2526 29.8327C73.8463 28.739 72.9244 27.9421 71.4869 27.4421L71.6744 26.739C72.1432 26.8327 72.6588 26.9577 73.2213 27.114C73.7838 27.2702 74.3776 27.3952 75.0026 27.489C75.6276 27.5827 76.2838 27.6296 76.9713 27.6296C77.6901 27.6296 78.4088 27.5358 79.1276 27.3483C78.7526 28.1608 78.4088 28.9265 78.0963 29.6452C77.8151 30.364 77.5807 31.1608 77.3932 32.0358C77.2057 32.9108 77.0651 33.9108 76.9713 35.0358C76.8776 36.1608 76.8307 37.5515 76.8307 39.2077C76.8307 40.864 76.9557 42.2546 77.2057 43.3796C77.4869 44.5046 77.8619 45.3952 78.3307 46.0515C78.8307 46.7077 79.4088 47.1765 80.0651 47.4577C80.7213 47.7077 81.4557 47.8015 82.2682 47.739C83.0494 47.6452 83.7057 47.2858 84.2369 46.6608C84.7994 46.0046 85.2526 45.1608 85.5963 44.1296C85.9713 43.0671 86.2526 41.864 86.4401 40.5202C86.6588 39.1765 86.7994 37.7546 86.8619 36.2546C86.9244 34.7546 86.9244 33.4733 86.8619 32.4108C86.8307 31.3483 86.7213 30.4577 86.5338 29.739C86.3463 29.0202 86.0651 28.4421 85.6901 28.0046C85.3151 27.5358 84.8151 27.1765 84.1901 26.9265L84.2838 26.1765C84.8463 26.1765 85.5182 26.1765 86.2994 26.1765C87.0807 26.1765 87.8619 26.1608 88.6432 26.1296C89.4244 26.0671 90.1432 25.989 90.7994 25.8952C91.4869 25.8015 92.0026 25.6765 92.3463 25.5202C91.8151 26.5515 91.3307 27.864 90.8932 29.4577C90.4869 31.0202 90.1432 32.6765 89.8619 34.4265C89.5807 36.1452 89.3932 37.8796 89.2994 39.6296C89.2057 41.3483 89.2369 42.9108 89.3932 44.3171C89.5494 45.6921 89.8151 46.8171 90.1901 47.6921C90.5963 48.5358 91.1588 48.9577 91.8776 48.9577Z" fill="white"/>
<path d="M107.393 57.4394C108.112 57.4394 108.784 57.1894 109.409 56.6894C110.034 56.1894 110.471 55.3457 110.721 54.1582L111.705 54.5332C111.612 55.2832 111.315 56.0488 110.815 56.8301C110.315 57.5801 109.674 58.2207 108.893 58.7519C108.112 59.2832 107.221 59.6269 106.221 59.7832C105.252 59.9394 104.252 59.7832 103.221 59.3144C102.096 58.7832 101.284 58.0957 100.784 57.2519C100.284 56.4082 99.9711 55.4394 99.8461 54.3457C99.7211 53.2207 99.7054 52.0176 99.7992 50.7363C99.8929 49.4238 99.9398 48.0644 99.9398 46.6582C99.9398 45.8457 99.9242 44.8926 99.8929 43.7988C99.8929 42.6738 99.8617 41.4863 99.7992 40.2363C99.7679 38.9863 99.7054 37.7051 99.6117 36.3926C99.5179 35.0488 99.4242 33.7363 99.3304 32.4551C98.2679 32.5801 97.2523 32.7363 96.2836 32.9238C95.3461 33.0801 94.5492 33.2832 93.8929 33.5332C93.8617 33.2519 93.8617 33.0332 93.8929 32.8769C93.8929 32.7207 93.9086 32.5801 93.9398 32.4551C93.9398 32.2988 93.9398 32.1426 93.9398 31.9863C93.9398 31.7988 93.9086 31.5488 93.8461 31.2363C94.5961 31.1738 95.4242 31.1113 96.3304 31.0488C97.2679 30.9863 98.2211 30.9238 99.1898 30.8613C99.1586 30.4238 99.1273 30.0019 99.0961 29.5957C99.0648 29.1582 99.0179 28.7363 98.9554 28.3301C98.7992 26.8613 98.5023 25.6894 98.0648 24.8144C97.6586 23.9394 97.2054 23.2676 96.7054 22.7988C96.2054 22.3301 95.7367 22.0176 95.2992 21.8613C94.8617 21.6738 94.5336 21.5488 94.3148 21.4863L94.4554 20.5957C95.0492 20.8457 95.7836 21.0176 96.6586 21.1113C97.5336 21.1738 98.4398 21.1738 99.3773 21.1113C100.346 21.0176 101.284 20.8613 102.19 20.6426C103.127 20.4238 103.94 20.1426 104.627 19.7988C104.315 20.6738 104.034 22.0644 103.784 23.9707C103.565 25.8769 103.377 28.0957 103.221 30.6269C104.846 30.5332 106.018 30.4082 106.737 30.2519C106.58 30.4394 106.502 30.7519 106.502 31.1894C106.502 31.5957 106.549 31.9707 106.643 32.3144C106.112 32.2519 105.549 32.2207 104.955 32.2207C104.362 32.1894 103.752 32.1738 103.127 32.1738C103.034 33.9863 102.971 35.8769 102.94 37.8457C102.909 39.8144 102.924 41.7676 102.987 43.7051C103.08 45.6113 103.205 47.4863 103.362 49.3301C103.549 51.1426 103.784 52.8144 104.065 54.3457C104.315 55.4394 104.752 56.2207 105.377 56.6894C106.002 57.1582 106.674 57.4082 107.393 57.4394ZM111.284 46.2832C111.377 44.4394 111.768 42.7207 112.455 41.1269C113.174 39.5332 114.096 38.1738 115.221 37.0488C116.346 35.8926 117.612 35.0176 119.018 34.4238C120.455 33.8301 121.94 33.6269 123.471 33.8144C125.002 34.0019 126.174 34.4707 126.987 35.2207C127.83 35.9707 128.424 36.8144 128.768 37.7519C129.112 38.6582 129.299 39.5644 129.33 40.4707C129.362 41.3769 129.362 42.0801 129.33 42.5801C129.299 43.0488 129.237 43.5644 129.143 44.1269C129.08 44.6894 129.002 45.2519 128.909 45.8144C128.846 46.3457 128.815 46.8613 128.815 47.3613C128.815 47.8301 128.862 48.2207 128.955 48.5332C128.174 48.2832 127.268 48.0176 126.237 47.7363C125.205 47.4238 124.08 47.1894 122.862 47.0332C121.674 46.8769 120.424 46.8301 119.112 46.8926C117.83 46.9238 116.549 47.1426 115.268 47.5488C115.237 48.7363 115.315 49.9238 115.502 51.1113C115.721 52.2676 116.065 53.3769 116.534 54.4394C116.94 55.3457 117.409 56.1426 117.94 56.8301C118.471 57.5176 119.034 58.0488 119.627 58.4238C120.252 58.7676 120.877 58.9551 121.502 58.9863C122.159 59.0176 122.815 58.8301 123.471 58.4238C124.002 58.0488 124.409 57.5957 124.69 57.0644C124.94 56.6269 125.034 56.0957 124.971 55.4707C124.94 54.8457 124.612 54.1269 123.987 53.3144L129.846 53.0332C129.627 53.6582 129.299 54.4394 128.862 55.3769C128.455 56.3144 127.893 57.2207 127.174 58.0957C126.455 58.9707 125.565 59.7051 124.502 60.2988C123.44 60.8926 122.159 61.1582 120.659 61.0957C119.159 61.0019 117.799 60.5176 116.58 59.6426C115.393 58.7988 114.393 57.6894 113.58 56.3144C112.768 54.9394 112.159 53.3926 111.752 51.6738C111.346 49.9238 111.19 48.1269 111.284 46.2832ZM122.909 35.0332C122.034 34.9394 121.174 35.1582 120.33 35.6894C119.518 36.2207 118.768 36.9863 118.08 37.9863C117.424 38.9551 116.862 40.1113 116.393 41.4551C115.924 42.7988 115.596 44.2051 115.409 45.6738C117.19 45.4551 118.846 45.3457 120.377 45.3457C121.909 45.3144 123.33 45.4082 124.643 45.6269C124.987 44.9082 125.299 43.9863 125.58 42.8613C125.862 41.7051 125.987 40.5801 125.955 39.4863C125.924 38.3613 125.674 37.3769 125.205 36.5332C124.768 35.6894 124.002 35.1894 122.909 35.0332Z" fill="white"/>
<path fill-rule="evenodd" clip-rule="evenodd" d="M42.3447 55.6829C42.3418 55.6786 42.3384 55.6736 42.335 55.6688C42.3326 55.6654 42.3302 55.6621 42.3281 55.6592C42.3332 55.6661 42.3397 55.6755 42.3447 55.6829ZM41.3199 54.2683C41.3183 54.2667 41.3168 54.265 41.3154 54.2635L41.3126 54.2605C41.3147 54.2628 41.3172 54.2655 41.3199 54.2683ZM23.5675 71.0553C23.5661 71.0576 23.5647 71.06 23.5633 71.0623C23.5611 71.0659 23.5589 71.0694 23.557 71.0725C23.5602 71.0675 23.5639 71.0613 23.5675 71.0553Z" fill="white"/>
<path fill-rule="evenodd" clip-rule="evenodd" d="M24.4809 86.9108L24.5934 87.0191C24.6659 87.2987 25.7445 88.1323 25.9044 88.2552L26.7882 88.8639C26.7955 88.8687 26.806 88.8767 26.8133 88.8815L27.7108 89.3549C28.3037 89.694 29.3157 90.0906 29.9606 90.3124C30.7817 90.5955 31.3743 90.7128 32.0537 90.9366C32.1864 90.9803 32.3752 90.9636 32.5261 91.0055L33.3859 91.195C33.5524 91.2325 33.7228 91.2214 33.9092 91.2467C34.1029 91.273 34.1224 91.3315 34.3108 91.3526C34.6624 91.3919 34.9759 91.3686 35.3208 91.4328C35.556 91.4765 37.6194 91.6369 37.9232 91.5807C38.1211 91.5442 38.0556 91.4975 38.359 91.4964L41.5809 91.4747C41.9533 91.4626 42.2069 91.3716 42.5476 91.3546C42.9075 91.3366 43.243 91.3636 43.5356 91.2683L46.2997 90.7664C46.8142 90.573 46.5268 90.7598 46.9087 90.5892C47.2111 90.4543 48.9275 89.9317 49.3233 89.7013L49.6365 89.5469C50.0775 89.3912 51.1819 88.7376 51.5076 88.5033C52.0814 88.0905 52.1643 88.0714 52.7165 87.5593L53.6659 86.6181C53.7746 86.4873 53.7018 86.5589 53.7683 86.4495C53.885 86.2589 53.855 86.4464 54.0519 86.171L54.4891 85.554C54.8455 85.0809 54.8392 85.0038 55.1106 84.5519C55.6339 83.6802 55.6304 83.2663 55.8819 82.6466C56.0105 82.3292 56.192 81.6285 56.208 81.3575C56.2463 80.7136 56.2746 80.9219 56.332 80.4212C56.5296 78.7006 56.2753 77.2815 56.0714 75.8417L55.9157 75.2101C55.8474 75.0177 55.8931 75.2119 55.83 75.0471C55.7718 74.8942 55.8471 74.9904 55.7067 74.6471L55.6203 74.2931C55.4837 73.9274 55.3207 73.1377 55.2465 72.9411C55.0793 72.4996 54.8033 71.8826 54.5891 71.4587L53.4262 69.3641C53.2701 69.1257 53.1287 68.9644 52.9931 68.7509C52.5211 68.0083 52.0483 67.5453 51.5571 66.9332C51.3356 66.6574 51.0196 66.3902 50.783 66.1255L49.8981 65.3874C49.8173 65.3203 49.8671 65.321 49.7497 65.2383L48.7875 64.5663C48.1433 64.1406 47.8158 63.988 47.172 63.6313C47.0355 63.5555 46.9296 63.4845 46.7794 63.4112L46.2377 63.0707L46.2119 63.052C46.2046 63.0465 46.1945 63.0382 46.1872 63.033C46.1798 63.0278 46.1701 63.0195 46.1628 63.0146C46.1001 62.9703 46.0394 62.944 45.9698 62.908L43.8739 61.4775C43.792 61.4093 43.8001 61.4069 43.7105 61.336C43.4189 61.1045 42.9183 60.8013 42.6769 60.5245C42.6574 60.502 42.6319 60.473 42.6142 60.4546C42.5201 60.355 42.401 60.2224 42.2996 60.147C41.8345 59.8013 42.0324 59.7317 41.7213 59.4604L41.4004 59.1182C41.2872 58.9933 41.2036 58.9092 41.1092 58.795L39.5 56.5388C39.231 56.1537 39.2032 55.9281 38.8464 55.9415L37.5254 57.8524C37.3376 58.1901 37.0293 58.4846 36.8122 58.8137C36.807 58.8213 36.8007 58.8327 36.7955 58.84C36.7906 58.8473 36.7836 58.8583 36.7784 58.8652L35.4772 60.2359C35.3981 60.3134 35.3588 60.3449 35.2759 60.4339C34.9233 60.811 34.8139 60.8716 34.4185 61.1945C34.2847 61.3038 34.1063 61.4654 33.9471 61.5592L33.0006 62.1997C32.8494 62.3142 32.7027 62.4229 32.5501 62.5347C32.3913 62.6506 32.2206 62.7374 32.0363 62.8586C31.7036 63.0769 31.3269 63.2302 31.0089 63.4589L30.2501 63.9223C30.1707 63.9721 30.0905 64.0109 29.9815 64.0469C29.7049 64.1389 29.1976 64.4618 28.9813 64.6403L28.5047 65.04C28.2626 65.2494 28.1852 65.2414 27.6442 65.7172L27.4467 65.9179C26.76 66.5453 26.0371 67.2152 25.5288 68.0059L24.5478 69.3877C24.3719 69.616 24.2586 69.905 24.1475 70.0344L24.05 70.1638C23.7608 70.5894 23.7016 70.8805 23.6326 70.9729C23.5859 71.0355 23.642 70.9448 23.5744 71.0445L23.5722 71.0478L23.5675 71.0553L23.5633 71.0623L23.557 71.0725C23.5534 71.0782 23.5496 71.0852 23.546 71.0917L23.5444 71.0947L23.5406 71.1016L23.4793 71.2179L22.778 72.7536C22.7428 72.8418 22.7595 72.818 22.7362 72.8982L22.5084 73.4405C22.306 73.7979 22.252 74.2848 22.1025 74.6599C21.9886 74.9451 21.8116 75.6922 21.7862 75.9711L21.5799 77.3431C21.4848 77.7809 21.4465 80.0429 21.5451 80.5056C21.5998 80.762 21.6008 80.9634 21.6458 81.2413L22.3638 83.7189C22.4394 83.8954 22.5397 84.0477 22.6198 84.2446C22.9731 85.1121 23.1306 85.0899 23.2797 85.3844C23.4622 85.746 24.0886 86.525 24.2827 86.6786L24.4286 86.826C24.5046 86.9413 24.398 86.7987 24.4809 86.9108Z" fill="white"/>
<path fill-rule="evenodd" clip-rule="evenodd" d="M20.5661 86.2952C20.4735 86.1737 20.4578 86.0779 20.3808 85.9585L19.2005 83.3774C19.2252 83.0483 18.8911 81.7174 18.8096 81.0714L18.6647 78.51C18.673 77.8757 18.7716 77.4411 18.7943 76.8473C18.8249 76.0344 19.2883 74.0229 19.5949 73.1792C19.6635 72.9913 19.6893 73.0221 19.7283 72.8892L20.0829 71.83L21.7583 68.5426C21.791 68.4869 21.8172 68.4225 21.8457 68.3724L22.1474 67.8779C22.2995 67.6316 22.4393 67.4076 22.5754 67.1962C23.0866 66.4014 23.5442 65.7822 24.3914 64.8082L24.6164 64.594C24.6223 64.5874 24.6314 64.578 24.638 64.5718C24.6443 64.5652 24.6537 64.5562 24.6603 64.55L26.3555 63.0385C26.5141 62.9208 26.6276 62.8357 26.7837 62.7195C27.3446 62.3011 27.9156 61.9526 28.5141 61.5931L29.7627 60.9069C29.8627 60.8577 29.8982 60.8394 29.9913 60.7837C30.1532 60.6865 30.2881 60.6058 30.4591 60.5044L31.4161 59.8792C31.4262 59.8712 31.4534 59.8466 31.4635 59.8383C31.7415 59.6165 32.1599 59.3691 32.6194 58.9732C32.702 58.9019 32.7473 58.8632 32.833 58.7912L34.391 57.2306C34.4112 57.2084 34.4481 57.1638 34.4711 57.1354L34.6122 56.9689C34.6181 56.962 34.6272 56.9527 34.6327 56.9458L35.3023 56.0346C35.3076 56.0274 35.3156 56.0173 35.3211 56.0097L35.51 55.7156C35.5147 55.7091 35.5216 55.7 35.527 55.693L35.5288 55.6907L36.0054 54.982C36.0479 54.9193 36.05 54.911 36.0946 54.8519L36.8408 53.9726C36.908 53.9124 36.9683 53.8764 36.9955 53.7881C37.1784 53.766 37.1832 53.7162 37.3512 53.6148C37.3595 53.6096 37.371 53.6034 37.3797 53.5982L37.6396 53.4269C37.6341 53.1078 37.5609 52.6739 37.4794 52.387C37.4341 52.2275 37.4452 52.0251 37.4275 51.8486C37.4031 51.6088 37.3508 51.6188 37.3108 51.3441C37.2505 50.9281 37.2581 51.1222 37.192 50.9122L36.8331 49.653C36.7014 49.3446 36.7645 49.3176 36.6722 49.0709C36.6154 48.9193 36.5701 48.7532 36.5199 48.6089L36.0925 47.293C36.0367 46.8345 36.5666 46.0157 37.3822 46.4839C37.8494 46.7524 38.1099 47.4871 38.2542 47.9778C38.3071 48.1581 38.365 48.2079 38.4291 48.4058L39.4408 52.1296C39.7121 53.3885 39.392 53.1649 40.134 53.3885C40.325 53.4459 40.0024 53.4251 40.3448 53.4535L40.6921 53.6947C40.7082 53.7061 40.7737 53.756 40.7925 53.7701L41.2077 54.1456C41.2631 54.2041 41.2673 54.212 41.3126 54.2605L41.3154 54.2635L41.3199 54.2683L41.3293 54.2782L41.3339 54.283L41.3555 54.3055L41.5854 54.602C41.591 54.6096 41.5986 54.62 41.6039 54.6276L42.3281 55.6592L42.335 55.6688L42.3447 55.6829L42.3463 55.6851L43.8579 57.6417C43.8924 57.6797 43.8924 57.6814 43.9189 57.7126L43.9391 57.7365C43.9446 57.7434 43.953 57.7534 43.9589 57.7603L45.3448 59.0538C45.397 59.0981 45.3803 59.085 45.4402 59.1341C45.596 59.2618 45.7249 59.3611 45.8848 59.4805L46.5784 59.9736L46.6063 59.9899L46.8432 60.1484L46.87 60.1657L46.9233 60.1999C46.9874 60.2414 46.9714 60.2304 47.0299 60.2695L47.9883 60.8498C48.0451 60.8806 48.0681 60.8879 48.1067 60.9069L49.1063 61.4464C49.1843 61.4865 49.1345 61.4612 49.217 61.5114L50.0786 62.0125C50.0897 62.0198 50.1204 62.0409 50.1312 62.0478L52.9604 64.3154C53.0102 64.3621 53.0325 64.3787 53.0768 64.4189L54.5354 66.0342L54.5556 66.058L54.5762 66.0816L54.5968 66.1048L57.0163 69.8738C57.0741 69.986 57.079 70.0264 57.1438 70.141C57.3528 70.5085 57.4918 70.9383 57.6747 71.3206C57.6862 71.3445 57.7123 71.3933 57.7315 71.4397L57.7928 71.5975C57.8381 71.6957 57.797 71.5757 57.8513 71.7144L58.0137 72.166C58.0172 72.1774 58.0192 72.1895 58.0227 72.201L58.5314 73.7094C58.57 73.8595 58.5425 73.8886 58.5958 74.0391L59.2072 77.6342V80.6547C59.2058 80.6689 59.2041 80.6817 59.2024 80.6935C59.1766 80.8658 59.1393 80.8067 59.1208 81.0063C59.0442 81.8327 58.9553 81.9441 58.8362 82.65C58.7728 83.0262 58.6254 83.3604 58.5401 83.7127L58.1346 84.7986L58.1334 84.8021C58.1302 84.8116 58.1268 84.8218 58.1231 84.8308L56.6703 87.415L55.2594 89.0777C55.2339 89.1044 55.1681 89.1701 55.1496 89.1878L54.8518 89.4608C54.8215 89.4878 54.8138 89.4933 54.7821 89.5231L54.0324 90.1792C53.5938 90.519 53.1454 90.8602 52.6653 91.1412L52.6375 91.1574C52.6291 91.1623 52.6183 91.1692 52.6103 91.1741L52.0598 91.5029C52.0515 91.5078 52.0403 91.514 52.032 91.519L51.4648 91.831C51.3603 91.8945 51.4422 91.8517 51.3244 91.9105L50.9377 92.0954C50.8503 92.1338 50.7722 92.161 50.6903 92.1999C50.5897 92.2477 50.6346 92.2345 50.5468 92.2762C50.5036 92.2967 50.4635 92.3094 50.421 92.3265C50.2601 92.391 50.2998 92.3934 50.1514 92.4527C50.104 92.4715 50.0974 92.4693 50.0535 92.4868C50.0437 92.4908 50.0319 92.4952 50.0221 92.4994C50.0127 92.5035 50.0012 92.5088 49.9918 92.5131L47.2821 93.4111C47.1003 93.4472 47.0884 93.4836 46.9846 93.5094L45.7256 93.7911C45.6054 93.8079 45.5082 93.8132 45.3754 93.8373C45.1629 93.8756 45.0002 93.9536 44.7515 93.9615C44.5104 93.9692 44.5909 93.962 44.4101 94.0167C44.0498 94.1255 43.7471 94.0809 43.4036 94.155C42.9779 94.247 42.4212 94.2343 42.0021 94.2949C41.5331 94.3627 41.0461 94.3563 40.5214 94.3563C39.9637 94.3563 39.5456 94.4007 39.0227 94.4001C38.4785 94.3994 38.0688 94.3563 37.5243 94.3563C36.9798 94.3563 36.513 94.3417 36.0273 94.3111C35.7692 94.2948 35.6009 94.2257 35.3225 94.2232C35.0132 94.2205 34.8811 94.2166 34.6174 94.1797L33.9106 94.0935C33.6527 94.0831 33.4827 93.9901 33.2883 93.9675C33.1553 93.952 33.0528 93.9674 32.9135 93.946C32.7776 93.9252 32.702 93.8917 32.6006 93.8627C32.3913 93.8026 32.1686 93.818 31.9589 93.756L30.3975 93.3807L27.8539 92.4929C27.8438 92.4888 27.8316 92.485 27.8215 92.4813C26.9844 92.1779 26.1918 91.7269 25.4247 91.2723L25.1759 91.1253L22.9843 89.3549C22.932 89.2276 22.0377 88.3216 21.9562 88.2406C21.6322 87.9181 21.273 87.388 21.0138 86.9814L20.7835 86.6419C20.6808 86.4717 20.6898 86.4578 20.5661 86.2952ZM24.4809 86.9108L24.5934 87.0191C24.6659 87.2987 25.7445 88.1323 25.9044 88.2552L26.7882 88.8639C26.7955 88.8687 26.806 88.8767 26.8133 88.8815L27.7108 89.3549C28.3037 89.694 29.3157 90.0906 29.9606 90.3124C30.7817 90.5955 31.3743 90.7128 32.0537 90.9366C32.1864 90.9803 32.3752 90.9636 32.5261 91.0055L33.3859 91.195C33.5524 91.2325 33.7228 91.2214 33.9092 91.2467C34.1029 91.273 34.1224 91.3315 34.3108 91.3526C34.6624 91.3919 34.9759 91.3686 35.3208 91.4328C35.556 91.4765 37.6194 91.6369 37.9232 91.5807C38.1211 91.5442 38.0556 91.4975 38.359 91.4964L41.5809 91.4747C41.9533 91.4626 42.2069 91.3716 42.5476 91.3546C42.9075 91.3366 43.243 91.3636 43.5356 91.2683L46.2997 90.7664C46.8142 90.573 46.5268 90.7598 46.9087 90.5892C47.2111 90.4543 48.9275 89.9317 49.3233 89.7013L49.6365 89.5469C50.0775 89.3912 51.1819 88.7376 51.5076 88.5033C52.0814 88.0905 52.1643 88.0714 52.7165 87.5593L53.6659 86.6181C53.7746 86.4873 53.7018 86.5589 53.7683 86.4495C53.885 86.2589 53.855 86.4464 54.0519 86.171L54.4891 85.554C54.8455 85.0809 54.8392 85.0038 55.1106 84.5519C55.6339 83.6802 55.6304 83.2663 55.8819 82.6466C56.0105 82.3292 56.192 81.6285 56.208 81.3575C56.2463 80.7136 56.2746 80.9219 56.332 80.4212C56.5296 78.7006 56.2753 77.2815 56.0714 75.8417L55.9157 75.2101C55.8474 75.0177 55.8931 75.2119 55.83 75.0471C55.7718 74.8942 55.8471 74.9904 55.7067 74.6471L55.6203 74.2931C55.4837 73.9274 55.3207 73.1377 55.2465 72.9411C55.0793 72.4996 54.8033 71.8826 54.5891 71.4587L53.4262 69.3641C53.2701 69.1257 53.1287 68.9644 52.9931 68.7509C52.5211 68.0083 52.0483 67.5453 51.5571 66.9332C51.3356 66.6574 51.0196 66.3902 50.783 66.1255L49.8981 65.3874C49.8173 65.3203 49.8671 65.321 49.7497 65.2383L48.7875 64.5663C48.1433 64.1406 47.8158 63.988 47.172 63.6313C47.0355 63.5555 46.9296 63.4845 46.7794 63.4112L46.2377 63.0707L46.2119 63.052C46.2046 63.0465 46.1945 63.0382 46.1872 63.033C46.1798 63.0278 46.1701 63.0195 46.1628 63.0146C46.1001 62.9703 46.0394 62.944 45.9698 62.908L43.8739 61.4775C43.792 61.4093 43.8001 61.4069 43.7105 61.336C43.4189 61.1045 42.9183 60.8013 42.6769 60.5245C42.6574 60.502 42.6319 60.473 42.6142 60.4546C42.5201 60.355 42.401 60.2224 42.2996 60.147C41.8345 59.8013 42.0324 59.7317 41.7213 59.4604L41.4004 59.1182C41.2872 58.9933 41.2036 58.9092 41.1092 58.795L39.5 56.5388C39.231 56.1537 39.2032 55.9281 38.8464 55.9415L37.5254 57.8524C37.3376 58.1901 37.0293 58.4846 36.8122 58.8137C36.807 58.8213 36.8007 58.8327 36.7955 58.84C36.7906 58.8473 36.7836 58.8583 36.7784 58.8652L35.4772 60.2359C35.3981 60.3134 35.3588 60.3449 35.2759 60.4339C34.9233 60.811 34.8139 60.8716 34.4185 61.1945C34.2847 61.3038 34.1063 61.4654 33.9471 61.5592L33.0006 62.1997C32.8494 62.3142 32.7027 62.4229 32.5501 62.5347C32.3913 62.6506 32.2206 62.7374 32.0363 62.8586C31.7036 63.0769 31.3269 63.2302 31.0089 63.4589L30.2501 63.9223C30.1707 63.9721 30.0905 64.0109 29.9815 64.0469C29.7049 64.1389 29.1976 64.4618 28.9813 64.6403L28.5047 65.04C28.2626 65.2494 28.1852 65.2414 27.6442 65.7172L27.4467 65.9179C26.76 66.5453 26.0371 67.2152 25.5288 68.0059L24.5478 69.3877C24.3719 69.616 24.2586 69.905 24.1475 70.0344L24.05 70.1638C23.7608 70.5894 23.7016 70.8805 23.6326 70.9729C23.5859 71.0355 23.642 70.9448 23.5744 71.0445L23.5722 71.0478L23.5675 71.0553L23.5633 71.0623L23.557 71.0725C23.5534 71.0782 23.5496 71.0852 23.546 71.0917L23.5444 71.0947L23.5406 71.1016L23.4793 71.2179L22.778 72.7536C22.7428 72.8418 22.7595 72.818 22.7362 72.8982L22.5084 73.4405C22.306 73.7979 22.252 74.2848 22.1025 74.6599C21.9886 74.9451 21.8116 75.6922 21.7862 75.9711L21.5799 77.3431C21.4848 77.7809 21.4465 80.0429 21.5451 80.5056C21.5998 80.762 21.6008 80.9634 21.6458 81.2413L22.3638 83.7189C22.4394 83.8954 22.5397 84.0477 22.6198 84.2446C22.9731 85.1121 23.1306 85.0899 23.2797 85.3844C23.4622 85.746 24.0886 86.525 24.2827 86.6786L24.4286 86.826C24.5046 86.9413 24.398 86.7987 24.4809 86.9108Z" fill="white"/>
<path fill-rule="evenodd" clip-rule="evenodd" d="M27.1968 71.3203C27.0812 71.5231 27.0035 71.638 26.8185 71.7747C25.602 72.6726 24.1962 71.3078 24.8965 70.0317C24.9693 69.8991 24.8815 70.042 24.986 69.9123C25.0268 69.8621 25.0313 69.8541 25.062 69.8091C25.0853 69.7745 25.1024 69.7392 25.1341 69.7043C25.2375 69.5908 25.1397 69.6773 25.2546 69.6053C25.3396 69.4555 25.317 69.5828 25.4741 69.2548L25.9531 68.5928C26.1329 68.3454 26.0935 68.2914 26.2398 68.1298C26.2492 68.1194 26.2924 68.0755 26.3032 68.0634L29.036 65.3082C29.1502 65.2158 29.2565 65.175 29.376 65.0753C30.2086 64.3808 31.5523 63.6811 32.5177 63.1178L33.6767 62.3866C33.783 62.3014 33.8586 62.2011 33.9666 62.1056C34.2798 61.8291 35.0096 61.7277 35.3319 61.9121C36.0377 62.3153 36.344 63.0707 35.8245 63.8219C35.6785 64.033 35.6963 63.9704 35.5082 64.1182C35.4103 64.1946 35.3176 64.3213 35.2222 64.4023C34.679 64.8649 33.9436 65.2269 33.4768 65.5594L32.7661 65.9871C32.6319 66.0712 32.5222 66.1013 32.3905 66.1875L32.0355 66.401C31.9021 66.4705 31.8115 66.5318 31.669 66.61L30.9587 67.0858C30.1619 67.7544 30.1306 67.6447 29.1349 68.6876L28.0803 69.96C27.9643 70.1569 27.9274 70.1452 27.8271 70.2773L27.1968 71.3203ZM24.5934 87.0191C24.7711 87.114 25.7221 88.0323 26.1573 88.3054C26.2771 88.3808 26.3806 88.4517 26.5008 88.531C26.7405 88.6895 26.9317 88.8127 27.1847 88.9545L28.3099 89.5425C28.6566 89.7234 29.0722 89.8619 29.4554 90.0269C29.7923 90.1723 30.735 90.4283 30.7361 90.429C30.7448 90.4325 30.7552 90.4391 30.7639 90.4432C30.773 90.447 30.7831 90.4539 30.7921 90.4577C30.8012 90.4619 30.8117 90.4681 30.8211 90.4719L31.1527 90.574C31.4105 90.6802 32.6797 90.9135 32.9284 90.9951L33.8645 91.1696C34.5937 91.2608 37.3626 91.5775 37.8688 91.4665L38.028 91.1761C38.0402 91.1149 38.0611 91.0501 38.0799 90.9667C38.1207 90.7875 38.0907 90.7944 38.174 90.6207C38.3419 90.2723 38.46 90.1183 38.7067 89.8833C39.178 89.4348 39.663 89.312 40.3023 89.2321C40.7036 89.1815 41.0088 89.2172 41.3491 89.1231L44.038 88.4895C44.3167 88.4272 44.6121 88.2922 44.9288 88.232C45.6095 88.1022 47.8308 87.0984 48.4554 86.6977C48.5728 86.6222 48.6592 86.5759 48.7857 86.5015C49.534 86.0613 50.6774 85.1332 51.2038 84.4377C51.7403 83.7286 51.416 84.1397 51.6557 83.7376C51.6602 83.73 51.6675 83.7196 51.6724 83.7124L51.7097 83.666C51.7152 83.6591 51.7243 83.6497 51.7299 83.6428C51.9643 83.3542 52.2981 82.6673 52.4646 82.3133C52.7496 81.7084 52.6461 81.7178 52.7336 81.4821C52.9064 81.015 53.067 80.0513 53.0847 79.6056C53.1105 78.9647 53.1321 77.9965 53.0725 77.3705C53.052 77.1549 53.0185 77.2729 52.9882 76.8926C52.9311 76.1773 52.8544 76.1254 52.8283 75.9251C52.7931 75.6559 52.8126 75.1527 52.898 74.9039C53.0049 74.5907 53.0652 74.4523 53.2993 74.1741C53.8689 73.4972 54.2912 73.3055 55.2133 73.319C55.2154 73.1529 55.1301 72.9055 55.0681 72.7699L54.7608 72.0712C54.4236 71.3781 53.7296 69.931 53.3084 69.3932C53.1656 69.2105 53.1203 69.124 52.9948 68.925C52.5977 68.2942 52.0051 67.59 51.5442 67.0782C51.2623 66.765 51.0261 66.509 50.7297 66.2255C50.4882 65.9951 49.9458 65.5708 49.8981 65.3874C49.8173 65.3203 49.8671 65.321 49.7497 65.2383L48.7874 64.5663C48.1433 64.1407 47.8158 63.9881 47.172 63.6313C47.0354 63.5555 46.9295 63.4846 46.7794 63.4112L46.2376 63.0707C46.23 63.0652 46.2195 63.0575 46.2119 63.052C46.2045 63.0465 46.1944 63.0382 46.1871 63.033C46.1798 63.0278 46.1701 63.0195 46.1627 63.0146C46.1 62.9703 46.0394 62.944 45.9697 62.9081L43.8739 61.4775C43.792 61.4094 43.8 61.4069 43.7105 61.336C43.4189 61.1045 42.9183 60.8014 42.6768 60.5245C42.6573 60.502 42.6319 60.473 42.6141 60.4546C42.5201 60.355 42.4009 60.2224 42.2995 60.147C41.8344 59.8013 42.0323 59.7317 41.7212 59.4604L41.4004 59.1182C41.2871 58.9933 41.2035 58.9092 41.1091 58.795L39.4999 56.5388C39.231 56.1537 39.2031 55.9281 38.8464 55.9416L37.5253 57.8524C37.3375 58.1901 37.0292 58.4846 36.8122 58.8137C36.807 58.8213 36.8007 58.8327 36.7955 58.84C36.7906 58.8473 36.7836 58.8583 36.7784 58.8653L35.4772 60.2359C35.3981 60.3134 35.3587 60.3449 35.2758 60.4339C34.9233 60.8111 34.8139 60.8716 34.4184 61.1945C34.2847 61.3038 34.1063 61.4654 33.9471 61.5592L33.0005 62.1997C32.8493 62.3142 32.7027 62.4229 32.5501 62.5347C32.3912 62.6506 32.2205 62.7375 32.0362 62.8586C31.7035 63.0769 31.3269 63.2302 31.0088 63.459L30.2501 63.9223C30.1706 63.9721 30.0905 64.0109 29.9815 64.0469C29.7048 64.1389 29.1976 64.4618 28.9813 64.6403L28.5047 65.04C28.2625 65.2494 28.1852 65.2414 27.6442 65.7172L27.4466 65.9179C26.76 66.5453 26.0371 67.2152 25.5288 68.0059L24.5478 69.3877C24.3718 69.6161 24.2586 69.905 24.1475 70.0344L24.0499 70.1638C23.7608 70.5895 23.7015 70.8805 23.6326 70.9729C23.5859 71.0355 23.642 70.9449 23.5744 71.0445C23.5688 71.0528 23.5622 71.0642 23.557 71.0725C23.5514 71.0812 23.5455 71.093 23.5406 71.1016C23.5388 71.1047 23.4831 71.2106 23.4793 71.2179L22.778 72.7536C22.7428 72.8418 22.7595 72.818 22.7362 72.8983L22.5083 73.4405C22.3059 73.798 22.2519 74.2848 22.1025 74.6599C21.9885 74.9451 21.8116 75.6922 21.7861 75.9711L21.5799 77.3431C21.4848 77.7809 21.4465 80.043 21.545 80.5056C21.5997 80.762 21.6008 80.9634 21.6457 81.2413L22.3637 83.7189C22.4393 83.8954 22.5397 84.0477 22.6198 84.2446C22.9731 85.1121 23.1305 85.09 23.2796 85.3844C23.4622 85.7461 24.0886 86.525 24.2826 86.6786L24.4286 86.826C24.5046 86.9413 24.3979 86.7987 24.4809 86.9108L24.5934 87.0191Z" fill="#633F61"/>
<path fill-rule="evenodd" clip-rule="evenodd" d="M24.5934 87.0192C24.6658 87.2988 25.7444 88.1324 25.9043 88.2552L26.7882 88.8639C26.7955 88.8687 26.806 88.8767 26.8133 88.8815L27.7107 89.3549C28.3037 89.6941 29.3157 90.0906 29.9606 90.3124C30.7817 90.5955 31.3743 90.7128 32.0536 90.9367C32.1864 90.9804 32.3752 90.9637 32.526 91.0055L33.3858 91.195C33.5524 91.2325 33.7227 91.2214 33.9091 91.2467C34.1028 91.273 34.1223 91.3315 34.3108 91.3526C34.6623 91.392 34.9759 91.3686 35.3208 91.4328C35.5559 91.4766 37.6194 91.6369 37.9232 91.5808C38.121 91.5442 38.0555 91.4975 38.359 91.4964L41.5808 91.4748C41.9532 91.4627 42.2069 91.3717 42.5476 91.3546C42.9075 91.3366 43.2429 91.3636 43.5356 91.2683L46.2996 90.7664C46.8142 90.573 46.5268 90.7599 46.9086 90.5893C47.211 90.4543 48.9275 89.9318 49.3232 89.7013L49.6364 89.547C50.0775 89.3913 51.1819 88.7376 51.5076 88.5033C52.0814 88.0905 52.1643 88.0715 52.7165 87.5593L53.6658 86.6181C53.7745 86.4873 53.7017 86.5589 53.7682 86.4496C53.885 86.2589 53.855 86.4465 54.0518 86.171L54.4891 85.554C54.8454 85.081 54.8392 85.0038 55.1106 84.5519C55.6338 83.6802 55.6303 83.2663 55.8819 82.6466C56.0104 82.3293 56.1919 81.6285 56.208 81.3576C56.2463 80.7136 56.2745 80.9219 56.332 80.4212C56.5295 78.7007 56.2752 77.2816 56.0714 75.8417L55.9157 75.2102C55.8474 75.0178 55.893 75.2119 55.83 75.0472C55.7718 74.8942 55.847 74.9904 55.7066 74.6472L55.6202 74.2932C55.4837 73.9274 55.3206 73.1377 55.2464 72.9412C55.0792 72.4996 54.8033 71.8826 54.589 71.4587L53.4261 69.3642C53.2701 69.1257 53.1286 68.9645 52.9931 68.751C52.521 68.0084 52.0483 67.5454 51.5571 66.9332C51.3355 66.6574 51.0195 66.3903 50.783 66.1256L49.8981 65.3875C49.9458 65.5709 50.4882 65.9951 50.7297 66.2256C51.0261 66.509 51.2623 66.765 51.5442 67.0782C52.0051 67.59 52.5977 68.2942 52.9948 68.925C53.1203 69.124 53.1656 69.2105 53.3084 69.3932C53.7296 69.931 54.4236 71.3781 54.7608 72.0712L55.0681 72.7699C55.1301 72.9055 55.2154 73.153 55.2133 73.3191C54.2912 73.3056 53.8689 73.4973 53.2993 74.1741C53.0652 74.4523 53.0049 74.5908 52.898 74.9039C52.8126 75.1527 52.7931 75.6559 52.8283 75.9251C52.8544 76.1254 52.9311 76.1774 52.9882 76.8926C53.0185 77.2729 53.052 77.1549 53.0725 77.3705C53.1321 77.9965 53.1105 78.9647 53.0847 79.6056C53.067 80.0513 52.9064 81.015 52.7336 81.4822C52.6461 81.7178 52.7496 81.7085 52.4646 82.3133C52.2981 82.6673 51.9643 83.3542 51.7299 83.6428C51.7243 83.6498 51.7152 83.6591 51.7097 83.666L51.6724 83.7124C51.6675 83.7197 51.6602 83.73 51.6557 83.7377C51.416 84.1398 51.7403 83.7287 51.2038 84.4377C50.6774 85.1332 49.534 86.0613 48.7857 86.5015C48.6592 86.5759 48.5728 86.6222 48.4554 86.6977C47.8308 87.0984 45.6095 88.1023 44.9288 88.232C44.6121 88.2922 44.3167 88.4272 44.038 88.4895L41.3491 89.1231C41.0088 89.2172 40.7036 89.1816 40.3023 89.2321C39.663 89.312 39.178 89.4349 38.7067 89.8833C38.46 90.1183 38.3419 90.2723 38.174 90.6207C38.0907 90.7945 38.1207 90.7875 38.0799 90.9667C38.0611 91.0501 38.0402 91.115 38.028 91.1761L37.8688 91.4665C37.3626 91.5775 34.5937 91.2608 33.8645 91.1696L32.9284 90.9952C32.6797 90.9135 31.4105 90.6803 31.1527 90.574L30.8211 90.4719C30.8116 90.4681 30.8012 90.4619 30.7921 90.4578C30.7831 90.454 30.773 90.447 30.7639 90.4432C30.7552 90.4391 30.7448 90.4325 30.736 90.429C30.735 90.4284 29.7923 90.1723 29.4554 90.0269C29.0722 89.8619 28.6566 89.7235 28.3099 89.5425L27.1846 88.9546C26.9317 88.8127 26.7405 88.6895 26.5008 88.531C26.3806 88.4518 26.2771 88.3808 26.1573 88.3054C25.7221 88.0324 24.7711 87.114 24.5934 87.0192Z" fill="#432C43"/>
<path fill-rule="evenodd" clip-rule="evenodd" d="M25.2546 69.6053C25.2305 69.7434 24.9908 70.1597 24.8895 70.2974C24.6975 70.5593 24.9159 70.143 24.8316 70.3676C24.8229 70.8393 24.8104 71.021 24.9696 71.3864C25.0724 71.6227 25.7332 72.02 26.1513 71.9532C26.7153 71.8629 26.9174 71.5604 27.1675 71.1784C27.2557 71.2421 27.2187 71.1102 27.2309 71.2535C27.2484 71.4556 27.2592 71.2632 27.1968 71.3203L27.827 70.2773C27.9273 70.1451 27.9643 70.1569 28.0803 69.96L29.1348 68.6876C30.1305 67.6446 30.1619 67.7543 30.9586 67.0858L31.669 66.61C31.8115 66.5318 31.902 66.4705 32.0355 66.401L32.3905 66.1875C32.5222 66.1013 32.6319 66.0712 32.766 65.9871L33.4767 65.5594C33.9435 65.2268 34.679 64.8649 35.2221 64.4022C35.3176 64.3213 35.4102 64.1946 35.5081 64.1181C35.6963 63.9704 35.6785 64.033 35.8245 63.8219C36.3439 63.0707 36.0377 62.3153 35.3318 61.9121C35.0096 61.7277 34.2797 61.8291 33.9665 62.1056C33.8585 62.2011 33.7829 62.3014 33.6767 62.3865L32.5176 63.1177C31.5523 63.6811 30.2086 64.3808 29.3759 65.0753C29.2564 65.1749 29.1502 65.2158 29.0359 65.3082L26.3032 68.0633C26.2924 68.0755 26.2492 68.1194 26.2398 68.1298C26.0935 68.2914 26.1328 68.3454 25.9531 68.5928L25.474 69.2548C25.3169 69.5828 25.3396 69.4555 25.2546 69.6053Z" fill="#FDFDFD"/>
<path fill-rule="evenodd" clip-rule="evenodd" d="M36.9955 53.7882C37.1784 53.766 37.1833 53.7162 37.3512 53.6148C37.3596 53.6096 37.3711 53.6034 37.3798 53.5982L37.6397 53.4269C37.6341 53.1078 37.5609 52.6739 37.4794 52.387C37.4341 52.2275 37.4453 52.0251 37.4275 51.8486C37.4031 51.6088 37.3509 51.6188 37.3108 51.3441C37.2505 50.9281 37.2582 51.1223 37.192 50.9122L36.8332 49.653C36.7015 49.3447 36.7645 49.3177 36.6722 49.0709C36.6154 48.9194 36.5701 48.7533 36.52 48.609L36.0925 47.293C36.0368 46.8345 36.5666 46.0157 37.3822 46.4839C37.8494 46.7525 38.11 47.4871 38.2542 47.9778C38.3072 48.1581 38.365 48.2079 38.4291 48.4058L39.4408 52.1296C39.7122 53.3885 39.392 53.1649 40.1341 53.3885C40.325 53.4459 40.0024 53.4252 40.3448 53.4535C40.3187 53.0573 40.1762 52.3905 40.086 51.977L39.908 51.1029C39.8735 50.7551 39.8052 50.8524 39.7721 50.5375C39.731 50.1485 39.709 50.4762 39.6338 49.9748L39.4861 49.4208C39.4296 49.2332 39.4255 49.3758 39.383 49.173C39.3405 48.972 39.4018 49.082 39.3129 48.8924L38.7524 47.348C38.6043 46.9923 38.6667 47.022 38.3943 46.6092C38.3894 46.6016 38.3821 46.5905 38.3768 46.5829C38.0574 46.0988 37.5564 45.6894 36.9429 45.6458C36.6475 45.6251 36.2479 45.8074 35.9796 46.0265L35.5285 46.6289C35.4327 46.8895 35.4644 47.3265 35.4915 47.5663C35.5215 47.8269 35.7002 48.2096 35.7466 48.364C35.7918 48.5152 35.7549 48.483 35.8204 48.6408L36.3092 50.2561C36.3799 50.6056 36.3949 50.4651 36.4538 50.8132C36.5116 51.1541 36.5639 51.0541 36.5956 51.3728C36.6165 51.5842 36.5882 51.4925 36.6551 51.6638C36.7966 52.0265 36.6816 51.9714 36.7736 52.2466C36.9485 52.7698 36.8116 52.7206 36.9474 53.1245C37.0181 53.3348 36.9955 53.5207 36.9955 53.7882Z" fill="#422B41"/>
<path fill-rule="evenodd" clip-rule="evenodd" d="M27.1969 71.3203C27.2593 71.2632 27.2485 71.4556 27.231 71.2535C27.2188 71.1103 27.2558 71.2421 27.1676 71.1784C26.9175 71.5605 26.7154 71.8629 26.1514 71.9532C25.7333 72.02 25.0725 71.6227 24.9697 71.3864C24.8105 71.021 24.823 70.8393 24.8317 70.3677C24.916 70.1431 24.6976 70.5594 24.8896 70.2974C24.9909 70.1597 25.2306 69.7434 25.2547 69.6053C25.1397 69.6773 25.2376 69.5908 25.1341 69.7043C25.1024 69.7392 25.0854 69.7745 25.062 69.8091C25.0314 69.8541 25.0268 69.8621 24.9861 69.9123C24.8816 70.042 24.9693 69.8991 24.8965 70.0317C24.1963 71.3079 25.602 72.6726 26.8186 71.7747C27.0035 71.638 27.0812 71.5231 27.1969 71.3203Z" fill="#B8A8B7"/>
</svg>
