<svg width="196" height="67" viewBox="0 0 196 67" fill="none" xmlns="http://www.w3.org/2000/svg">
<path d="M137.721 19.1562C137.627 17.0938 137.002 15.5156 135.846 14.4219C134.69 13.2969 133.268 12.625 131.58 12.4062L131.815 11.1875C132.627 11.5625 133.658 11.8594 134.908 12.0781C136.158 12.2969 137.533 12.4688 139.033 12.5938C140.565 12.6875 142.158 12.7344 143.815 12.7344C145.502 12.7344 147.158 12.7031 148.783 12.6406C150.44 12.5469 152.018 12.4219 153.518 12.2656C155.049 12.1094 156.424 11.9219 157.643 11.7031C157.518 12.5156 157.377 13.4375 157.221 14.4688C157.096 15.5 156.986 16.5312 156.893 17.5625C156.799 18.5938 156.752 19.5938 156.752 20.5625C156.752 21.5 156.83 22.3125 156.986 23L156.049 23.1406C155.611 21.4531 155.08 20.0156 154.455 18.8281C153.861 17.6094 153.049 16.6719 152.018 16.0156C150.986 15.3281 149.69 14.9375 148.127 14.8438C146.565 14.75 144.611 14.9531 142.268 15.4531C142.111 17.9531 141.986 20.1719 141.893 22.1094C141.799 24.0469 141.752 25.9375 141.752 27.7812C143.252 27.5625 144.471 27.2812 145.408 26.9375C146.377 26.5938 147.158 26.1875 147.752 25.7188C148.346 25.2188 148.799 24.6406 149.111 23.9844C149.455 23.2969 149.768 22.4844 150.049 21.5469L151.221 21.7812C150.94 22.9688 150.752 24.0625 150.658 25.0625C150.565 26.0625 150.502 27.0469 150.471 28.0156C150.471 28.9844 150.502 29.9688 150.565 30.9688C150.627 31.9375 150.69 32.9688 150.752 34.0625L149.768 33.875C149.705 32.5625 149.408 31.5781 148.877 30.9219C148.346 30.2344 147.69 29.7812 146.908 29.5625C146.127 29.3125 145.283 29.2344 144.377 29.3281C143.471 29.4219 142.596 29.5625 141.752 29.75C141.783 31.2812 141.846 32.8594 141.94 34.4844C142.033 36.0781 142.174 37.875 142.361 39.875C142.455 41.0625 142.627 42.0469 142.877 42.8281C143.158 43.6094 143.486 44.25 143.861 44.75C144.236 45.2188 144.643 45.5781 145.08 45.8281C145.549 46.0469 146.018 46.2188 146.486 46.3438V47.375C146.049 47.3125 145.315 47.25 144.283 47.1875C143.283 47.125 142.19 47.1094 141.002 47.1406C139.815 47.1719 138.611 47.2656 137.393 47.4219C136.205 47.5781 135.19 47.8438 134.346 48.2188L134.018 47.2344C134.799 46.8906 135.471 46.5312 136.033 46.1562C136.596 45.75 137.065 45.2812 137.44 44.75C137.815 44.1875 138.08 43.5312 138.236 42.7812C138.424 42 138.518 41.0625 138.518 39.9688C138.518 39.25 138.502 38.3281 138.471 37.2031C138.44 36.0781 138.393 34.8594 138.33 33.5469C138.299 32.2344 138.252 30.875 138.19 29.4688C138.127 28.0625 138.065 26.7188 138.002 25.4375C137.94 24.125 137.877 22.9219 137.815 21.8281C137.783 20.7344 137.752 19.8438 137.721 19.1562ZM156.658 46.7656C157.377 46.5156 157.971 46.1875 158.44 45.7812C158.908 45.375 159.268 44.9688 159.518 44.5625C159.83 44.0938 160.033 43.6094 160.127 43.1094C160.815 39.9219 161.158 36.8906 161.158 34.0156C161.158 31.1094 160.94 28.625 160.502 26.5625C160.377 25.9062 160.143 25.2969 159.799 24.7344C159.518 24.2656 159.127 23.8281 158.627 23.4219C158.127 22.9844 157.486 22.7031 156.705 22.5781L156.658 21.8281C157.283 21.8906 157.861 21.9375 158.393 21.9688C158.955 21.9688 159.44 21.9688 159.846 21.9688H161.158C161.533 22 161.908 22.0156 162.283 22.0156C162.627 22.0469 162.971 22.0625 163.315 22.0625C163.69 22.0625 164.049 22.0938 164.393 22.1562C164.299 23.2812 164.221 24.4375 164.158 25.625C164.096 26.7812 164.049 27.8281 164.018 28.7656C163.955 29.8594 163.924 30.9219 163.924 31.9531C163.861 33.1094 163.815 34.375 163.783 35.75C163.752 37.0938 163.768 38.375 163.83 39.5938C163.893 40.8125 164.002 41.8906 164.158 42.8281C164.315 43.7344 164.565 44.3281 164.908 44.6094C165.096 44.7344 165.346 44.8594 165.658 44.9844C165.908 45.1094 166.236 45.2344 166.643 45.3594C167.08 45.4844 167.611 45.6094 168.236 45.7344L168.283 46.5312C167.658 46.5 167.049 46.5 166.455 46.5312C165.893 46.5312 165.393 46.5312 164.955 46.5312C164.424 46.5625 163.924 46.5781 163.455 46.5781C162.799 46.6094 162.096 46.6719 161.346 46.7656C160.721 46.8281 160.018 46.9062 159.236 47C158.455 47.0938 157.705 47.2031 156.986 47.3281L156.658 46.7656ZM161.486 18.6875C160.518 18.75 159.768 18.5312 159.236 18.0312C158.705 17.5 158.408 16.9062 158.346 16.25C158.283 15.5938 158.455 14.9844 158.861 14.4219C159.299 13.8281 159.986 13.4687 160.924 13.3438C161.893 13.2188 162.658 13.4219 163.221 13.9531C163.815 14.4844 164.158 15.0938 164.252 15.7812C164.346 16.4375 164.174 17.0781 163.736 17.7031C163.299 18.2969 162.549 18.625 161.486 18.6875ZM188.158 60.4062C187.658 61.25 187.065 62.0312 186.377 62.75C185.69 63.5 184.924 64.125 184.08 64.625C183.236 65.1562 182.346 65.5469 181.408 65.7969C180.471 66.0469 179.502 66.1406 178.502 66.0781C177.377 65.9844 176.393 65.6875 175.549 65.1875C174.705 64.6875 174.002 64.0625 173.44 63.3125C172.877 62.5938 172.471 61.8125 172.221 60.9688C172.002 60.1562 171.94 59.3906 172.033 58.6719C172.127 57.9219 172.361 57.1875 172.736 56.4688C173.143 55.75 173.658 55.1094 174.283 54.5469C174.908 53.9844 175.658 53.5312 176.533 53.1875C177.408 52.8438 178.393 52.6875 179.486 52.7188C179.986 52.75 180.486 52.875 180.986 53.0938C181.486 53.3125 181.924 53.6094 182.299 53.9844C182.705 54.3594 183.002 54.7969 183.19 55.2969C183.408 55.8281 183.502 56.375 183.471 56.9375C183.408 57.5 183.236 58.0625 182.955 58.625C182.705 59.1875 182.361 59.6875 181.924 60.125C181.518 60.5938 181.033 60.9375 180.471 61.1562C179.908 61.4062 179.315 61.4844 178.69 61.3906C178.002 61.2969 177.486 60.9375 177.143 60.3125C176.799 59.7188 176.643 59.0781 176.674 58.3906C176.736 57.7031 176.986 57.0625 177.424 56.4688C177.893 55.9062 178.58 55.5938 179.486 55.5312C180.111 55.5 180.565 55.7188 180.846 56.1875C181.158 56.6875 181.19 57.1406 180.94 57.5469C180.658 57.9844 180.268 58.1719 179.768 58.1094C179.268 58.0781 178.908 57.75 178.69 57.125C178.44 57.3125 178.236 57.5781 178.08 57.9219C177.955 58.2969 177.908 58.6562 177.94 59C177.971 59.375 178.096 59.6875 178.315 59.9375C178.533 60.2188 178.877 60.3594 179.346 60.3594C179.908 60.3594 180.377 60.2344 180.752 59.9844C181.158 59.7656 181.486 59.4688 181.736 59.0938C181.986 58.75 182.158 58.375 182.252 57.9688C182.377 57.5938 182.44 57.25 182.44 56.9375C182.44 56.625 182.377 56.2812 182.252 55.9062C182.127 55.5625 181.924 55.2344 181.643 54.9219C181.361 54.6406 180.986 54.4062 180.518 54.2188C180.049 54.0625 179.471 54 178.783 54.0312C178.158 54.0625 177.533 54.2031 176.908 54.4531C176.315 54.7031 175.768 55.0469 175.268 55.4844C174.768 55.9219 174.361 56.4531 174.049 57.0781C173.736 57.7031 173.58 58.3906 173.58 59.1406C173.58 59.9219 173.736 60.625 174.049 61.25C174.393 61.875 174.846 62.3906 175.408 62.7969C175.971 63.2344 176.611 63.5625 177.33 63.7812C178.049 64.0312 178.799 64.1406 179.58 64.1094C180.33 64.0781 181.174 63.7969 182.111 63.2656C183.049 62.7656 183.893 61.9844 184.643 60.9219C185.393 59.8906 185.955 58.5469 186.33 56.8906C186.736 55.2656 186.768 53.2969 186.424 50.9844C186.268 49.8906 186.143 48.8438 186.049 47.8438C185.986 46.8438 185.955 45.875 185.955 44.9375C185.549 45.5312 185.065 46.1562 184.502 46.8125C183.971 47.4375 183.361 48 182.674 48.5C182.018 49.0312 181.283 49.4531 180.471 49.7656C179.658 50.1094 178.783 50.25 177.846 50.1875C176.721 50.125 175.611 49.8594 174.518 49.3906C173.455 48.9219 172.502 48.1406 171.658 47.0469C170.846 45.9844 170.205 44.5781 169.736 42.8281C169.299 41.0781 169.158 38.8906 169.315 36.2656C169.44 33.6406 169.908 31.5 170.721 29.8438C171.533 28.1875 172.486 26.9062 173.58 26C174.674 25.0938 175.815 24.5 177.002 24.2188C178.221 23.9062 179.283 23.7969 180.19 23.8906C181.533 24.0469 182.846 24.5938 184.127 25.5312C185.44 26.4688 186.455 27.9062 187.174 29.8438C187.424 28.6562 187.658 27.6719 187.877 26.8906C188.127 26.1094 188.236 25.5 188.205 25.0625C189.205 25.3438 190.299 25.5 191.486 25.5312C192.674 25.5625 193.893 25.5312 195.143 25.4375L195.096 26.3281C193.69 26.4531 192.58 27.0469 191.768 28.1094C190.986 29.1406 190.377 30.7969 189.94 33.0781C189.658 34.5156 189.486 35.9062 189.424 37.25C189.361 38.5938 189.346 39.9062 189.377 41.1875C189.408 42.4375 189.471 43.6719 189.565 44.8906C189.69 46.0781 189.799 47.2656 189.893 48.4531C189.955 49.1719 190.002 50.0156 190.033 50.9844C190.065 51.9531 190.033 52.9688 189.94 54.0312C189.846 55.0938 189.658 56.1719 189.377 57.2656C189.127 58.3906 188.721 59.4375 188.158 60.4062ZM186.236 36.5469C186.268 35.5469 186.361 34.5625 186.518 33.5938C186.299 31.9375 185.799 30.5781 185.018 29.5156C184.268 28.4219 183.065 27.7812 181.408 27.5938C180.44 27.4688 179.486 27.5938 178.549 27.9688C177.611 28.3125 176.752 28.9062 175.971 29.75C175.221 30.5625 174.58 31.625 174.049 32.9375C173.518 34.2188 173.19 35.75 173.065 37.5312C172.908 39.3125 172.971 40.9062 173.252 42.3125C173.565 43.6875 174.018 44.8438 174.611 45.7812C175.236 46.6875 175.955 47.3438 176.768 47.75C177.58 48.1875 178.424 48.3594 179.299 48.2656C180.08 48.1406 180.846 47.8281 181.596 47.3281C182.346 46.8281 183.018 46.2344 183.611 45.5469C184.236 44.8281 184.752 44.0625 185.158 43.25C185.596 42.4062 185.893 41.5781 186.049 40.7656C186.08 40.0781 186.111 39.4062 186.143 38.75C186.174 38.0625 186.205 37.3281 186.236 36.5469Z" fill="white"/>
<path d="M13.875 50.375C12.125 50.3125 10.4219 49.8281 8.76562 48.9219C7.14062 48.0469 5.70312 46.7812 4.45312 45.125C3.23438 43.4375 2.28125 41.375 1.59375 38.9375C0.90625 36.5 0.625 33.6875 0.75 30.5C0.875 27.3125 1.4375 24.4844 2.4375 22.0156C3.46875 19.5469 4.73438 17.5 6.23438 15.875C7.73438 14.2187 9.375 13 11.1562 12.2188C12.9688 11.4375 14.75 11.1406 16.5 11.3281C17.5625 11.4531 18.5 11.75 19.3125 12.2188C20.125 12.6875 20.8281 13.2656 21.4219 13.9531C22.0156 14.6094 22.5156 15.3281 22.9219 16.1094C23.3281 16.8594 23.6562 17.5938 23.9062 18.3125C24.0938 18.5 24.2969 18.5938 24.5156 18.5938C25.1094 18.625 25.6406 18.1875 26.1094 17.2812C26.6094 16.3438 27.0312 14.8125 27.375 12.6875L28.6875 12.8281C28.4062 13.8906 28.0938 15.125 27.75 16.5312C27.4375 17.9062 27.1406 19.3281 26.8594 20.7969C26.6094 22.2656 26.3906 23.7188 26.2031 25.1562C26.0469 26.5938 26 27.8906 26.0625 29.0469C25.5938 28.8594 25.1562 28.7344 24.75 28.6719C24.3438 28.5781 23.9688 28.5156 23.625 28.4844C23.25 28.4531 22.9062 28.4531 22.5938 28.4844C22.6562 26.5469 22.5938 24.6875 22.4062 22.9062C22.25 21.125 21.9375 19.5625 21.4688 18.2188C21 16.8438 20.375 15.7344 19.5938 14.8906C18.8438 14.0469 17.9062 13.5781 16.7812 13.4844C15.7812 13.3906 14.7031 13.6094 13.5469 14.1406C12.3906 14.6406 11.2969 15.5625 10.2656 16.9062C9.23438 18.2188 8.34375 19.9844 7.59375 22.2031C6.84375 24.4219 6.375 27.1875 6.1875 30.5C6.09375 32.25 6.15625 34.0938 6.375 36.0312C6.59375 37.9688 7.03125 39.7656 7.6875 41.4219C8.34375 43.0469 9.23438 44.4062 10.3594 45.5C11.4844 46.5625 12.9062 47.0781 14.625 47.0469C15.9375 46.9531 17.1562 46.6094 18.2812 46.0156C19.25 45.4844 20.2031 44.6875 21.1406 43.625C22.0781 42.5625 22.75 41.0312 23.1562 39.0312L24.7031 39.9688C24.4531 40.7812 24.0781 41.7969 23.5781 43.0156C23.0781 44.2031 22.3906 45.3594 21.5156 46.4844C20.6719 47.6094 19.6094 48.5469 18.3281 49.2969C17.0781 50.0781 15.5938 50.4375 13.875 50.375ZM49.0781 45.2656C49.2969 45.2656 49.5156 45.2031 49.7344 45.0781C49.9219 44.9844 50.0938 44.8438 50.25 44.6562C50.4375 44.4688 50.5938 44.1875 50.7188 43.8125H51.4219C51.3906 44.125 51.2969 44.4844 51.1406 44.8906C50.9844 45.2656 50.75 45.625 50.4375 45.9688C50.125 46.2812 49.7344 46.5469 49.2656 46.7656C48.7969 46.9844 48.25 47.0625 47.625 47C45.625 46.8125 44.4219 44.875 44.0156 41.1875C43.7344 41.9375 43.4062 42.7031 43.0312 43.4844C42.6875 44.2656 42.2656 44.9844 41.7656 45.6406C41.2656 46.2969 40.6719 46.8281 39.9844 47.2344C39.3281 47.6719 38.5312 47.8906 37.5938 47.8906C36.4062 47.8906 35.3594 47.6406 34.4531 47.1406C33.5781 46.6719 32.8438 46.0312 32.25 45.2188C31.6562 44.4062 31.2344 43.4844 30.9844 42.4531C30.7344 41.3906 30.6406 40.2969 30.7031 39.1719C30.7969 37.6094 31.0156 36.0312 31.3594 34.4375C31.7031 32.8125 31.9062 31.2969 31.9688 29.8906C32.0625 28.4531 31.8906 27.2031 31.4531 26.1406C31.0469 25.0469 30.125 24.25 28.6875 23.75L28.875 23.0469C29.3438 23.1406 29.8594 23.2656 30.4219 23.4219C30.9844 23.5781 31.5781 23.7031 32.2031 23.7969C32.8281 23.8906 33.4844 23.9375 34.1719 23.9375C34.8906 23.9375 35.6094 23.8438 36.3281 23.6562C35.9531 24.4688 35.6094 25.2344 35.2969 25.9531C35.0156 26.6719 34.7812 27.4688 34.5938 28.3438C34.4062 29.2188 34.2656 30.2188 34.1719 31.3438C34.0781 32.4688 34.0312 33.8594 34.0312 35.5156C34.0312 37.1719 34.1562 38.5625 34.4062 39.6875C34.6875 40.8125 35.0625 41.7031 35.5312 42.3594C36.0312 43.0156 36.6094 43.4844 37.2656 43.7656C37.9219 44.0156 38.6562 44.1094 39.4688 44.0469C40.25 43.9531 40.9062 43.5938 41.4375 42.9688C42 42.3125 42.4531 41.4688 42.7969 40.4375C43.1719 39.375 43.4531 38.1719 43.6406 36.8281C43.8594 35.4844 44 34.0625 44.0625 32.5625C44.125 31.0625 44.125 29.7812 44.0625 28.7188C44.0312 27.6562 43.9219 26.7656 43.7344 26.0469C43.5469 25.3281 43.2656 24.75 42.8906 24.3125C42.5156 23.8438 42.0156 23.4844 41.3906 23.2344L41.4844 22.4844C42.0469 22.4844 42.7188 22.4844 43.5 22.4844C44.2812 22.4844 45.0625 22.4688 45.8438 22.4375C46.625 22.375 47.3438 22.2969 48 22.2031C48.6875 22.1094 49.2031 21.9844 49.5469 21.8281C49.0156 22.8594 48.5312 24.1719 48.0938 25.7656C47.6875 27.3281 47.3438 28.9844 47.0625 30.7344C46.7812 32.4531 46.5938 34.1875 46.5 35.9375C46.4062 37.6562 46.4375 39.2188 46.5938 40.625C46.75 42 47.0156 43.125 47.3906 44C47.7969 44.8438 48.3594 45.2656 49.0781 45.2656Z" fill="white"/>
<path d="M64.299 45.4531C65.0177 45.4531 65.6896 45.2031 66.3146 44.7031C66.9396 44.2031 67.3771 43.3594 67.6271 42.1719L68.6115 42.5469C68.5177 43.2969 68.2208 44.0625 67.7208 44.8438C67.2208 45.5938 66.5802 46.2344 65.799 46.7656C65.0177 47.2969 64.1271 47.6406 63.1271 47.7969C62.1583 47.9531 61.1583 47.7969 60.1271 47.3281C59.0021 46.7969 58.1896 46.1094 57.6896 45.2656C57.1896 44.4219 56.8771 43.4531 56.7521 42.3594C56.6271 41.2344 56.6115 40.0312 56.7052 38.75C56.799 37.4375 56.8458 36.0781 56.8458 34.6719C56.8458 33.8594 56.8302 32.9062 56.799 31.8125C56.799 30.6875 56.7677 29.5 56.7052 28.25C56.674 27 56.6115 25.7188 56.5177 24.4062C56.424 23.0625 56.3302 21.75 56.2365 20.4688C55.174 20.5938 54.1583 20.75 53.1896 20.9375C52.2521 21.0938 51.4552 21.2969 50.799 21.5469C50.7677 21.2656 50.7677 21.0469 50.799 20.8906C50.799 20.7344 50.8146 20.5938 50.8458 20.4688C50.8458 20.3125 50.8458 20.1562 50.8458 20C50.8458 19.8125 50.8146 19.5625 50.7521 19.25C51.5021 19.1875 52.3302 19.125 53.2365 19.0625C54.174 19 55.1271 18.9375 56.0958 18.875C56.0646 18.4375 56.0333 18.0156 56.0021 17.6094C55.9708 17.1719 55.924 16.75 55.8615 16.3438C55.7052 14.875 55.4083 13.7031 54.9708 12.8281C54.5646 11.9531 54.1115 11.2812 53.6115 10.8125C53.1115 10.3438 52.6427 10.0313 52.2052 9.875C51.7677 9.6875 51.4396 9.5625 51.2208 9.5L51.3615 8.60938C51.9552 8.85938 52.6896 9.03125 53.5646 9.125C54.4396 9.1875 55.3458 9.1875 56.2833 9.125C57.2521 9.03125 58.1896 8.875 59.0958 8.65625C60.0333 8.4375 60.8458 8.15625 61.5333 7.8125C61.2208 8.6875 60.9396 10.0781 60.6896 11.9844C60.4708 13.8906 60.2833 16.1094 60.1271 18.6406C61.7521 18.5469 62.924 18.4219 63.6427 18.2656C63.4865 18.4531 63.4083 18.7656 63.4083 19.2031C63.4083 19.6094 63.4552 19.9844 63.549 20.3281C63.0177 20.2656 62.4552 20.2344 61.8615 20.2344C61.2677 20.2031 60.6583 20.1875 60.0333 20.1875C59.9396 22 59.8771 23.8906 59.8458 25.8594C59.8146 27.8281 59.8302 29.7812 59.8927 31.7188C59.9865 33.625 60.1115 35.5 60.2677 37.3438C60.4552 39.1562 60.6896 40.8281 60.9708 42.3594C61.2208 43.4531 61.6583 44.2344 62.2833 44.7031C62.9083 45.1719 63.5802 45.4219 64.299 45.4531ZM68.1896 34.2969C68.2833 32.4531 68.674 30.7344 69.3615 29.1406C70.0802 27.5469 71.0021 26.1875 72.1271 25.0625C73.2521 23.9062 74.5177 23.0312 75.924 22.4375C77.3615 21.8438 78.8458 21.6406 80.3771 21.8281C81.9083 22.0156 83.0802 22.4844 83.8927 23.2344C84.7365 23.9844 85.3302 24.8281 85.674 25.7656C86.0177 26.6719 86.2052 27.5781 86.2365 28.4844C86.2677 29.3906 86.2677 30.0938 86.2365 30.5938C86.2052 31.0625 86.1427 31.5781 86.049 32.1406C85.9865 32.7031 85.9083 33.2656 85.8146 33.8281C85.7521 34.3594 85.7208 34.875 85.7208 35.375C85.7208 35.8438 85.7677 36.2344 85.8615 36.5469C85.0802 36.2969 84.174 36.0312 83.1427 35.75C82.1115 35.4375 80.9865 35.2031 79.7677 35.0469C78.5802 34.8906 77.3302 34.8438 76.0177 34.9062C74.7365 34.9375 73.4552 35.1562 72.174 35.5625C72.1427 36.75 72.2208 37.9375 72.4083 39.125C72.6271 40.2812 72.9708 41.3906 73.4396 42.4531C73.8458 43.3594 74.3146 44.1562 74.8458 44.8438C75.3771 45.5312 75.9396 46.0625 76.5333 46.4375C77.1583 46.7812 77.7833 46.9688 78.4083 47C79.0646 47.0312 79.7208 46.8438 80.3771 46.4375C80.9083 46.0625 81.3146 45.6094 81.5958 45.0781C81.8458 44.6406 81.9396 44.1094 81.8771 43.4844C81.8458 42.8594 81.5177 42.1406 80.8927 41.3281L86.7521 41.0469C86.5333 41.6719 86.2052 42.4531 85.7677 43.3906C85.3615 44.3281 84.799 45.2344 84.0802 46.1094C83.3615 46.9844 82.4708 47.7188 81.4083 48.3125C80.3458 48.9062 79.0646 49.1719 77.5646 49.1094C76.0646 49.0156 74.7052 48.5312 73.4865 47.6562C72.299 46.8125 71.299 45.7031 70.4865 44.3281C69.674 42.9531 69.0646 41.4062 68.6583 39.6875C68.2521 37.9375 68.0958 36.1406 68.1896 34.2969ZM79.8146 23.0469C78.9396 22.9531 78.0802 23.1719 77.2365 23.7031C76.424 24.2344 75.674 25 74.9865 26C74.3302 26.9688 73.7677 28.125 73.299 29.4688C72.8302 30.8125 72.5021 32.2188 72.3146 33.6875C74.0958 33.4688 75.7521 33.3594 77.2833 33.3594C78.8146 33.3281 80.2365 33.4219 81.549 33.6406C81.8927 32.9219 82.2052 32 82.4865 30.875C82.7677 29.7188 82.8927 28.5938 82.8615 27.5C82.8302 26.375 82.5802 25.3906 82.1115 24.5469C81.674 23.7031 80.9083 23.2031 79.8146 23.0469Z" fill="white"/>
<path fill-rule="evenodd" clip-rule="evenodd" d="M115.156 11.0502C115.153 11.0459 115.149 11.0409 115.146 11.0361C115.143 11.0326 115.141 11.0293 115.139 11.0264C115.144 11.0333 115.151 11.0428 115.156 11.0502ZM114.086 9.63398C114.085 9.63232 114.083 9.6307 114.082 9.62916L114.079 9.62613C114.081 9.62848 114.084 9.63118 114.086 9.63398ZM95.5573 26.4401C95.5559 26.4424 95.5543 26.4448 95.5529 26.4471C95.5506 26.4508 95.5484 26.4543 95.5463 26.4574C95.5497 26.4523 95.5535 26.4461 95.5573 26.4401Z" fill="white"/>
<path fill-rule="evenodd" clip-rule="evenodd" d="M96.5107 42.3137L96.6281 42.4221C96.7037 42.7021 97.8295 43.5366 97.9964 43.6596L98.9189 44.269C98.9266 44.2738 98.9375 44.2818 98.9451 44.2867L99.8818 44.7606C100.501 45.1001 101.557 45.4971 102.23 45.7192C103.087 46.0026 103.706 46.12 104.415 46.3441C104.553 46.3879 104.75 46.3712 104.908 46.4131L105.805 46.6028C105.979 46.6403 106.157 46.6292 106.351 46.6546C106.554 46.6808 106.574 46.7394 106.771 46.7606C107.138 46.8 107.465 46.7766 107.825 46.8408C108.07 46.8847 110.224 47.0452 110.541 46.989C110.748 46.9524 110.679 46.9056 110.996 46.9045L114.359 46.8829C114.747 46.8707 115.012 46.7796 115.368 46.7625C115.743 46.7445 116.094 46.7716 116.399 46.6762L119.284 46.1737C119.821 45.98 119.521 46.1671 119.92 45.9963C120.235 45.8612 122.027 45.3381 122.44 45.1074L122.767 44.9529C123.227 44.797 124.38 44.1425 124.72 43.908C125.319 43.4947 125.405 43.4757 125.981 42.9629L126.972 42.0206C127.086 41.8897 127.01 41.9614 127.079 41.8519C127.201 41.661 127.17 41.8488 127.375 41.573L127.832 40.9553C128.204 40.4818 128.197 40.4045 128.48 39.9521C129.026 39.0794 129.023 38.6651 129.285 38.0446C129.42 37.7269 129.609 37.0254 129.626 36.7541C129.666 36.1094 129.695 36.318 129.755 35.8167C129.961 34.0942 129.696 32.6735 129.483 31.2319L129.321 30.5997C129.249 30.4071 129.297 30.6014 129.231 30.4365C129.17 30.2834 129.249 30.3797 129.102 30.036L129.012 29.6816C128.87 29.3155 128.7 28.5249 128.622 28.3281C128.448 27.8861 128.16 27.2684 127.936 26.844L126.722 24.747C126.559 24.5083 126.412 24.3469 126.27 24.1331C125.777 23.3897 125.284 22.9261 124.771 22.3133C124.54 22.0372 124.21 21.7697 123.963 21.5047L123.04 20.7658C122.955 20.6986 123.007 20.6992 122.885 20.6164L121.881 19.9437C121.208 19.5176 120.866 19.3648 120.194 19.0076C120.052 18.9317 119.941 18.8607 119.785 18.7873L119.219 18.4464L119.192 18.4277C119.185 18.4221 119.174 18.4138 119.166 18.4086C119.159 18.4034 119.149 18.3951 119.141 18.3903C119.076 18.3459 119.012 18.3196 118.94 18.2836L116.752 16.8514C116.667 16.7831 116.675 16.7807 116.581 16.7097C116.277 16.4779 115.755 16.1744 115.503 15.8973C115.482 15.8748 115.456 15.8457 115.437 15.8273C115.339 15.7276 115.215 15.5949 115.109 15.5193C114.623 15.1733 114.83 15.1036 114.505 14.832L114.17 14.4894C114.052 14.3643 113.965 14.2801 113.866 14.1658L112.187 11.9071C111.906 11.5215 111.877 11.2956 111.505 11.3091L110.126 13.2221C109.93 13.5603 109.608 13.8551 109.381 14.1845C109.376 14.1921 109.369 14.2036 109.364 14.2108C109.359 14.2181 109.352 14.2292 109.346 14.2361L107.988 15.6084C107.905 15.686 107.864 15.7175 107.778 15.8065C107.41 16.1842 107.296 16.2448 106.883 16.568C106.743 16.6775 106.557 16.8393 106.391 16.9331L105.403 17.5744C105.245 17.6891 105.092 17.7978 104.933 17.9097C104.767 18.0258 104.589 18.1128 104.397 18.234C104.049 18.4526 103.656 18.6061 103.324 18.8351L102.532 19.299C102.449 19.3488 102.366 19.3876 102.252 19.4237C101.963 19.5158 101.434 19.839 101.208 20.0178L100.71 20.4179C100.458 20.6275 100.377 20.6196 99.8124 21.0959L99.6062 21.2968C98.8895 21.9249 98.135 22.5956 97.6044 23.3872L96.5805 24.7706C96.3969 24.9992 96.2787 25.2885 96.1627 25.418L96.0609 25.5476C95.7591 25.9737 95.6972 26.2651 95.6252 26.3576C95.5765 26.4203 95.6351 26.3295 95.5645 26.4293L95.5622 26.4326L95.5573 26.4401L95.5529 26.4471L95.5463 26.4574C95.5425 26.463 95.5386 26.47 95.5349 26.4766L95.5332 26.4795L95.5293 26.4865L95.4653 26.6029L94.7333 28.1403C94.6966 28.2287 94.714 28.2048 94.6896 28.2851L94.4518 28.828C94.2406 29.1859 94.1842 29.6733 94.0282 30.0489C93.9093 30.3343 93.7246 31.0823 93.6981 31.3615L93.4828 32.7351C93.3835 33.1734 93.3435 35.438 93.4464 35.9012C93.5035 36.1579 93.5046 36.3595 93.5515 36.6377L94.3009 39.1182C94.3798 39.2949 94.4846 39.4473 94.5682 39.6444C94.9369 40.5129 95.1013 40.4908 95.2569 40.7856C95.4474 41.1476 96.1012 41.9274 96.3038 42.0813L96.4561 42.2288C96.5354 42.3442 96.4241 42.2015 96.5107 42.3137Z" fill="white"/>
<path fill-rule="evenodd" clip-rule="evenodd" d="M92.4246 41.6974C92.3279 41.5758 92.3116 41.4798 92.2312 41.3603L90.9993 38.7763C91.0251 38.4468 90.6764 37.1144 90.5913 36.4676L90.44 33.9033C90.4487 33.2683 90.5516 32.8332 90.5753 32.2387C90.6073 31.4249 91.0909 29.4111 91.4109 28.5665C91.4825 28.3783 91.5094 28.4092 91.5501 28.2761L91.9203 27.2157L93.669 23.9246C93.7031 23.8688 93.7304 23.8044 93.7602 23.7541L94.0751 23.2591C94.2338 23.0125 94.3798 22.7883 94.5218 22.5766C95.0554 21.7809 95.533 21.161 96.4172 20.1858L96.6521 19.9714C96.6583 19.9648 96.6678 19.9554 96.6747 19.9492C96.6812 19.9426 96.691 19.9336 96.6979 19.9274L98.4673 18.4142C98.6328 18.2964 98.7513 18.2111 98.9142 18.0947C99.4996 17.6759 100.096 17.327 100.72 16.9671L102.024 16.2801C102.128 16.2309 102.165 16.2126 102.262 16.1568C102.431 16.0594 102.572 15.9787 102.75 15.8772L103.749 15.2512C103.76 15.2432 103.788 15.2186 103.799 15.2103C104.089 14.9883 104.526 14.7405 105.005 14.3442C105.091 14.2729 105.139 14.2341 105.228 14.162L106.854 12.5996C106.875 12.5774 106.914 12.5327 106.938 12.5043L107.085 12.3377C107.091 12.3307 107.101 12.3214 107.107 12.3145L107.805 11.4023C107.811 11.395 107.819 11.385 107.825 11.3774L108.022 11.0829C108.027 11.0763 108.034 11.0673 108.04 11.0602L108.042 11.0579L108.539 10.3484C108.584 10.2857 108.586 10.2774 108.632 10.2182L109.411 9.33789C109.481 9.27761 109.544 9.24158 109.573 9.15324C109.764 9.13107 109.769 9.08118 109.944 8.97967C109.953 8.97447 109.965 8.96824 109.974 8.96305L110.245 8.79156C110.239 8.47215 110.163 8.03772 110.078 7.75052C110.03 7.59082 110.042 7.38815 110.024 7.21147C109.998 6.97139 109.944 6.98143 109.902 6.70636C109.839 6.28995 109.847 6.4843 109.778 6.27401L109.403 5.01334C109.266 4.70466 109.332 4.67763 109.235 4.43063C109.176 4.27889 109.129 4.1126 109.076 3.96814L108.63 2.65064C108.572 2.19162 109.125 1.37195 109.976 1.84068C110.464 2.10951 110.736 2.84499 110.886 3.33624C110.942 3.51673 111.002 3.56662 111.069 3.76478L112.125 7.49277C112.408 8.7531 112.074 8.52931 112.849 8.75311C113.048 8.81062 112.711 8.78983 113.069 8.81823L113.431 9.0597C113.448 9.07114 113.516 9.12102 113.536 9.13522L113.969 9.5111C114.027 9.56965 114.031 9.57762 114.079 9.62613L114.082 9.62916L114.086 9.63398L114.096 9.64388L114.101 9.64864L114.123 9.67116L114.363 9.96806C114.369 9.97568 114.377 9.98607 114.383 9.99369L115.139 11.0264L115.146 11.0361L115.156 11.0502L115.158 11.0524L116.735 13.0111C116.771 13.0493 116.771 13.051 116.799 13.0822L116.82 13.1061C116.826 13.113 116.835 13.123 116.841 13.13L118.287 14.4249C118.342 14.4693 118.324 14.4561 118.387 14.5053C118.549 14.6332 118.684 14.7326 118.851 14.8521L119.575 15.3458L119.604 15.3621L119.851 15.5207L119.879 15.5381L119.935 15.5723C120.002 15.6139 119.985 15.6028 120.046 15.642L121.046 16.223C121.106 16.2538 121.13 16.2611 121.17 16.2801L122.213 16.8202C122.295 16.8604 122.243 16.8351 122.329 16.8853L123.228 17.387C123.24 17.3942 123.272 17.4154 123.283 17.4223L126.236 19.6925C126.288 19.7393 126.311 19.7559 126.357 19.7961L127.88 21.4132L127.901 21.4372L127.922 21.4607L127.944 21.4839L130.469 25.2573C130.53 25.3695 130.535 25.4101 130.602 25.5247C130.821 25.8927 130.966 26.3229 131.157 26.7057C131.169 26.7297 131.196 26.7785 131.216 26.8249L131.28 26.9829C131.327 27.0813 131.284 26.9611 131.341 27.1L131.51 27.5521C131.514 27.5635 131.516 27.5756 131.52 27.5871L132.051 29.0972C132.091 29.2475 132.062 29.2766 132.118 29.4273L132.756 33.0265V36.0505C132.755 36.0647 132.753 36.0775 132.751 36.0893C132.724 36.2618 132.685 36.2026 132.666 36.4025C132.586 37.2298 132.493 37.3413 132.369 38.0481C132.303 38.4246 132.149 38.7593 132.06 39.112L131.637 40.1991L131.635 40.2026C131.632 40.2121 131.628 40.2224 131.625 40.2313L130.108 42.8185L128.636 44.4831C128.609 44.5098 128.54 44.5756 128.521 44.5933L128.21 44.8666C128.178 44.8936 128.17 44.8992 128.137 44.929L127.355 45.5858C126.897 45.926 126.429 46.2676 125.928 46.5489L125.899 46.5651C125.89 46.5701 125.879 46.577 125.871 46.5819L125.296 46.9111C125.287 46.916 125.276 46.9222 125.267 46.9272L124.675 47.2395C124.566 47.3031 124.651 47.2603 124.528 47.3191L124.125 47.5042C124.034 47.5427 123.952 47.5699 123.867 47.6089C123.762 47.6567 123.808 47.6435 123.717 47.6852C123.672 47.7057 123.63 47.7185 123.586 47.7356C123.418 47.8002 123.459 47.8025 123.304 47.8619C123.255 47.8808 123.248 47.8786 123.202 47.8961C123.192 47.9001 123.179 47.9045 123.169 47.9087C123.159 47.9128 123.147 47.9181 123.138 47.9224L120.309 48.8214C120.12 48.8576 120.107 48.894 119.999 48.9199L118.685 49.2019C118.559 49.2187 118.458 49.224 118.319 49.2481C118.097 49.2865 117.928 49.3645 117.668 49.3725C117.416 49.3802 117.5 49.373 117.312 49.4277C116.936 49.5366 116.62 49.492 116.261 49.5662C115.817 49.6583 115.236 49.6456 114.798 49.7063C114.309 49.7741 113.801 49.7677 113.253 49.7677C112.671 49.7677 112.234 49.8121 111.689 49.8115C111.121 49.8109 110.693 49.7677 110.125 49.7677C109.556 49.7677 109.069 49.7531 108.562 49.7224C108.293 49.7061 108.117 49.6369 107.827 49.6345C107.504 49.6318 107.366 49.6279 107.091 49.5909L106.353 49.5046C106.084 49.4942 105.906 49.4011 105.703 49.3784C105.564 49.3629 105.458 49.3784 105.312 49.3569C105.17 49.3361 105.091 49.3026 104.986 49.2735C104.767 49.2134 104.535 49.2288 104.316 49.1667L102.686 48.791L100.031 47.9021C100.021 47.8981 100.008 47.8943 99.9974 47.8905C99.1237 47.5868 98.2964 47.1353 97.4957 46.6802L97.2361 46.533L94.9485 44.7606C94.894 44.6331 93.9606 43.7261 93.8755 43.6451C93.5373 43.3222 93.1624 42.7914 92.8919 42.3844L92.6516 42.0445C92.5443 41.8741 92.5537 41.8602 92.4246 41.6974ZM96.5107 42.3137L96.6281 42.4221C96.7037 42.7021 97.8295 43.5366 97.9964 43.6596L98.9189 44.269C98.9266 44.2738 98.9375 44.2818 98.9451 44.2867L99.8818 44.7606C100.501 45.1001 101.557 45.4971 102.23 45.7192C103.087 46.0026 103.706 46.12 104.415 46.3441C104.553 46.3879 104.75 46.3712 104.908 46.4131L105.805 46.6028C105.979 46.6403 106.157 46.6292 106.351 46.6546C106.554 46.6808 106.574 46.7394 106.771 46.7606C107.138 46.8 107.465 46.7766 107.825 46.8408C108.07 46.8847 110.224 47.0452 110.541 46.989C110.748 46.9524 110.679 46.9056 110.996 46.9045L114.359 46.8829C114.747 46.8707 115.012 46.7796 115.368 46.7625C115.743 46.7445 116.094 46.7716 116.399 46.6762L119.284 46.1737C119.821 45.98 119.521 46.1671 119.92 45.9963C120.235 45.8612 122.027 45.3381 122.44 45.1074L122.767 44.9529C123.227 44.797 124.38 44.1425 124.72 43.908C125.319 43.4947 125.405 43.4757 125.981 42.9629L126.972 42.0206C127.086 41.8897 127.01 41.9614 127.079 41.8519C127.201 41.661 127.17 41.8488 127.375 41.573L127.832 40.9553C128.204 40.4818 128.197 40.4045 128.48 39.9521C129.026 39.0794 129.023 38.6651 129.285 38.0446C129.42 37.7269 129.609 37.0254 129.626 36.7541C129.666 36.1094 129.695 36.318 129.755 35.8167C129.961 34.0942 129.696 32.6735 129.483 31.2319L129.321 30.5997C129.249 30.4071 129.297 30.6014 129.231 30.4365C129.17 30.2834 129.249 30.3797 129.102 30.036L129.012 29.6816C128.87 29.3155 128.7 28.5249 128.622 28.3281C128.448 27.8861 128.16 27.2684 127.936 26.844L126.722 24.747C126.559 24.5083 126.412 24.3469 126.27 24.1331C125.777 23.3897 125.284 22.9261 124.771 22.3133C124.54 22.0372 124.21 21.7697 123.963 21.5047L123.04 20.7658C122.955 20.6986 123.007 20.6992 122.885 20.6164L121.881 19.9437C121.208 19.5176 120.866 19.3648 120.194 19.0076C120.052 18.9317 119.941 18.8607 119.785 18.7873L119.219 18.4464L119.192 18.4277C119.185 18.4221 119.174 18.4138 119.166 18.4086C119.159 18.4034 119.149 18.3951 119.141 18.3903C119.076 18.3459 119.012 18.3196 118.94 18.2836L116.752 16.8514C116.667 16.7831 116.675 16.7807 116.581 16.7097C116.277 16.4779 115.755 16.1744 115.503 15.8973C115.482 15.8748 115.456 15.8457 115.437 15.8273C115.339 15.7276 115.215 15.5949 115.109 15.5193C114.623 15.1733 114.83 15.1036 114.505 14.832L114.17 14.4894C114.052 14.3643 113.965 14.2801 113.866 14.1658L112.187 11.9071C111.906 11.5215 111.877 11.2956 111.505 11.3091L110.126 13.2221C109.93 13.5603 109.608 13.8551 109.381 14.1845C109.376 14.1921 109.369 14.2036 109.364 14.2108C109.359 14.2181 109.352 14.2292 109.346 14.2361L107.988 15.6084C107.905 15.686 107.864 15.7175 107.778 15.8065C107.41 16.1842 107.296 16.2448 106.883 16.568C106.743 16.6775 106.557 16.8393 106.391 16.9331L105.403 17.5744C105.245 17.6891 105.092 17.7978 104.933 17.9097C104.767 18.0258 104.589 18.1128 104.397 18.234C104.049 18.4526 103.656 18.6061 103.324 18.8351L102.532 19.299C102.449 19.3488 102.366 19.3876 102.252 19.4237C101.963 19.5158 101.434 19.839 101.208 20.0178L100.71 20.4179C100.458 20.6275 100.377 20.6196 99.8124 21.0959L99.6062 21.2968C98.8895 21.9249 98.135 22.5956 97.6044 23.3872L96.5805 24.7706C96.3969 24.9992 96.2787 25.2885 96.1627 25.418L96.0609 25.5476C95.7591 25.9737 95.6972 26.2651 95.6252 26.3576C95.5765 26.4203 95.6351 26.3295 95.5645 26.4293L95.5622 26.4326L95.5573 26.4401L95.5529 26.4471L95.5463 26.4574C95.5425 26.463 95.5386 26.47 95.5349 26.4766L95.5332 26.4795L95.5293 26.4865L95.4653 26.6029L94.7333 28.1403C94.6966 28.2287 94.714 28.2048 94.6896 28.2851L94.4518 28.828C94.2406 29.1859 94.1842 29.6733 94.0282 30.0489C93.9093 30.3343 93.7246 31.0823 93.6981 31.3615L93.4828 32.7351C93.3835 33.1734 93.3435 35.438 93.4464 35.9012C93.5035 36.1579 93.5046 36.3595 93.5515 36.6377L94.3009 39.1182C94.3798 39.2949 94.4846 39.4473 94.5682 39.6444C94.9369 40.5129 95.1013 40.4908 95.2569 40.7856C95.4474 41.1476 96.1012 41.9274 96.3038 42.0813L96.4561 42.2288C96.5354 42.3442 96.4241 42.2015 96.5107 42.3137Z" fill="white"/>
<path fill-rule="evenodd" clip-rule="evenodd" d="M96.6281 42.4222C96.7037 42.7021 97.8295 43.5367 97.9964 43.6596L98.9189 44.269C98.9266 44.2739 98.9375 44.2818 98.9451 44.2867L99.8818 44.7606C100.501 45.1001 101.557 45.4971 102.23 45.7192C103.087 46.0026 103.706 46.12 104.415 46.3442C104.553 46.3879 104.75 46.3712 104.908 46.4131L105.805 46.6028C105.979 46.6403 106.157 46.6293 106.351 46.6546C106.554 46.6809 106.574 46.7395 106.771 46.7606C107.138 46.8 107.465 46.7766 107.825 46.8409C108.07 46.8847 110.224 47.0452 110.541 46.989C110.748 46.9524 110.679 46.9056 110.996 46.9046L114.359 46.8829C114.747 46.8707 115.012 46.7796 115.368 46.7626C115.743 46.7445 116.094 46.7716 116.399 46.6762L119.284 46.1737C119.821 45.9801 119.521 46.1671 119.92 45.9963C120.235 45.8612 122.027 45.3381 122.44 45.1074L122.767 44.9529C123.227 44.797 124.38 44.1426 124.72 43.908C125.319 43.4947 125.405 43.4757 125.981 42.963L126.972 42.0206C127.086 41.8897 127.01 41.9614 127.079 41.8519C127.201 41.6611 127.17 41.8488 127.375 41.5731L127.832 40.9554C128.204 40.4818 128.197 40.4045 128.48 39.9521C129.026 39.0794 129.023 38.6651 129.285 38.0446C129.42 37.7269 129.609 37.0254 129.626 36.7541C129.666 36.1094 129.695 36.318 129.755 35.8167C129.961 34.0942 129.696 32.6735 129.483 31.232L129.321 30.5997C129.249 30.4071 129.297 30.6014 129.231 30.4365C129.17 30.2834 129.249 30.3797 129.102 30.0361L129.012 29.6817C128.87 29.3155 128.7 28.5249 128.622 28.3281C128.448 27.8861 128.16 27.2684 127.936 26.844L126.722 24.747C126.559 24.5083 126.412 24.3469 126.27 24.1331C125.777 23.3897 125.284 22.9262 124.771 22.3133C124.54 22.0372 124.21 21.7698 123.963 21.5047L123.04 20.7658C123.09 20.9494 123.656 21.3741 123.908 21.6048C124.217 21.8886 124.464 22.1449 124.758 22.4585C125.239 22.9708 125.857 23.6758 126.272 24.3074C126.403 24.5066 126.45 24.5932 126.599 24.7761C127.039 25.3145 127.763 26.7633 128.115 27.4572L128.436 28.1566C128.501 28.2924 128.59 28.5401 128.588 28.7064C127.625 28.6929 127.184 28.8848 126.59 29.5625C126.345 29.841 126.283 29.9796 126.171 30.2931C126.082 30.5422 126.061 31.0459 126.098 31.3154C126.125 31.516 126.205 31.568 126.265 32.2841C126.297 32.6648 126.332 32.5467 126.353 32.7625C126.415 33.3892 126.393 34.3585 126.366 35.0001C126.347 35.4463 126.18 36.4112 125.999 36.8789C125.908 37.1148 126.016 37.1054 125.719 37.711C125.545 38.0654 125.196 38.7531 124.952 39.042C124.946 39.0489 124.936 39.0583 124.931 39.0652L124.892 39.1116C124.887 39.1189 124.879 39.1293 124.874 39.1369C124.624 39.5395 124.963 39.1279 124.403 39.8378C123.853 40.5341 122.66 41.4632 121.879 41.9039C121.747 41.9784 121.657 42.0248 121.534 42.1003C120.882 42.5015 118.564 43.5065 117.853 43.6364C117.523 43.6967 117.214 43.8318 116.923 43.8942L114.117 44.5285C113.762 44.6227 113.443 44.587 113.024 44.6376C112.357 44.7177 111.851 44.8406 111.359 45.2896C111.101 45.5248 110.978 45.679 110.803 46.0279C110.716 46.2018 110.747 46.1949 110.705 46.3742C110.685 46.4578 110.663 46.5227 110.65 46.5838L110.484 46.8746C109.956 46.9857 107.066 46.6687 106.305 46.5774L105.328 46.4027C105.068 46.321 103.743 46.0875 103.474 45.9811L103.128 45.8789C103.118 45.8751 103.107 45.8689 103.098 45.8647C103.089 45.8609 103.078 45.854 103.069 45.8502C103.059 45.846 103.049 45.8394 103.039 45.8359C103.038 45.8353 102.054 45.5789 101.703 45.4334C101.303 45.2681 100.869 45.1296 100.507 44.9484L99.3327 44.3598C99.0687 44.2177 98.8691 44.0944 98.6189 43.9357C98.4935 43.8564 98.3855 43.7854 98.2604 43.7099C97.8062 43.4365 96.8136 42.5171 96.6281 42.4222Z" fill="#633F61"/>
<path fill-rule="evenodd" clip-rule="evenodd" d="M97.3183 24.9885C97.2932 25.1267 97.043 25.5435 96.9372 25.6813C96.7369 25.9436 96.9649 25.5268 96.8769 25.7517C96.8678 26.2239 96.8547 26.4057 97.0209 26.7716C97.1281 27.0082 97.8179 27.4059 98.2543 27.339C98.843 27.2486 99.0539 26.9458 99.3149 26.5634C99.4069 26.6271 99.3684 26.4951 99.3811 26.6385C99.3993 26.8409 99.4106 26.6482 99.3455 26.7054L100.003 25.6612C100.108 25.5289 100.147 25.5407 100.268 25.3436L101.368 24.0697C102.408 23.0256 102.44 23.1354 103.272 22.4661L104.013 21.9897C104.162 21.9114 104.257 21.8501 104.396 21.7805L104.766 21.5667C104.904 21.4805 105.018 21.4503 105.158 21.3661L105.9 20.9379C106.387 20.605 107.155 20.2426 107.722 19.7795C107.822 19.6984 107.918 19.5716 108.02 19.495C108.217 19.3471 108.198 19.4098 108.351 19.1985C108.893 18.4464 108.573 17.6901 107.836 17.2865C107.5 17.1019 106.738 17.2034 106.411 17.4802C106.299 17.5758 106.22 17.6762 106.109 17.7615L104.899 18.4935C103.891 19.0575 102.489 19.758 101.62 20.4533C101.495 20.553 101.384 20.5939 101.265 20.6864L98.4128 23.4447C98.4015 23.4569 98.3564 23.5009 98.3466 23.5113C98.1939 23.673 98.235 23.7271 98.0474 23.9748L97.5474 24.6375C97.3834 24.9659 97.407 24.8385 97.3183 24.9885Z" fill="#633F61"/>
<path fill-rule="evenodd" clip-rule="evenodd" d="M109.573 9.15326C109.764 9.13109 109.769 9.0812 109.944 8.97969C109.953 8.97449 109.965 8.96826 109.974 8.96306L110.245 8.79158C110.239 8.47217 110.163 8.03773 110.078 7.75054C110.03 7.59083 110.042 7.38817 110.024 7.21149C109.998 6.97141 109.944 6.98145 109.902 6.70638C109.839 6.28997 109.847 6.48431 109.778 6.27403L109.403 5.01335C109.266 4.70468 109.332 4.67765 109.235 4.43064C109.176 4.2789 109.129 4.11262 109.076 3.96815L108.63 2.65066C108.572 2.19163 109.125 1.37196 109.976 1.84069C110.464 2.10953 110.736 2.84501 110.886 3.33625C110.942 3.51674 111.002 3.56664 111.069 3.7648L112.125 7.49279C112.408 8.75312 112.074 8.52933 112.849 8.75313C113.048 8.81063 112.711 8.78984 113.069 8.81825C113.041 8.42158 112.893 7.754 112.798 7.34001L112.613 6.46492C112.577 6.11675 112.505 6.2141 112.471 5.89884C112.428 5.50945 112.405 5.83752 112.326 5.33554L112.172 4.78089C112.113 4.59312 112.109 4.73585 112.065 4.53284C112.02 4.33156 112.084 4.44173 111.992 4.25188L111.406 2.70574C111.252 2.3496 111.317 2.3794 111.033 1.9661C111.028 1.95848 111.02 1.94739 111.014 1.93977C110.681 1.45511 110.158 1.04528 109.518 1.00163C109.209 0.980841 108.792 1.16341 108.512 1.38271L108.041 1.98585C107.941 2.24672 107.975 2.68427 108.003 2.92434C108.034 3.18521 108.221 3.56837 108.269 3.72288C108.316 3.87427 108.278 3.84205 108.346 4.00003L108.856 5.61719C108.93 5.96709 108.946 5.82643 109.007 6.17495C109.068 6.51619 109.122 6.41607 109.155 6.73514C109.177 6.94681 109.148 6.855 109.217 7.02649C109.365 7.38955 109.245 7.33447 109.341 7.60989C109.524 8.1337 109.381 8.0845 109.523 8.48879C109.596 8.69943 109.573 8.88546 109.573 9.15326Z" fill="#422B41"/>
<path fill-rule="evenodd" clip-rule="evenodd" d="M109.573 9.15326C109.764 9.13109 109.769 9.0812 109.944 8.97969C109.953 8.97449 109.965 8.96826 109.974 8.96306L110.245 8.79158C110.239 8.47217 110.163 8.03773 110.078 7.75054C110.03 7.59083 110.042 7.38817 110.024 7.21149C109.998 6.97141 109.944 6.98145 109.902 6.70638C109.839 6.28997 109.847 6.48431 109.778 6.27403L109.403 5.01335C109.266 4.70468 109.332 4.67765 109.235 4.43064C109.176 4.2789 109.129 4.11262 109.076 3.96815L108.63 2.65066C108.572 2.19163 109.125 1.37196 109.976 1.84069C110.464 2.10953 110.736 2.84501 110.886 3.33625C110.942 3.51674 111.002 3.56664 111.069 3.7648L112.125 7.49279C112.408 8.75312 112.074 8.52933 112.849 8.75313C113.048 8.81063 112.711 8.78984 113.069 8.81825C113.041 8.42158 112.893 7.754 112.798 7.34001L112.613 6.46492C112.577 6.11675 112.505 6.2141 112.471 5.89884C112.428 5.50945 112.405 5.83752 112.326 5.33554L112.172 4.78089C112.113 4.59312 112.109 4.73585 112.065 4.53284C112.02 4.33156 112.084 4.44173 111.992 4.25188L111.406 2.70574C111.252 2.3496 111.317 2.3794 111.033 1.9661C111.028 1.95848 111.02 1.94739 111.014 1.93977C110.681 1.45511 110.158 1.04528 109.518 1.00163C109.209 0.980841 108.792 1.16341 108.512 1.38271L108.041 1.98585C107.941 2.24672 107.975 2.68427 108.003 2.92434C108.034 3.18521 108.221 3.56837 108.269 3.72288C108.316 3.87427 108.278 3.84205 108.346 4.00003L108.856 5.61719C108.93 5.96709 108.946 5.82643 109.007 6.17495C109.068 6.51619 109.122 6.41607 109.155 6.73514C109.177 6.94681 109.148 6.855 109.217 7.02649C109.365 7.38955 109.245 7.33447 109.341 7.60989C109.524 8.1337 109.381 8.0845 109.523 8.48879C109.596 8.69943 109.573 8.88546 109.573 9.15326Z" fill="white"/>
<path fill-rule="evenodd" clip-rule="evenodd" d="M99.3455 26.7054C99.4106 26.6482 99.3993 26.8409 99.3811 26.6385C99.3684 26.4951 99.407 26.6271 99.315 26.5634C99.0539 26.9458 98.843 27.2486 98.2543 27.339C97.8179 27.4059 97.1281 27.0082 97.0209 26.7716C96.8547 26.4057 96.8678 26.2239 96.8769 25.7517C96.9649 25.5268 96.7369 25.9436 96.9372 25.6813C97.043 25.5435 97.2932 25.1267 97.3183 24.9885C97.1983 25.0605 97.3005 24.9739 97.1925 25.0875C97.1594 25.1225 97.1416 25.1579 97.1172 25.1925C97.0852 25.2376 97.0805 25.2455 97.038 25.2958C96.9289 25.4257 97.0205 25.2826 96.9445 25.4153C96.2136 26.6929 97.6808 28.0593 98.9506 27.1603C99.1437 27.0234 99.2248 26.9084 99.3455 26.7054Z" fill="#B8A8B7"/>
</svg>
