<svg width="149" height="120" viewBox="0 0 149 120" fill="none" xmlns="http://www.w3.org/2000/svg">
<path d="M141.06 17.1963C120.328 -6.68896 36.2929 -3.323 14.0245 12.8573C-8.2439 29.0377 -0.732285 86.1963 14.0245 97.6963C28.7813 109.196 107.739 129.336 121.56 114.696C135.382 100.057 161.793 41.0816 141.06 17.1963Z" fill="#633F61"/>
<path d="M64.8417 65.8525C64.7479 63.79 64.1229 62.2119 62.9667 61.1182C61.8104 59.9932 60.3885 59.3213 58.701 59.1025L58.9354 57.8838C59.7479 58.2588 60.7792 58.5557 62.0292 58.7744C63.2792 58.9932 64.6542 59.165 66.1542 59.29C67.6854 59.3838 69.2792 59.4307 70.9354 59.4307C72.6229 59.4307 74.2792 59.3994 75.9042 59.3369C77.5604 59.2432 79.1385 59.1182 80.6385 58.9619C82.1698 58.8057 83.5448 58.6182 84.7635 58.3994C84.6385 59.2119 84.4979 60.1338 84.3417 61.165C84.2167 62.1963 84.1073 63.2275 84.0135 64.2588C83.9198 65.29 83.8729 66.29 83.8729 67.2588C83.8729 68.1963 83.951 69.0088 84.1073 69.6963L83.1698 69.8369C82.7323 68.1494 82.201 66.7119 81.576 65.5244C80.9823 64.3057 80.1698 63.3682 79.1385 62.7119C78.1073 62.0244 76.8104 61.6338 75.2479 61.54C73.6854 61.4463 71.7323 61.6494 69.3885 62.1494C69.2323 64.6494 69.1073 66.8682 69.0135 68.8057C68.9198 70.7432 68.8729 72.6338 68.8729 74.4775C70.3729 74.2588 71.5917 73.9775 72.5292 73.6338C73.4979 73.29 74.2792 72.8838 74.8729 72.415C75.4667 71.915 75.9198 71.3369 76.2323 70.6807C76.576 69.9932 76.8885 69.1807 77.1698 68.2432L78.3417 68.4775C78.0604 69.665 77.8729 70.7588 77.7792 71.7588C77.6854 72.7588 77.6229 73.7432 77.5917 74.7119C77.5917 75.6807 77.6229 76.665 77.6854 77.665C77.7479 78.6338 77.8104 79.665 77.8729 80.7588L76.8885 80.5713C76.826 79.2588 76.5292 78.2744 75.9979 77.6182C75.4667 76.9307 74.8104 76.4775 74.0292 76.2588C73.2479 76.0088 72.4042 75.9307 71.4979 76.0244C70.5917 76.1182 69.7167 76.2588 68.8729 76.4463C68.9042 77.9775 68.9667 79.5557 69.0604 81.1807C69.1542 82.7744 69.2948 84.5713 69.4823 86.5713C69.576 87.7588 69.7479 88.7432 69.9979 89.5244C70.2792 90.3057 70.6073 90.9463 70.9823 91.4463C71.3573 91.915 71.7635 92.2744 72.201 92.5244C72.6698 92.7432 73.1385 92.915 73.6073 93.04V94.0713C73.1698 94.0088 72.4354 93.9463 71.4042 93.8838C70.4042 93.8213 69.3104 93.8057 68.1229 93.8369C66.9354 93.8682 65.7323 93.9619 64.5135 94.1182C63.326 94.2744 62.3104 94.54 61.4667 94.915L61.1385 93.9307C61.9198 93.5869 62.5917 93.2275 63.1542 92.8525C63.7167 92.4463 64.1854 91.9775 64.5604 91.4463C64.9354 90.8838 65.201 90.2275 65.3573 89.4775C65.5448 88.6963 65.6385 87.7588 65.6385 86.665C65.6385 85.9463 65.6229 85.0244 65.5917 83.8994C65.5604 82.7744 65.5135 81.5557 65.451 80.2432C65.4198 78.9307 65.3729 77.5713 65.3104 76.165C65.2479 74.7588 65.1854 73.415 65.1229 72.1338C65.0604 70.8213 64.9979 69.6182 64.9354 68.5244C64.9042 67.4307 64.8729 66.54 64.8417 65.8525ZM83.7792 93.4619C84.4979 93.2119 85.0917 92.8838 85.5604 92.4775C86.0292 92.0713 86.3885 91.665 86.6385 91.2588C86.951 90.79 87.1542 90.3057 87.2479 89.8057C87.9354 86.6182 88.2792 83.5869 88.2792 80.7119C88.2792 77.8057 88.0604 75.3213 87.6229 73.2588C87.4979 72.6025 87.2635 71.9932 86.9198 71.4307C86.6385 70.9619 86.2479 70.5244 85.7479 70.1182C85.2479 69.6807 84.6073 69.3994 83.826 69.2744L83.7792 68.5244C84.4042 68.5869 84.9823 68.6338 85.5135 68.665C86.076 68.665 86.5604 68.665 86.9667 68.665H88.2792C88.6542 68.6963 89.0292 68.7119 89.4042 68.7119C89.7479 68.7432 90.0917 68.7588 90.4354 68.7588C90.8104 68.7588 91.1698 68.79 91.5135 68.8525C91.4198 69.9775 91.3417 71.1338 91.2792 72.3213C91.2167 73.4775 91.1698 74.5244 91.1385 75.4619C91.076 76.5557 91.0448 77.6182 91.0448 78.6494C90.9823 79.8057 90.9354 81.0713 90.9042 82.4463C90.8729 83.79 90.8885 85.0713 90.951 86.29C91.0135 87.5088 91.1229 88.5869 91.2792 89.5244C91.4354 90.4307 91.6854 91.0244 92.0292 91.3057C92.2167 91.4307 92.4667 91.5557 92.7792 91.6807C93.0292 91.8057 93.3573 91.9307 93.7635 92.0557C94.201 92.1807 94.7323 92.3057 95.3573 92.4307L95.4042 93.2275C94.7792 93.1963 94.1698 93.1963 93.576 93.2275C93.0135 93.2275 92.5135 93.2275 92.076 93.2275C91.5448 93.2588 91.0448 93.2744 90.576 93.2744C89.9198 93.3057 89.2167 93.3682 88.4667 93.4619C87.8417 93.5244 87.1385 93.6025 86.3573 93.6963C85.576 93.79 84.826 93.8994 84.1073 94.0244L83.7792 93.4619ZM88.6073 65.3838C87.6385 65.4463 86.8885 65.2275 86.3573 64.7275C85.826 64.1963 85.5292 63.6025 85.4667 62.9463C85.4042 62.29 85.576 61.6807 85.9823 61.1182C86.4198 60.5244 87.1073 60.165 88.0448 60.04C89.0135 59.915 89.7792 60.1182 90.3417 60.6494C90.9354 61.1807 91.2792 61.79 91.3729 62.4775C91.4667 63.1338 91.2948 63.7744 90.8573 64.3994C90.4198 64.9932 89.6698 65.3213 88.6073 65.3838ZM115.279 107.103C114.779 107.946 114.185 108.728 113.498 109.446C112.81 110.196 112.045 110.821 111.201 111.321C110.357 111.853 109.467 112.243 108.529 112.493C107.592 112.743 106.623 112.837 105.623 112.774C104.498 112.681 103.514 112.384 102.67 111.884C101.826 111.384 101.123 110.759 100.56 110.009C99.9979 109.29 99.5917 108.509 99.3417 107.665C99.1229 106.853 99.0604 106.087 99.1542 105.368C99.2479 104.618 99.4823 103.884 99.8573 103.165C100.264 102.446 100.779 101.806 101.404 101.243C102.029 100.681 102.779 100.228 103.654 99.8838C104.529 99.54 105.514 99.3838 106.607 99.415C107.107 99.4463 107.607 99.5713 108.107 99.79C108.607 100.009 109.045 100.306 109.42 100.681C109.826 101.056 110.123 101.493 110.31 101.993C110.529 102.524 110.623 103.071 110.592 103.634C110.529 104.196 110.357 104.759 110.076 105.321C109.826 105.884 109.482 106.384 109.045 106.821C108.639 107.29 108.154 107.634 107.592 107.853C107.029 108.103 106.435 108.181 105.81 108.087C105.123 107.993 104.607 107.634 104.264 107.009C103.92 106.415 103.764 105.774 103.795 105.087C103.857 104.399 104.107 103.759 104.545 103.165C105.014 102.603 105.701 102.29 106.607 102.228C107.232 102.196 107.685 102.415 107.967 102.884C108.279 103.384 108.31 103.837 108.06 104.243C107.779 104.681 107.389 104.868 106.889 104.806C106.389 104.774 106.029 104.446 105.81 103.821C105.56 104.009 105.357 104.274 105.201 104.618C105.076 104.993 105.029 105.353 105.06 105.696C105.092 106.071 105.217 106.384 105.435 106.634C105.654 106.915 105.998 107.056 106.467 107.056C107.029 107.056 107.498 106.931 107.873 106.681C108.279 106.462 108.607 106.165 108.857 105.79C109.107 105.446 109.279 105.071 109.373 104.665C109.498 104.29 109.56 103.946 109.56 103.634C109.56 103.321 109.498 102.978 109.373 102.603C109.248 102.259 109.045 101.931 108.764 101.618C108.482 101.337 108.107 101.103 107.639 100.915C107.17 100.759 106.592 100.696 105.904 100.728C105.279 100.759 104.654 100.899 104.029 101.149C103.435 101.399 102.889 101.743 102.389 102.181C101.889 102.618 101.482 103.149 101.17 103.774C100.857 104.399 100.701 105.087 100.701 105.837C100.701 106.618 100.857 107.321 101.17 107.946C101.514 108.571 101.967 109.087 102.529 109.493C103.092 109.931 103.732 110.259 104.451 110.478C105.17 110.728 105.92 110.837 106.701 110.806C107.451 110.774 108.295 110.493 109.232 109.962C110.17 109.462 111.014 108.681 111.764 107.618C112.514 106.587 113.076 105.243 113.451 103.587C113.857 101.962 113.889 99.9932 113.545 97.6807C113.389 96.5869 113.264 95.54 113.17 94.54C113.107 93.54 113.076 92.5713 113.076 91.6338C112.67 92.2275 112.185 92.8525 111.623 93.5088C111.092 94.1338 110.482 94.6963 109.795 95.1963C109.139 95.7275 108.404 96.1494 107.592 96.4619C106.779 96.8057 105.904 96.9463 104.967 96.8838C103.842 96.8213 102.732 96.5557 101.639 96.0869C100.576 95.6182 99.6229 94.8369 98.7792 93.7432C97.9667 92.6807 97.326 91.2744 96.8573 89.5244C96.4198 87.7744 96.2792 85.5869 96.4354 82.9619C96.5604 80.3369 97.0292 78.1963 97.8417 76.54C98.6542 74.8838 99.6073 73.6025 100.701 72.6963C101.795 71.79 102.935 71.1963 104.123 70.915C105.342 70.6025 106.404 70.4932 107.31 70.5869C108.654 70.7432 109.967 71.29 111.248 72.2275C112.56 73.165 113.576 74.6025 114.295 76.54C114.545 75.3525 114.779 74.3682 114.998 73.5869C115.248 72.8057 115.357 72.1963 115.326 71.7588C116.326 72.04 117.42 72.1963 118.607 72.2275C119.795 72.2588 121.014 72.2275 122.264 72.1338L122.217 73.0244C120.81 73.1494 119.701 73.7432 118.889 74.8057C118.107 75.8369 117.498 77.4932 117.06 79.7744C116.779 81.2119 116.607 82.6025 116.545 83.9463C116.482 85.29 116.467 86.6025 116.498 87.8838C116.529 89.1338 116.592 90.3682 116.685 91.5869C116.81 92.7744 116.92 93.9619 117.014 95.1494C117.076 95.8682 117.123 96.7119 117.154 97.6807C117.185 98.6494 117.154 99.665 117.06 100.728C116.967 101.79 116.779 102.868 116.498 103.962C116.248 105.087 115.842 106.134 115.279 107.103ZM113.357 83.2432C113.389 82.2432 113.482 81.2588 113.639 80.29C113.42 78.6338 112.92 77.2744 112.139 76.2119C111.389 75.1182 110.185 74.4775 108.529 74.29C107.56 74.165 106.607 74.29 105.67 74.665C104.732 75.0088 103.873 75.6025 103.092 76.4463C102.342 77.2588 101.701 78.3213 101.17 79.6338C100.639 80.915 100.31 82.4463 100.185 84.2275C100.029 86.0088 100.092 87.6025 100.373 89.0088C100.685 90.3838 101.139 91.54 101.732 92.4775C102.357 93.3838 103.076 94.04 103.889 94.4463C104.701 94.8838 105.545 95.0557 106.42 94.9619C107.201 94.8369 107.967 94.5244 108.717 94.0244C109.467 93.5244 110.139 92.9307 110.732 92.2432C111.357 91.5244 111.873 90.7588 112.279 89.9463C112.717 89.1025 113.014 88.2744 113.17 87.4619C113.201 86.7744 113.232 86.1025 113.264 85.4463C113.295 84.7588 113.326 84.0244 113.357 83.2432Z" fill="white"/>
<path d="M56.4354 54.0713C54.6854 54.0088 52.9823 53.5244 51.326 52.6182C49.701 51.7432 48.2635 50.4775 47.0135 48.8213C45.7948 47.1338 44.8417 45.0713 44.1542 42.6338C43.4667 40.1963 43.1854 37.3838 43.3104 34.1963C43.4354 31.0088 43.9979 28.1807 44.9979 25.7119C46.0292 23.2432 47.2948 21.1963 48.7948 19.5713C50.2948 17.915 51.9354 16.6963 53.7167 15.915C55.5292 15.1338 57.3104 14.8369 59.0604 15.0244C60.1229 15.1494 61.0604 15.4463 61.8729 15.915C62.6854 16.3838 63.3885 16.9619 63.9823 17.6494C64.576 18.3057 65.076 19.0244 65.4823 19.8057C65.8885 20.5557 66.2167 21.29 66.4667 22.0088C66.6542 22.1963 66.8573 22.29 67.076 22.29C67.6698 22.3213 68.201 21.8838 68.6698 20.9775C69.1698 20.04 69.5917 18.5088 69.9354 16.3838L71.2479 16.5244C70.9667 17.5869 70.6542 18.8213 70.3104 20.2275C69.9979 21.6025 69.701 23.0244 69.4198 24.4932C69.1698 25.9619 68.951 27.415 68.7635 28.8525C68.6073 30.29 68.5604 31.5869 68.6229 32.7432C68.1542 32.5557 67.7167 32.4307 67.3104 32.3682C66.9042 32.2744 66.5292 32.2119 66.1854 32.1807C65.8104 32.1494 65.4667 32.1494 65.1542 32.1807C65.2167 30.2432 65.1542 28.3838 64.9667 26.6025C64.8104 24.8213 64.4979 23.2588 64.0292 21.915C63.5604 20.54 62.9354 19.4307 62.1542 18.5869C61.4042 17.7432 60.4667 17.2744 59.3417 17.1807C58.3417 17.0869 57.2635 17.3057 56.1073 17.8369C54.951 18.3369 53.8573 19.2588 52.826 20.6025C51.7948 21.915 50.9042 23.6807 50.1542 25.8994C49.4042 28.1182 48.9354 30.8838 48.7479 34.1963C48.6542 35.9463 48.7167 37.79 48.9354 39.7275C49.1542 41.665 49.5917 43.4619 50.2479 45.1182C50.9042 46.7432 51.7948 48.1025 52.9198 49.1963C54.0448 50.2588 55.4667 50.7744 57.1854 50.7432C58.4979 50.6494 59.7167 50.3057 60.8417 49.7119C61.8104 49.1807 62.7635 48.3838 63.701 47.3213C64.6385 46.2588 65.3104 44.7275 65.7167 42.7275L67.2635 43.665C67.0135 44.4775 66.6385 45.4932 66.1385 46.7119C65.6385 47.8994 64.951 49.0557 64.076 50.1807C63.2323 51.3057 62.1698 52.2432 60.8885 52.9932C59.6385 53.7744 58.1542 54.1338 56.4354 54.0713ZM91.6385 48.9619C91.8573 48.9619 92.076 48.8994 92.2948 48.7744C92.4823 48.6807 92.6542 48.54 92.8104 48.3525C92.9979 48.165 93.1542 47.8838 93.2792 47.5088H93.9823C93.951 47.8213 93.8573 48.1807 93.701 48.5869C93.5448 48.9619 93.3104 49.3213 92.9979 49.665C92.6854 49.9775 92.2948 50.2432 91.826 50.4619C91.3573 50.6807 90.8104 50.7588 90.1854 50.6963C88.1854 50.5088 86.9823 48.5713 86.576 44.8838C86.2948 45.6338 85.9667 46.3994 85.5917 47.1807C85.2479 47.9619 84.826 48.6807 84.326 49.3369C83.826 49.9932 83.2323 50.5244 82.5448 50.9307C81.8885 51.3682 81.0917 51.5869 80.1542 51.5869C78.9667 51.5869 77.9198 51.3369 77.0135 50.8369C76.1385 50.3682 75.4042 49.7275 74.8104 48.915C74.2167 48.1025 73.7948 47.1807 73.5448 46.1494C73.2948 45.0869 73.201 43.9932 73.2635 42.8682C73.3573 41.3057 73.576 39.7275 73.9198 38.1338C74.2635 36.5088 74.4667 34.9932 74.5292 33.5869C74.6229 32.1494 74.451 30.8994 74.0135 29.8369C73.6073 28.7432 72.6854 27.9463 71.2479 27.4463L71.4354 26.7432C71.9042 26.8369 72.4198 26.9619 72.9823 27.1182C73.5448 27.2744 74.1385 27.3994 74.7635 27.4932C75.3885 27.5869 76.0448 27.6338 76.7323 27.6338C77.451 27.6338 78.1698 27.54 78.8885 27.3525C78.5135 28.165 78.1698 28.9307 77.8573 29.6494C77.576 30.3682 77.3417 31.165 77.1542 32.04C76.9667 32.915 76.826 33.915 76.7323 35.04C76.6385 36.165 76.5917 37.5557 76.5917 39.2119C76.5917 40.8682 76.7167 42.2588 76.9667 43.3838C77.2479 44.5088 77.6229 45.3994 78.0917 46.0557C78.5917 46.7119 79.1698 47.1807 79.826 47.4619C80.4823 47.7119 81.2167 47.8057 82.0292 47.7432C82.8104 47.6494 83.4667 47.29 83.9979 46.665C84.5604 46.0088 85.0135 45.165 85.3573 44.1338C85.7323 43.0713 86.0135 41.8682 86.201 40.5244C86.4198 39.1807 86.5604 37.7588 86.6229 36.2588C86.6854 34.7588 86.6854 33.4775 86.6229 32.415C86.5917 31.3525 86.4823 30.4619 86.2948 29.7432C86.1073 29.0244 85.826 28.4463 85.451 28.0088C85.076 27.54 84.576 27.1807 83.951 26.9307L84.0448 26.1807C84.6073 26.1807 85.2792 26.1807 86.0604 26.1807C86.8417 26.1807 87.6229 26.165 88.4042 26.1338C89.1854 26.0713 89.9042 25.9932 90.5604 25.8994C91.2479 25.8057 91.7635 25.6807 92.1073 25.5244C91.576 26.5557 91.0917 27.8682 90.6542 29.4619C90.2479 31.0244 89.9042 32.6807 89.6229 34.4307C89.3417 36.1494 89.1542 37.8838 89.0604 39.6338C88.9667 41.3525 88.9979 42.915 89.1542 44.3213C89.3104 45.6963 89.576 46.8213 89.951 47.6963C90.3573 48.54 90.9198 48.9619 91.6385 48.9619ZM105.326 49.1494C106.045 49.1494 106.717 48.8994 107.342 48.3994C107.967 47.8994 108.404 47.0557 108.654 45.8682L109.639 46.2432C109.545 46.9932 109.248 47.7588 108.748 48.54C108.248 49.29 107.607 49.9307 106.826 50.4619C106.045 50.9932 105.154 51.3369 104.154 51.4932C103.185 51.6494 102.185 51.4932 101.154 51.0244C100.029 50.4932 99.2167 49.8057 98.7167 48.9619C98.2167 48.1182 97.9042 47.1494 97.7792 46.0557C97.6542 44.9307 97.6385 43.7275 97.7323 42.4463C97.826 41.1338 97.8729 39.7744 97.8729 38.3682C97.8729 37.5557 97.8573 36.6025 97.826 35.5088C97.826 34.3838 97.7948 33.1963 97.7323 31.9463C97.701 30.6963 97.6385 29.415 97.5448 28.1025C97.451 26.7588 97.3573 25.4463 97.2635 24.165C96.201 24.29 95.1854 24.4463 94.2167 24.6338C93.2792 24.79 92.4823 24.9932 91.826 25.2432C91.7948 24.9619 91.7948 24.7432 91.826 24.5869C91.826 24.4307 91.8417 24.29 91.8729 24.165C91.8729 24.0088 91.8729 23.8525 91.8729 23.6963C91.8729 23.5088 91.8417 23.2588 91.7792 22.9463C92.5292 22.8838 93.3573 22.8213 94.2635 22.7588C95.201 22.6963 96.1542 22.6338 97.1229 22.5713C97.0917 22.1338 97.0604 21.7119 97.0292 21.3057C96.9979 20.8682 96.951 20.4463 96.8885 20.04C96.7323 18.5713 96.4354 17.3994 95.9979 16.5244C95.5917 15.6494 95.1385 14.9775 94.6385 14.5088C94.1385 14.04 93.6698 13.7275 93.2323 13.5713C92.7948 13.3838 92.4667 13.2588 92.2479 13.1963L92.3885 12.3057C92.9823 12.5557 93.7167 12.7275 94.5917 12.8213C95.4667 12.8838 96.3729 12.8838 97.3104 12.8213C98.2792 12.7275 99.2167 12.5713 100.123 12.3525C101.06 12.1338 101.873 11.8525 102.56 11.5088C102.248 12.3838 101.967 13.7744 101.717 15.6807C101.498 17.5869 101.31 19.8057 101.154 22.3369C102.779 22.2432 103.951 22.1182 104.67 21.9619C104.514 22.1494 104.435 22.4619 104.435 22.8994C104.435 23.3057 104.482 23.6807 104.576 24.0244C104.045 23.9619 103.482 23.9307 102.889 23.9307C102.295 23.8994 101.685 23.8838 101.06 23.8838C100.967 25.6963 100.904 27.5869 100.873 29.5557C100.842 31.5244 100.857 33.4775 100.92 35.415C101.014 37.3213 101.139 39.1963 101.295 41.04C101.482 42.8525 101.717 44.5244 101.998 46.0557C102.248 47.1494 102.685 47.9307 103.31 48.3994C103.935 48.8682 104.607 49.1182 105.326 49.1494ZM109.217 37.9932C109.31 36.1494 109.701 34.4307 110.389 32.8369C111.107 31.2432 112.029 29.8838 113.154 28.7588C114.279 27.6025 115.545 26.7275 116.951 26.1338C118.389 25.54 119.873 25.3369 121.404 25.5244C122.935 25.7119 124.107 26.1807 124.92 26.9307C125.764 27.6807 126.357 28.5244 126.701 29.4619C127.045 30.3682 127.232 31.2744 127.264 32.1807C127.295 33.0869 127.295 33.79 127.264 34.29C127.232 34.7588 127.17 35.2744 127.076 35.8369C127.014 36.3994 126.935 36.9619 126.842 37.5244C126.779 38.0557 126.748 38.5713 126.748 39.0713C126.748 39.54 126.795 39.9307 126.889 40.2432C126.107 39.9932 125.201 39.7275 124.17 39.4463C123.139 39.1338 122.014 38.8994 120.795 38.7432C119.607 38.5869 118.357 38.54 117.045 38.6025C115.764 38.6338 114.482 38.8525 113.201 39.2588C113.17 40.4463 113.248 41.6338 113.435 42.8213C113.654 43.9775 113.998 45.0869 114.467 46.1494C114.873 47.0557 115.342 47.8525 115.873 48.54C116.404 49.2275 116.967 49.7588 117.56 50.1338C118.185 50.4775 118.81 50.665 119.435 50.6963C120.092 50.7275 120.748 50.54 121.404 50.1338C121.935 49.7588 122.342 49.3057 122.623 48.7744C122.873 48.3369 122.967 47.8057 122.904 47.1807C122.873 46.5557 122.545 45.8369 121.92 45.0244L127.779 44.7432C127.56 45.3682 127.232 46.1494 126.795 47.0869C126.389 48.0244 125.826 48.9307 125.107 49.8057C124.389 50.6807 123.498 51.415 122.435 52.0088C121.373 52.6025 120.092 52.8682 118.592 52.8057C117.092 52.7119 115.732 52.2275 114.514 51.3525C113.326 50.5088 112.326 49.3994 111.514 48.0244C110.701 46.6494 110.092 45.1025 109.685 43.3838C109.279 41.6338 109.123 39.8369 109.217 37.9932ZM120.842 26.7432C119.967 26.6494 119.107 26.8682 118.264 27.3994C117.451 27.9307 116.701 28.6963 116.014 29.6963C115.357 30.665 114.795 31.8213 114.326 33.165C113.857 34.5088 113.529 35.915 113.342 37.3838C115.123 37.165 116.779 37.0557 118.31 37.0557C119.842 37.0244 121.264 37.1182 122.576 37.3369C122.92 36.6182 123.232 35.6963 123.514 34.5713C123.795 33.415 123.92 32.29 123.889 31.1963C123.857 30.0713 123.607 29.0869 123.139 28.2432C122.701 27.3994 121.935 26.8994 120.842 26.7432Z" fill="white"/>
<path fill-rule="evenodd" clip-rule="evenodd" d="M42.1082 55.7465C42.1053 55.7422 42.1019 55.7372 42.0985 55.7324C42.0962 55.7289 42.0938 55.7256 42.0917 55.7227C42.0967 55.7296 42.1032 55.7391 42.1082 55.7465ZM41.0891 54.3303C41.0875 54.3286 41.086 54.327 41.0846 54.3255L41.0819 54.3224C41.084 54.3248 41.0865 54.3275 41.0891 54.3303ZM23.4359 71.1364C23.4345 71.1387 23.433 71.1411 23.4316 71.1435C23.4295 71.1471 23.4273 71.1506 23.4254 71.1537C23.4286 71.1486 23.4323 71.1424 23.4359 71.1364Z" fill="white"/>
<path fill-rule="evenodd" clip-rule="evenodd" d="M24.3442 87.01L24.4561 87.1185C24.5281 87.3984 25.6007 88.2329 25.7597 88.3559L26.6386 88.9653C26.6459 88.9702 26.6563 88.9781 26.6636 88.983L27.556 89.4569C28.1456 89.7964 29.152 90.1934 29.7933 90.4155C30.6098 90.6989 31.1991 90.8163 31.8746 91.0405C32.0066 91.0842 32.1944 91.0675 32.3444 91.1094L33.1994 91.2991C33.365 91.3366 33.5344 91.3255 33.7198 91.3509C33.9124 91.3772 33.9318 91.4357 34.1192 91.4569C34.4688 91.4963 34.7806 91.4729 35.1235 91.5371C35.3574 91.581 37.4093 91.7415 37.7114 91.6853C37.9082 91.6487 37.843 91.6019 38.1448 91.6008L41.3486 91.5792C41.719 91.567 41.9712 91.4759 42.31 91.4588C42.6678 91.4408 43.0015 91.4679 43.2925 91.3725L46.0411 90.87C46.5528 90.6763 46.267 90.8634 46.6467 90.6926C46.9474 90.5575 48.6543 90.0344 49.0478 89.8037L49.3593 89.6492C49.7978 89.4933 50.896 88.8389 51.22 88.6043C51.7905 88.191 51.873 88.172 52.4221 87.6592L53.3661 86.7169C53.4742 86.586 53.4018 86.6577 53.468 86.5482C53.584 86.3573 53.5542 86.5451 53.75 86.2693L54.1848 85.6516C54.5392 85.1781 54.5329 85.1008 54.8028 84.6484C55.3232 83.7757 55.3197 83.3614 55.5698 82.7409C55.6976 82.4232 55.8781 81.7217 55.8941 81.4504C55.9322 80.8057 55.9602 81.0143 56.0174 80.513C56.2138 78.7905 55.9609 77.3698 55.7583 75.9282L55.6034 75.296C55.5355 75.1034 55.5809 75.2977 55.5182 75.1328C55.4603 74.9797 55.5352 75.076 55.3956 74.7323L55.3096 74.3779C55.1738 74.0118 55.0117 73.2212 54.9379 73.0244C54.7716 72.5824 54.4972 71.9647 54.2842 71.5403L53.1278 69.4433C52.9726 69.2046 52.8319 69.0432 52.6972 68.8294C52.2277 68.086 51.7576 67.6224 51.2692 67.0096C51.0488 66.7335 50.7346 66.466 50.4994 66.201L49.6194 65.4621C49.5391 65.3949 49.5886 65.3955 49.4718 65.3127L48.515 64.64C47.8744 64.2139 47.5488 64.0611 46.9086 63.7039C46.7728 63.628 46.6674 63.557 46.5181 63.4836L45.9794 63.1427L45.9538 63.124C45.9465 63.1184 45.9365 63.1101 45.9292 63.1049C45.9219 63.0997 45.9122 63.0914 45.9049 63.0866C45.8426 63.0422 45.7823 63.0159 45.713 62.9799L43.6289 61.5477C43.5474 61.4794 43.5554 61.477 43.4664 61.406C43.1764 61.1742 42.6786 60.8708 42.4385 60.5936C42.4191 60.5711 42.3938 60.542 42.3762 60.5236C42.2826 60.4239 42.1641 60.2912 42.0633 60.2156C41.6008 59.8696 41.7976 59.7999 41.4882 59.5283L41.1692 59.1857C41.0566 59.0606 40.9734 58.9764 40.8795 58.8621L39.2794 56.6034C39.0119 56.2178 38.9842 55.9919 38.6294 56.0054L37.3158 57.9184C37.129 58.2566 36.8224 58.5514 36.6066 58.8808C36.6014 58.8885 36.5952 58.8999 36.59 58.9072C36.5851 58.9144 36.5782 58.9255 36.573 58.9324L35.2791 60.3047C35.2004 60.3823 35.1613 60.4138 35.0788 60.5028C34.7282 60.8805 34.6195 60.9411 34.2263 61.2643C34.0932 61.3738 33.9158 61.5356 33.7575 61.6294L32.8163 62.2707C32.6659 62.3854 32.5201 62.4942 32.3683 62.6061C32.2103 62.7221 32.0406 62.8091 31.8573 62.9303C31.5265 63.1489 31.152 63.3024 30.8357 63.5314L30.0811 63.9953C30.0022 64.0451 29.9225 64.0839 29.814 64.12C29.539 64.2121 29.0346 64.5354 28.8194 64.7141L28.3455 65.1142C28.1047 65.3238 28.0278 65.3159 27.4898 65.7922L27.2934 65.9932C26.6106 66.6212 25.8917 67.2919 25.3862 68.0835L24.4107 69.4669C24.2357 69.6955 24.1231 69.9848 24.0126 70.1144L23.9156 70.2439C23.6281 70.67 23.5692 70.9614 23.5006 71.0539C23.4542 71.1166 23.5099 71.0258 23.4427 71.1256L23.4406 71.1289L23.4359 71.1364L23.4316 71.1435L23.4254 71.1537C23.4218 71.1593 23.418 71.1663 23.4145 71.1729L23.4129 71.1758L23.4091 71.1828L23.3482 71.2992L22.6508 72.8366C22.6158 72.925 22.6324 72.9011 22.6092 72.9815L22.3826 73.5243C22.1814 73.8822 22.1277 74.3696 21.9791 74.7452C21.8658 75.0306 21.6898 75.7786 21.6645 76.0578L21.4594 77.4314C21.3648 77.8697 21.3267 80.1343 21.4248 80.5975C21.4791 80.8542 21.4802 81.0558 21.5249 81.334L22.2389 83.8145C22.3141 83.9912 22.4138 84.1436 22.4935 84.3407C22.8448 85.2092 23.0014 85.1871 23.1497 85.4819C23.3312 85.8439 23.9541 86.6237 24.147 86.7776L24.2922 86.9251C24.3677 87.0405 24.2617 86.8978 24.3442 87.01Z" fill="white"/>
<path fill-rule="evenodd" clip-rule="evenodd" d="M20.4513 86.3937C20.3591 86.2721 20.3435 86.1761 20.267 86.0566L19.0932 83.4726C19.1178 83.1431 18.7856 81.8107 18.7045 81.1639L18.5604 78.5996C18.5687 77.9646 18.6668 77.5295 18.6893 76.935C18.7198 76.1212 19.1805 74.1074 19.4854 73.2628C19.5537 73.0746 19.5793 73.1055 19.6181 72.9724L19.9708 71.912L21.6368 68.6209C21.6693 68.5651 21.6953 68.5007 21.7237 68.4504L22.0237 67.9554C22.1749 67.7088 22.314 67.4846 22.4493 67.2729C22.9577 66.4772 23.4127 65.8573 24.2551 64.8821L24.4789 64.6677C24.4848 64.6611 24.4938 64.6518 24.5004 64.6455C24.5066 64.6389 24.516 64.6299 24.5226 64.6237L26.2083 63.1105C26.366 62.9927 26.4789 62.9075 26.6341 62.791C27.1919 62.3722 27.7597 62.0233 28.3549 61.6634L29.5965 60.9764C29.6959 60.9272 29.7312 60.9089 29.8237 60.8531C29.9848 60.7557 30.1189 60.675 30.289 60.5735L31.2407 59.9475C31.2507 59.9395 31.2777 59.9149 31.2878 59.9066C31.5642 59.6846 31.9803 59.4369 32.4373 59.0405C32.5194 58.9692 32.5644 58.9304 32.6496 58.8583L34.1989 57.2959C34.219 57.2737 34.2557 57.229 34.2786 57.2006L34.4189 57.034C34.4248 57.0271 34.4338 57.0177 34.4393 57.0108L35.1052 56.0986C35.1104 56.0913 35.1183 56.0813 35.1239 56.0737L35.3116 55.7792C35.3163 55.7727 35.3232 55.7636 35.3286 55.7565L35.3303 55.7542L35.8043 55.0448C35.8465 54.982 35.8486 54.9737 35.893 54.9145L36.635 54.0342C36.7019 53.9739 36.7618 53.9379 36.7888 53.8495C36.9707 53.8274 36.9756 53.7775 37.1425 53.676C37.1509 53.6708 37.1623 53.6645 37.171 53.6594L37.4294 53.4879C37.4238 53.1685 37.3511 52.734 37.27 52.4468C37.225 52.2871 37.2361 52.0845 37.2184 51.9078C37.1942 51.6677 37.1422 51.6777 37.1024 51.4027C37.0424 50.9863 37.05 51.1806 36.9842 50.9703L36.6274 49.7096C36.4964 49.401 36.5591 49.3739 36.4673 49.1269C36.4109 48.9752 36.3658 48.8089 36.316 48.6644L35.8909 47.3469C35.8354 46.8879 36.3624 46.0683 37.1734 46.537C37.638 46.8058 37.8971 47.5413 38.0405 48.0325C38.0932 48.213 38.1507 48.2629 38.2144 48.4611L39.2205 52.1891C39.4903 53.4494 39.172 53.2256 39.9099 53.4494C40.0997 53.5069 39.7789 53.4861 40.1195 53.5145L40.4649 53.756C40.4808 53.7674 40.5459 53.8173 40.5646 53.8315L40.9776 54.2074C41.0327 54.266 41.0368 54.2739 41.0819 54.3224L41.0846 54.3255L41.0891 54.3303L41.0985 54.3402L41.103 54.3449L41.1245 54.3675L41.3531 54.6644C41.3587 54.672 41.3663 54.6824 41.3715 54.69L42.0917 55.7227L42.0985 55.7324L42.1082 55.7465L42.1097 55.7487L43.6129 57.7075C43.6472 57.7456 43.6472 57.7473 43.6736 57.7785L43.6936 57.8024C43.6992 57.8093 43.7075 57.8193 43.7134 57.8263L45.0915 59.1213C45.1435 59.1656 45.1268 59.1524 45.1864 59.2016C45.3413 59.3295 45.4695 59.4289 45.6285 59.5484L46.3182 60.0421L46.346 60.0584L46.5815 60.217L46.6082 60.2344L46.6612 60.2686C46.725 60.3102 46.709 60.2991 46.7672 60.3383L47.7203 60.9193C47.7767 60.9501 47.7996 60.9574 47.8381 60.9764L48.832 61.5165C48.9096 61.5567 48.86 61.5314 48.9421 61.5816L49.7989 62.0833C49.81 62.0906 49.8405 62.1117 49.8512 62.1186L52.6646 64.3888C52.7141 64.4356 52.7363 64.4522 52.7803 64.4924L54.2308 66.1096L54.2509 66.1335L54.2714 66.157L54.2918 66.1802L56.6978 69.9536C56.7553 70.0658 56.7602 70.1064 56.8246 70.2211C57.0325 70.589 57.1707 71.0192 57.3526 71.4021C57.364 71.426 57.39 71.4748 57.409 71.5212L57.47 71.6792C57.515 71.7776 57.4742 71.6574 57.5282 71.7963L57.6896 72.2484C57.6931 72.2598 57.6952 72.272 57.6987 72.2834L58.2044 73.7935C58.2429 73.9439 58.2155 73.973 58.2685 74.1237L58.8765 77.7228V80.7468C58.8751 80.761 58.8734 80.7738 58.8717 80.7856C58.8461 80.9581 58.809 80.8989 58.7906 81.0988C58.7144 81.9261 58.6261 82.0376 58.5076 82.7444C58.4445 83.1209 58.298 83.4556 58.2131 83.8083L57.8099 84.8954L57.8087 84.8989C57.8055 84.9084 57.8021 84.9187 57.7984 84.9276L56.3538 87.5148L54.9507 89.1794C54.9254 89.2061 54.86 89.2719 54.8416 89.2896L54.5454 89.5629C54.5153 89.5899 54.5076 89.5955 54.4761 89.6253L53.7306 90.2821C53.2944 90.6223 52.8486 90.9639 52.3712 91.2452L52.3435 91.2614C52.3351 91.2664 52.3244 91.2733 52.3164 91.2782L51.7691 91.6074C51.7607 91.6123 51.7497 91.6185 51.7413 91.6235L51.1774 91.9358C51.0734 91.9994 51.1548 91.9566 51.0377 92.0154L50.6532 92.2005C50.5662 92.239 50.4886 92.2662 50.4072 92.3052C50.3071 92.353 50.3518 92.3398 50.2645 92.3815C50.2215 92.402 50.1817 92.4148 50.1394 92.4319C49.9794 92.4965 50.0189 92.4988 49.8713 92.5582C49.8242 92.5771 49.8176 92.5749 49.7739 92.5924C49.7642 92.5964 49.7525 92.6008 49.7428 92.605C49.7334 92.6091 49.722 92.6144 49.7126 92.6187L47.018 93.5177C46.8372 93.5539 46.8254 93.5903 46.7222 93.6162L45.4702 93.8982C45.3507 93.915 45.254 93.9203 45.122 93.9444C44.9107 93.9828 44.7489 94.0609 44.5015 94.0688C44.2618 94.0765 44.3418 94.0693 44.162 94.124C43.8038 94.2329 43.5028 94.1883 43.1612 94.2625C42.7378 94.3546 42.1842 94.3419 41.7675 94.4026C41.3012 94.4704 40.8168 94.464 40.2951 94.464C39.7405 94.464 39.3247 94.5084 38.8047 94.5078C38.2636 94.5072 37.8562 94.464 37.3147 94.464C36.7733 94.464 36.309 94.4494 35.8261 94.4188C35.5694 94.4024 35.4021 94.3332 35.1253 94.3308C34.8176 94.3281 34.6863 94.3242 34.4241 94.2872L33.7211 94.2009C33.4648 94.1905 33.2957 94.0974 33.1024 94.0747C32.9701 94.0592 32.8682 94.0747 32.7296 94.0532C32.5945 94.0324 32.5194 93.9989 32.4186 93.9698C32.2103 93.9097 31.989 93.9251 31.7804 93.863L30.2277 93.4873L27.6984 92.5984C27.6883 92.5944 27.6762 92.5906 27.6661 92.5868C26.8337 92.2831 26.0455 91.8316 25.2827 91.3765L25.0353 91.2293L22.8559 89.4569C22.8039 89.3294 21.9146 88.4224 21.8335 88.3414C21.5114 88.0185 21.1542 87.4878 20.8964 87.0807L20.6674 86.7408C20.5652 86.5704 20.5743 86.5565 20.4513 86.3937ZM24.3442 87.01L24.4561 87.1185C24.5281 87.3984 25.6007 88.2329 25.7597 88.3559L26.6386 88.9653C26.6459 88.9702 26.6563 88.9781 26.6636 88.983L27.556 89.4569C28.1456 89.7964 29.152 90.1934 29.7933 90.4155C30.6098 90.6989 31.1991 90.8163 31.8746 91.0405C32.0066 91.0842 32.1944 91.0675 32.3444 91.1094L33.1994 91.2991C33.365 91.3366 33.5344 91.3255 33.7198 91.3509C33.9124 91.3772 33.9318 91.4357 34.1192 91.4569C34.4688 91.4963 34.7806 91.4729 35.1235 91.5371C35.3574 91.581 37.4093 91.7415 37.7114 91.6853C37.9082 91.6487 37.843 91.6019 38.1448 91.6008L41.3486 91.5792C41.719 91.567 41.9712 91.4759 42.31 91.4588C42.6678 91.4408 43.0015 91.4679 43.2925 91.3725L46.0411 90.87C46.5528 90.6763 46.267 90.8634 46.6467 90.6926C46.9474 90.5575 48.6543 90.0344 49.0478 89.8037L49.3593 89.6492C49.7978 89.4933 50.896 88.8389 51.22 88.6043C51.7905 88.191 51.873 88.172 52.4221 87.6592L53.3661 86.7169C53.4742 86.586 53.4018 86.6577 53.468 86.5482C53.584 86.3573 53.5542 86.5451 53.75 86.2693L54.1848 85.6516C54.5392 85.1781 54.5329 85.1008 54.8028 84.6484C55.3232 83.7757 55.3197 83.3614 55.5698 82.7409C55.6976 82.4232 55.8781 81.7217 55.8941 81.4504C55.9322 80.8057 55.9602 81.0143 56.0174 80.513C56.2138 78.7905 55.9609 77.3698 55.7583 75.9282L55.6034 75.296C55.5355 75.1034 55.5809 75.2977 55.5182 75.1328C55.4603 74.9797 55.5352 75.076 55.3956 74.7323L55.3096 74.3779C55.1738 74.0118 55.0117 73.2212 54.9379 73.0244C54.7716 72.5824 54.4972 71.9647 54.2842 71.5403L53.1278 69.4433C52.9726 69.2046 52.8319 69.0432 52.6972 68.8294C52.2277 68.086 51.7576 67.6224 51.2692 67.0096C51.0488 66.7335 50.7346 66.466 50.4994 66.201L49.6194 65.4621C49.5391 65.3949 49.5886 65.3955 49.4718 65.3127L48.515 64.64C47.8744 64.2139 47.5488 64.0611 46.9086 63.7039C46.7728 63.628 46.6674 63.557 46.5181 63.4836L45.9794 63.1427L45.9538 63.124C45.9465 63.1184 45.9365 63.1101 45.9292 63.1049C45.9219 63.0997 45.9122 63.0914 45.9049 63.0866C45.8426 63.0422 45.7823 63.0159 45.713 62.9799L43.6289 61.5477C43.5474 61.4794 43.5554 61.477 43.4664 61.406C43.1764 61.1742 42.6786 60.8708 42.4385 60.5936C42.4191 60.5711 42.3938 60.542 42.3762 60.5236C42.2826 60.4239 42.1641 60.2912 42.0633 60.2156C41.6008 59.8696 41.7976 59.7999 41.4882 59.5283L41.1692 59.1857C41.0566 59.0606 40.9734 58.9764 40.8795 58.8621L39.2794 56.6034C39.0119 56.2178 38.9842 55.9919 38.6294 56.0054L37.3158 57.9184C37.129 58.2566 36.8224 58.5514 36.6066 58.8808C36.6014 58.8885 36.5952 58.8999 36.59 58.9072C36.5851 58.9144 36.5782 58.9255 36.573 58.9324L35.2791 60.3047C35.2004 60.3823 35.1613 60.4138 35.0788 60.5028C34.7282 60.8805 34.6195 60.9411 34.2263 61.2643C34.0932 61.3738 33.9158 61.5356 33.7575 61.6294L32.8163 62.2707C32.6659 62.3854 32.5201 62.4942 32.3683 62.6061C32.2103 62.7221 32.0406 62.8091 31.8573 62.9303C31.5265 63.1489 31.152 63.3024 30.8357 63.5314L30.0811 63.9953C30.0022 64.0451 29.9225 64.0839 29.814 64.12C29.539 64.2121 29.0346 64.5354 28.8194 64.7141L28.3455 65.1142C28.1047 65.3238 28.0278 65.3159 27.4898 65.7922L27.2934 65.9932C26.6106 66.6212 25.8917 67.2919 25.3862 68.0835L24.4107 69.4669C24.2357 69.6955 24.1231 69.9848 24.0126 70.1144L23.9156 70.2439C23.6281 70.67 23.5692 70.9614 23.5006 71.0539C23.4542 71.1166 23.5099 71.0258 23.4427 71.1256L23.4406 71.1289L23.4359 71.1364L23.4316 71.1435L23.4254 71.1537C23.4218 71.1593 23.418 71.1663 23.4145 71.1729L23.4129 71.1758L23.4091 71.1828L23.3482 71.2992L22.6508 72.8366C22.6158 72.925 22.6324 72.9011 22.6092 72.9815L22.3826 73.5243C22.1814 73.8822 22.1277 74.3696 21.9791 74.7452C21.8658 75.0306 21.6898 75.7786 21.6645 76.0578L21.4594 77.4314C21.3648 77.8697 21.3267 80.1343 21.4248 80.5975C21.4791 80.8542 21.4802 81.0558 21.5249 81.334L22.2389 83.8145C22.3141 83.9912 22.4138 84.1436 22.4935 84.3407C22.8448 85.2092 23.0014 85.1871 23.1497 85.4819C23.3312 85.8439 23.9541 86.6237 24.147 86.7776L24.2922 86.9251C24.3677 87.0405 24.2617 86.8978 24.3442 87.01Z" fill="white"/>
<path fill-rule="evenodd" clip-rule="evenodd" d="M24.4561 87.1185C24.5281 87.3984 25.6007 88.2329 25.7597 88.3559L26.6386 88.9653C26.6459 88.9702 26.6563 88.9781 26.6635 88.983L27.556 89.4569C28.1456 89.7964 29.152 90.1934 29.7932 90.4155C30.6098 90.6989 31.1991 90.8163 31.8746 91.0405C32.0066 91.0842 32.1944 91.0675 32.3444 91.1094L33.1994 91.2991C33.365 91.3366 33.5344 91.3255 33.7197 91.3509C33.9124 91.3772 33.9318 91.4357 34.1192 91.4569C34.4687 91.4963 34.7805 91.4729 35.1235 91.5371C35.3574 91.581 37.4093 91.7415 37.7114 91.6853C37.9082 91.6487 37.843 91.6019 38.1448 91.6009L41.3486 91.5792C41.7189 91.567 41.9711 91.4759 42.31 91.4588C42.6678 91.4408 43.0015 91.4679 43.2925 91.3725L46.0411 90.87C46.5528 90.6764 46.267 90.8634 46.6466 90.6926C46.9474 90.5575 48.6542 90.0344 49.0478 89.8037L49.3592 89.6492C49.7978 89.4933 50.896 88.8389 51.2199 88.6043C51.7905 88.191 51.873 88.172 52.4221 87.6592L53.3661 86.7169C53.4742 86.586 53.4018 86.6577 53.468 86.5482C53.584 86.3573 53.5542 86.5451 53.75 86.2693L54.1847 85.6516C54.5391 85.1781 54.5329 85.1008 54.8028 84.6484C55.3231 83.7757 55.3197 83.3614 55.5698 82.7409C55.6976 82.4232 55.8781 81.7217 55.8941 81.4504C55.9322 80.8057 55.9602 81.0143 56.0174 80.513C56.2138 78.7905 55.9609 77.3698 55.7583 75.9282L55.6034 75.296C55.5355 75.1034 55.5809 75.2977 55.5182 75.1328C55.4603 74.9797 55.5352 75.076 55.3955 74.7323L55.3096 74.3779C55.1738 74.0118 55.0117 73.2212 54.9379 73.0244C54.7716 72.5824 54.4972 71.9647 54.2842 71.5403L53.1278 69.4433C52.9726 69.2046 52.8319 69.0432 52.6971 68.8294C52.2277 68.086 51.7576 67.6224 51.2691 67.0096C51.0488 66.7335 50.7346 66.466 50.4994 66.201L49.6194 65.4621C49.6669 65.6457 50.2063 66.0704 50.4464 66.3011C50.7412 66.5849 50.9761 66.8412 51.2563 67.1548C51.7147 67.6671 52.3039 68.3721 52.6989 69.0037C52.8236 69.2029 52.8686 69.2895 53.0107 69.4724C53.4295 70.0108 54.1196 71.4596 54.455 72.1535L54.7605 72.8529C54.8222 72.9887 54.9071 73.2364 54.905 73.4027C53.988 73.3892 53.5681 73.5811 53.0017 74.2588C52.7689 74.5373 52.7089 74.6759 52.6026 74.9894C52.5177 75.2385 52.4983 75.7422 52.5333 76.0117C52.5593 76.2123 52.6355 76.2643 52.6923 76.9804C52.7224 77.3611 52.7557 77.243 52.7761 77.4588C52.8354 78.0855 52.8139 79.0548 52.7883 79.6964C52.7706 80.1426 52.6109 81.1075 52.4391 81.5751C52.3521 81.8111 52.455 81.8017 52.1716 82.4073C52.006 82.7617 51.6741 83.4494 51.441 83.7383C51.4354 83.7452 51.4264 83.7546 51.4209 83.7615L51.3838 83.8079C51.379 83.8152 51.3717 83.8256 51.3672 83.8332C51.1288 84.2358 51.4514 83.8242 50.9179 84.534C50.3944 85.2304 49.2574 86.1595 48.5132 86.6002C48.3875 86.6747 48.3016 86.7211 48.1848 86.7966C47.5637 87.1978 45.3548 88.2028 44.6779 88.3327C44.3629 88.393 44.0692 88.5281 43.792 88.5905L41.1182 89.2248C40.7798 89.319 40.4763 89.2833 40.0772 89.3339C39.4415 89.4139 38.9592 89.5369 38.4905 89.9859C38.2452 90.2211 38.1278 90.3753 37.9608 90.7242C37.878 90.8981 37.9078 90.8911 37.8673 91.0705C37.8486 91.1541 37.8278 91.2189 37.8157 91.2801L37.6573 91.5709C37.154 91.682 34.4005 91.365 33.6754 91.2736L32.7445 91.099C32.4972 91.0172 31.2351 90.7837 30.9787 90.6774L30.6489 90.5752C30.6396 90.5714 30.6292 90.5651 30.6202 90.561C30.6112 90.5572 30.6011 90.5503 30.5921 90.5464C30.5835 90.5423 30.5731 90.5357 30.5644 90.5322C30.5634 90.5315 29.6259 90.2752 29.2909 90.1297C28.9098 89.9644 28.4965 89.8259 28.1518 89.6447L27.0328 89.0561C26.7813 88.914 26.5911 88.7907 26.3528 88.632C26.2333 88.5527 26.1304 88.4817 26.0112 88.4062C25.5785 88.1328 24.6327 87.2134 24.4561 87.1185Z" fill="#633F61"/>
<path fill-rule="evenodd" clip-rule="evenodd" d="M25.1136 69.6848C25.0897 69.823 24.8513 70.2398 24.7505 70.3776C24.5596 70.6399 24.7769 70.2231 24.693 70.448C24.6844 70.9202 24.6719 71.102 24.8302 71.4679C24.9324 71.7045 25.5896 72.1022 26.0053 72.0353C26.5662 71.9449 26.7671 71.6421 27.0159 71.2597C27.1035 71.3234 27.0668 71.1914 27.0789 71.3348C27.0962 71.5372 27.107 71.3445 27.045 71.4017L27.6717 70.3576C27.7714 70.2252 27.8082 70.237 27.9235 70.0399L28.9722 68.766C29.9623 67.7219 29.9935 67.8317 30.7858 67.1624L31.4922 66.686C31.6339 66.6077 31.7239 66.5464 31.8566 66.4768L32.2096 66.263C32.3406 66.1768 32.4497 66.1466 32.5831 66.0624L33.2898 65.6342C33.754 65.3013 34.4854 64.9389 35.0255 64.4758C35.1204 64.3947 35.2125 64.2679 35.3099 64.1913C35.497 64.0434 35.4793 64.1061 35.6245 63.8948C36.141 63.1427 35.8365 62.3864 35.1346 61.9828C34.8141 61.7982 34.0884 61.8997 33.7769 62.1765C33.6695 62.2721 33.5943 62.3726 33.4887 62.4578L32.3361 63.1898C31.3761 63.7538 30.0399 64.4543 29.2119 65.1496C29.0931 65.2494 28.9874 65.2902 28.8738 65.3827L26.1564 68.1411C26.1456 68.1532 26.1027 68.1972 26.0933 68.2076C25.9478 68.3694 25.987 68.4234 25.8082 68.6711L25.3319 69.3338C25.1756 69.6623 25.1981 69.5348 25.1136 69.6848Z" fill="#633F61"/>
<path fill-rule="evenodd" clip-rule="evenodd" d="M36.7888 53.8495C36.9707 53.8274 36.9756 53.7775 37.1425 53.676C37.1509 53.6708 37.1623 53.6645 37.1709 53.6593L37.4294 53.4879C37.4238 53.1685 37.3511 52.734 37.27 52.4468C37.225 52.2871 37.2361 52.0845 37.2184 51.9078C37.1942 51.6677 37.1422 51.6777 37.1024 51.4027C37.0424 50.9863 37.05 51.1806 36.9842 50.9703L36.6274 49.7096C36.4964 49.401 36.5591 49.3739 36.4673 49.1269C36.4109 48.9752 36.3658 48.8089 36.3159 48.6644L35.8909 47.3469C35.8354 46.8879 36.3624 46.0682 37.1734 46.537C37.6379 46.8058 37.8971 47.5413 38.0405 48.0325C38.0932 48.213 38.1507 48.2629 38.2144 48.4611L39.2205 52.1891C39.4903 53.4494 39.172 53.2256 39.9099 53.4494C40.0997 53.5069 39.7789 53.4861 40.1195 53.5145C40.0935 53.1179 39.9518 52.4503 39.8621 52.0363L39.685 51.1612C39.6507 50.813 39.5828 50.9104 39.5499 50.5951C39.509 50.2057 39.4872 50.5338 39.4124 50.0318L39.2655 49.4772C39.2094 49.2894 39.2052 49.4321 39.163 49.2291C39.1207 49.0278 39.1817 49.138 39.0933 48.9482L38.5359 47.402C38.3887 47.0459 38.4507 47.0757 38.1798 46.6624C38.1749 46.6548 38.1676 46.6437 38.1624 46.6361C37.8448 46.1514 37.3466 45.7416 36.7365 45.6979C36.4427 45.6771 36.0454 45.8597 35.7786 46.079L35.33 46.6821C35.2347 46.943 35.2662 47.3806 35.2933 47.6206C35.3231 47.8815 35.5008 48.2647 35.5469 48.4192C35.5919 48.5706 35.5552 48.5383 35.6203 48.6963L36.1063 50.3135C36.1767 50.6634 36.1916 50.5227 36.2501 50.8712C36.3076 51.2125 36.3596 51.1124 36.3911 51.4314C36.4119 51.6431 36.3838 51.5513 36.4504 51.7228C36.591 52.0858 36.4767 52.0308 36.5682 52.3062C36.7421 52.83 36.6059 52.7808 36.741 53.1851C36.8113 53.3957 36.7888 53.5817 36.7888 53.8495Z" fill="#422B41"/>
<path fill-rule="evenodd" clip-rule="evenodd" d="M36.7888 53.8495C36.9707 53.8274 36.9756 53.7775 37.1425 53.676C37.1509 53.6708 37.1623 53.6645 37.1709 53.6593L37.4294 53.4879C37.4238 53.1685 37.3511 52.734 37.27 52.4468C37.225 52.2871 37.2361 52.0845 37.2184 51.9078C37.1942 51.6677 37.1422 51.6777 37.1024 51.4027C37.0424 50.9863 37.05 51.1806 36.9842 50.9703L36.6274 49.7096C36.4964 49.401 36.5591 49.3739 36.4673 49.1269C36.4109 48.9752 36.3658 48.8089 36.3159 48.6644L35.8909 47.3469C35.8354 46.8879 36.3624 46.0682 37.1734 46.537C37.6379 46.8058 37.8971 47.5413 38.0405 48.0325C38.0932 48.213 38.1507 48.2629 38.2144 48.4611L39.2205 52.1891C39.4903 53.4494 39.172 53.2256 39.9099 53.4494C40.0997 53.5069 39.7789 53.4861 40.1195 53.5145C40.0935 53.1179 39.9518 52.4503 39.8621 52.0363L39.685 51.1612C39.6507 50.813 39.5828 50.9104 39.5499 50.5951C39.509 50.2057 39.4872 50.5338 39.4124 50.0318L39.2655 49.4772C39.2094 49.2894 39.2052 49.4321 39.163 49.2291C39.1207 49.0278 39.1817 49.138 39.0933 48.9482L38.5359 47.402C38.3887 47.0459 38.4507 47.0757 38.1798 46.6624C38.1749 46.6548 38.1676 46.6437 38.1624 46.6361C37.8448 46.1514 37.3466 45.7416 36.7365 45.6979C36.4427 45.6771 36.0454 45.8597 35.7786 46.079L35.33 46.6821C35.2347 46.943 35.2662 47.3806 35.2933 47.6206C35.3231 47.8815 35.5008 48.2647 35.5469 48.4192C35.5919 48.5706 35.5552 48.5383 35.6203 48.6963L36.1063 50.3135C36.1767 50.6634 36.1916 50.5227 36.2501 50.8712C36.3076 51.2125 36.3596 51.1124 36.3911 51.4314C36.4119 51.6431 36.3838 51.5513 36.4504 51.7228C36.591 52.0858 36.4767 52.0308 36.5682 52.3062C36.7421 52.83 36.6059 52.7808 36.741 53.1851C36.8113 53.3957 36.7888 53.5817 36.7888 53.8495Z" fill="white"/>
<path fill-rule="evenodd" clip-rule="evenodd" d="M27.045 71.4017C27.107 71.3445 27.0962 71.5372 27.0789 71.3348C27.0668 71.1914 27.1035 71.3234 27.0159 71.2597C26.7671 71.6421 26.5662 71.9449 26.0053 72.0353C25.5896 72.1022 24.9324 71.7045 24.8302 71.4679C24.6719 71.102 24.6844 70.9202 24.693 70.448C24.7769 70.2231 24.5596 70.6399 24.7505 70.3776C24.8513 70.2398 25.0897 69.823 25.1136 69.6848C24.9993 69.7568 25.0966 69.6702 24.9937 69.7838C24.9622 69.8188 24.9452 69.8542 24.922 69.8888C24.8915 69.9339 24.887 69.9418 24.8465 69.9921C24.7426 70.122 24.8299 69.9789 24.7575 70.1116C24.0611 71.3892 25.459 72.7556 26.6687 71.8566C26.8527 71.7197 26.93 71.6047 27.045 71.4017Z" fill="#B8A8B7"/>
</svg>
