<svg width="130" height="130" viewBox="0 0 130 130" fill="none" xmlns="http://www.w3.org/2000/svg">
<path d="M56.6006 67.4572C56.5069 65.3947 55.8819 63.8166 54.7256 62.7228C53.5694 61.5978 52.1475 60.926 50.46 60.7072L50.6944 59.4885C51.5069 59.8635 52.5381 60.1603 53.7881 60.3791C55.0381 60.5978 56.4131 60.7697 57.9131 60.8947C59.4444 60.9885 61.0381 61.0353 62.6944 61.0353C64.3819 61.0353 66.0381 61.0041 67.6631 60.9416C69.3194 60.8478 70.8975 60.7228 72.3975 60.5666C73.9288 60.4103 75.3038 60.2228 76.5225 60.0041C76.3975 60.8166 76.2569 61.7385 76.1006 62.7697C75.9756 63.801 75.8663 64.8322 75.7725 65.8635C75.6788 66.8947 75.6319 67.8947 75.6319 68.8635C75.6319 69.801 75.71 70.6135 75.8663 71.301L74.9288 71.4416C74.4913 69.7541 73.96 68.3166 73.335 67.1291C72.7413 65.9103 71.9288 64.9728 70.8975 64.3166C69.8663 63.6291 68.5694 63.2385 67.0069 63.1447C65.4444 63.051 63.4913 63.2541 61.1475 63.7541C60.9913 66.2541 60.8663 68.4728 60.7725 70.4103C60.6788 72.3478 60.6319 74.2385 60.6319 76.0822C62.1319 75.8635 63.3506 75.5822 64.2881 75.2385C65.2569 74.8947 66.0381 74.4885 66.6319 74.0197C67.2256 73.5197 67.6788 72.9416 67.9913 72.2853C68.335 71.5978 68.6475 70.7853 68.9288 69.8478L70.1006 70.0822C69.8194 71.2697 69.6319 72.3635 69.5381 73.3635C69.4444 74.3635 69.3819 75.3478 69.3506 76.3166C69.3506 77.2853 69.3819 78.2697 69.4444 79.2697C69.5069 80.2385 69.5694 81.2697 69.6319 82.3635L68.6475 82.176C68.585 80.8635 68.2881 79.8791 67.7569 79.2228C67.2256 78.5353 66.5694 78.0822 65.7881 77.8635C65.0069 77.6135 64.1631 77.5353 63.2569 77.6291C62.3506 77.7228 61.4756 77.8635 60.6319 78.051C60.6631 79.5822 60.7256 81.1603 60.8194 82.7853C60.9131 84.3791 61.0538 86.176 61.2413 88.176C61.335 89.3635 61.5069 90.3478 61.7569 91.1291C62.0381 91.9103 62.3663 92.551 62.7413 93.051C63.1163 93.5197 63.5225 93.8791 63.96 94.1291C64.4288 94.3478 64.8975 94.5197 65.3663 94.6447V95.676C64.9288 95.6135 64.1944 95.551 63.1631 95.4885C62.1631 95.426 61.0694 95.4103 59.8819 95.4416C58.6944 95.4728 57.4913 95.5666 56.2725 95.7228C55.085 95.8791 54.0694 96.1447 53.2256 96.5197L52.8975 95.5353C53.6788 95.1916 54.3506 94.8322 54.9131 94.4572C55.4756 94.051 55.9444 93.5822 56.3194 93.051C56.6944 92.4885 56.96 91.8322 57.1163 91.0822C57.3038 90.301 57.3975 89.3635 57.3975 88.2697C57.3975 87.551 57.3819 86.6291 57.3506 85.5041C57.3194 84.3791 57.2725 83.1603 57.21 81.8478C57.1788 80.5353 57.1319 79.176 57.0694 77.7697C57.0069 76.3635 56.9444 75.0197 56.8819 73.7385C56.8194 72.426 56.7569 71.2228 56.6944 70.1291C56.6631 69.0353 56.6319 68.1447 56.6006 67.4572ZM75.5381 95.0666C76.2569 94.8166 76.8506 94.4885 77.3194 94.0822C77.7881 93.676 78.1475 93.2697 78.3975 92.8635C78.71 92.3947 78.9131 91.9103 79.0069 91.4103C79.6944 88.2228 80.0381 85.1916 80.0381 82.3166C80.0381 79.4103 79.8194 76.926 79.3819 74.8635C79.2569 74.2072 79.0225 73.5978 78.6788 73.0353C78.3975 72.5666 78.0069 72.1291 77.5069 71.7228C77.0069 71.2853 76.3663 71.0041 75.585 70.8791L75.5381 70.1291C76.1631 70.1916 76.7413 70.2385 77.2725 70.2697C77.835 70.2697 78.3194 70.2697 78.7256 70.2697H80.0381C80.4131 70.301 80.7881 70.3166 81.1631 70.3166C81.5069 70.3478 81.8506 70.3635 82.1944 70.3635C82.5694 70.3635 82.9288 70.3947 83.2725 70.4572C83.1788 71.5822 83.1006 72.7385 83.0381 73.926C82.9756 75.0822 82.9288 76.1291 82.8975 77.0666C82.835 78.1603 82.8038 79.2228 82.8038 80.2541C82.7413 81.4103 82.6944 82.676 82.6631 84.051C82.6319 85.3947 82.6475 86.676 82.71 87.8947C82.7725 89.1135 82.8819 90.1916 83.0381 91.1291C83.1944 92.0353 83.4444 92.6291 83.7881 92.9103C83.9756 93.0353 84.2256 93.1603 84.5381 93.2853C84.7881 93.4103 85.1163 93.5353 85.5225 93.6603C85.96 93.7853 86.4913 93.9103 87.1163 94.0353L87.1631 94.8322C86.5381 94.801 85.9288 94.801 85.335 94.8322C84.7725 94.8322 84.2725 94.8322 83.835 94.8322C83.3038 94.8635 82.8038 94.8791 82.335 94.8791C81.6788 94.9103 80.9756 94.9728 80.2256 95.0666C79.6006 95.1291 78.8975 95.2072 78.1163 95.301C77.335 95.3947 76.585 95.5041 75.8663 95.6291L75.5381 95.0666ZM80.3663 66.9885C79.3975 67.051 78.6475 66.8322 78.1163 66.3322C77.585 65.801 77.2881 65.2072 77.2256 64.551C77.1631 63.8947 77.335 63.2853 77.7413 62.7228C78.1788 62.1291 78.8663 61.7697 79.8038 61.6447C80.7725 61.5197 81.5381 61.7228 82.1006 62.2541C82.6944 62.7853 83.0381 63.3947 83.1319 64.0822C83.2256 64.7385 83.0538 65.3791 82.6163 66.0041C82.1788 66.5978 81.4288 66.926 80.3663 66.9885ZM107.038 108.707C106.538 109.551 105.944 110.332 105.257 111.051C104.569 111.801 103.804 112.426 102.96 112.926C102.116 113.457 101.226 113.848 100.288 114.098C99.3506 114.348 98.3819 114.442 97.3819 114.379C96.2569 114.285 95.2725 113.988 94.4288 113.488C93.585 112.988 92.8819 112.363 92.3194 111.613C91.7569 110.895 91.3506 110.113 91.1006 109.27C90.8819 108.457 90.8194 107.692 90.9131 106.973C91.0069 106.223 91.2413 105.488 91.6163 104.77C92.0225 104.051 92.5381 103.41 93.1631 102.848C93.7881 102.285 94.5381 101.832 95.4131 101.488C96.2881 101.145 97.2725 100.988 98.3663 101.02C98.8663 101.051 99.3663 101.176 99.8663 101.395C100.366 101.613 100.804 101.91 101.179 102.285C101.585 102.66 101.882 103.098 102.069 103.598C102.288 104.129 102.382 104.676 102.351 105.238C102.288 105.801 102.116 106.363 101.835 106.926C101.585 107.488 101.241 107.988 100.804 108.426C100.398 108.895 99.9131 109.238 99.3506 109.457C98.7881 109.707 98.1944 109.785 97.5694 109.692C96.8819 109.598 96.3663 109.238 96.0225 108.613C95.6788 108.02 95.5225 107.379 95.5538 106.692C95.6163 106.004 95.8663 105.363 96.3038 104.77C96.7725 104.207 97.46 103.895 98.3663 103.832C98.9913 103.801 99.4444 104.02 99.7256 104.488C100.038 104.988 100.069 105.442 99.8194 105.848C99.5381 106.285 99.1475 106.473 98.6475 106.41C98.1475 106.379 97.7881 106.051 97.5694 105.426C97.3194 105.613 97.1163 105.879 96.96 106.223C96.835 106.598 96.7881 106.957 96.8194 107.301C96.8506 107.676 96.9756 107.988 97.1944 108.238C97.4131 108.52 97.7569 108.66 98.2256 108.66C98.7881 108.66 99.2569 108.535 99.6319 108.285C100.038 108.067 100.366 107.77 100.616 107.395C100.866 107.051 101.038 106.676 101.132 106.27C101.257 105.895 101.319 105.551 101.319 105.238C101.319 104.926 101.257 104.582 101.132 104.207C101.007 103.863 100.804 103.535 100.523 103.223C100.241 102.942 99.8663 102.707 99.3975 102.52C98.9288 102.363 98.3506 102.301 97.6631 102.332C97.0381 102.363 96.4131 102.504 95.7881 102.754C95.1944 103.004 94.6475 103.348 94.1475 103.785C93.6475 104.223 93.2413 104.754 92.9288 105.379C92.6163 106.004 92.46 106.692 92.46 107.442C92.46 108.223 92.6163 108.926 92.9288 109.551C93.2725 110.176 93.7256 110.692 94.2881 111.098C94.8506 111.535 95.4913 111.863 96.21 112.082C96.9288 112.332 97.6788 112.442 98.46 112.41C99.21 112.379 100.054 112.098 100.991 111.567C101.929 111.067 102.773 110.285 103.523 109.223C104.273 108.192 104.835 106.848 105.21 105.192C105.616 103.567 105.648 101.598 105.304 99.2853C105.148 98.1916 105.023 97.1447 104.929 96.1447C104.866 95.1447 104.835 94.176 104.835 93.2385C104.429 93.8322 103.944 94.4572 103.382 95.1135C102.851 95.7385 102.241 96.301 101.554 96.801C100.898 97.3322 100.163 97.7541 99.3506 98.0666C98.5381 98.4103 97.6631 98.551 96.7256 98.4885C95.6006 98.426 94.4913 98.1603 93.3975 97.6916C92.335 97.2228 91.3819 96.4416 90.5381 95.3478C89.7256 94.2853 89.085 92.8791 88.6163 91.1291C88.1788 89.3791 88.0381 87.1916 88.1944 84.5666C88.3194 81.9416 88.7881 79.801 89.6006 78.1447C90.4131 76.4885 91.3663 75.2072 92.46 74.301C93.5538 73.3947 94.6944 72.801 95.8819 72.5197C97.1006 72.2072 98.1631 72.0978 99.0694 72.1916C100.413 72.3478 101.726 72.8947 103.007 73.8322C104.319 74.7697 105.335 76.2072 106.054 78.1447C106.304 76.9572 106.538 75.9728 106.757 75.1916C107.007 74.4103 107.116 73.801 107.085 73.3635C108.085 73.6447 109.179 73.801 110.366 73.8322C111.554 73.8635 112.773 73.8322 114.023 73.7385L113.976 74.6291C112.569 74.7541 111.46 75.3478 110.648 76.4103C109.866 77.4416 109.257 79.0978 108.819 81.3791C108.538 82.8166 108.366 84.2072 108.304 85.551C108.241 86.8947 108.226 88.2072 108.257 89.4885C108.288 90.7385 108.351 91.9728 108.444 93.1916C108.569 94.3791 108.679 95.5666 108.773 96.7541C108.835 97.4728 108.882 98.3166 108.913 99.2853C108.944 100.254 108.913 101.27 108.819 102.332C108.726 103.395 108.538 104.473 108.257 105.567C108.007 106.692 107.601 107.738 107.038 108.707ZM105.116 84.8478C105.148 83.8478 105.241 82.8635 105.398 81.8947C105.179 80.2385 104.679 78.8791 103.898 77.8166C103.148 76.7228 101.944 76.0822 100.288 75.8947C99.3194 75.7697 98.3663 75.8947 97.4288 76.2697C96.4913 76.6135 95.6319 77.2072 94.8506 78.051C94.1006 78.8635 93.46 79.926 92.9288 81.2385C92.3975 82.5197 92.0694 84.051 91.9444 85.8322C91.7881 87.6135 91.8506 89.2072 92.1319 90.6135C92.4444 91.9885 92.8975 93.1447 93.4913 94.0822C94.1163 94.9885 94.835 95.6447 95.6475 96.051C96.46 96.4885 97.3038 96.6603 98.1788 96.5666C98.96 96.4416 99.7256 96.1291 100.476 95.6291C101.226 95.1291 101.898 94.5353 102.491 93.8478C103.116 93.1291 103.632 92.3635 104.038 91.551C104.476 90.7072 104.773 89.8791 104.929 89.0666C104.96 88.3791 104.991 87.7072 105.023 87.051C105.054 86.3635 105.085 85.6291 105.116 84.8478Z" fill="black"/>
<path d="M48.1944 55.676C46.4444 55.6135 44.7413 55.1291 43.085 54.2228C41.46 53.3478 40.0225 52.0822 38.7725 50.426C37.5538 48.7385 36.6006 46.676 35.9131 44.2385C35.2256 41.801 34.9444 38.9885 35.0694 35.801C35.1944 32.6135 35.7569 29.7853 36.7569 27.3166C37.7881 24.8478 39.0538 22.801 40.5538 21.176C42.0538 19.5197 43.6944 18.301 45.4756 17.5197C47.2881 16.7385 49.0694 16.4416 50.8194 16.6291C51.8819 16.7541 52.8194 17.051 53.6319 17.5197C54.4444 17.9885 55.1475 18.5666 55.7413 19.2541C56.335 19.9103 56.835 20.6291 57.2413 21.4103C57.6475 22.1603 57.9756 22.8947 58.2256 23.6135C58.4131 23.801 58.6163 23.8947 58.835 23.8947C59.4288 23.926 59.96 23.4885 60.4288 22.5822C60.9288 21.6447 61.3506 20.1135 61.6944 17.9885L63.0069 18.1291C62.7256 19.1916 62.4131 20.426 62.0694 21.8322C61.7569 23.2072 61.46 24.6291 61.1788 26.0978C60.9288 27.5666 60.71 29.0197 60.5225 30.4572C60.3663 31.8947 60.3194 33.1916 60.3819 34.3478C59.9131 34.1603 59.4756 34.0353 59.0694 33.9728C58.6631 33.8791 58.2881 33.8166 57.9444 33.7853C57.5694 33.7541 57.2256 33.7541 56.9131 33.7853C56.9756 31.8478 56.9131 29.9885 56.7256 28.2072C56.5694 26.426 56.2569 24.8635 55.7881 23.5197C55.3194 22.1447 54.6944 21.0353 53.9131 20.1916C53.1631 19.3478 52.2256 18.8791 51.1006 18.7853C50.1006 18.6916 49.0225 18.9103 47.8663 19.4416C46.71 19.9416 45.6163 20.8635 44.585 22.2072C43.5538 23.5197 42.6631 25.2853 41.9131 27.5041C41.1631 29.7228 40.6944 32.4885 40.5069 35.801C40.4131 37.551 40.4756 39.3947 40.6944 41.3322C40.9131 43.2697 41.3506 45.0666 42.0069 46.7228C42.6631 48.3478 43.5538 49.7072 44.6788 50.801C45.8038 51.8635 47.2256 52.3791 48.9444 52.3478C50.2569 52.2541 51.4756 51.9103 52.6006 51.3166C53.5694 50.7853 54.5225 49.9885 55.46 48.926C56.3975 47.8635 57.0694 46.3322 57.4756 44.3322L59.0225 45.2697C58.7725 46.0822 58.3975 47.0978 57.8975 48.3166C57.3975 49.5041 56.71 50.6603 55.835 51.7853C54.9913 52.9103 53.9288 53.8478 52.6475 54.5978C51.3975 55.3791 49.9131 55.7385 48.1944 55.676ZM83.3975 50.5666C83.6163 50.5666 83.835 50.5041 84.0538 50.3791C84.2413 50.2853 84.4131 50.1447 84.5694 49.9572C84.7569 49.7697 84.9131 49.4885 85.0381 49.1135H85.7413C85.71 49.426 85.6163 49.7853 85.46 50.1916C85.3038 50.5666 85.0694 50.926 84.7569 51.2697C84.4444 51.5822 84.0538 51.8478 83.585 52.0666C83.1163 52.2853 82.5694 52.3635 81.9444 52.301C79.9444 52.1135 78.7413 50.176 78.335 46.4885C78.0538 47.2385 77.7256 48.0041 77.3506 48.7853C77.0069 49.5666 76.585 50.2853 76.085 50.9416C75.585 51.5978 74.9913 52.1291 74.3038 52.5353C73.6475 52.9728 72.8506 53.1916 71.9131 53.1916C70.7256 53.1916 69.6788 52.9416 68.7725 52.4416C67.8975 51.9728 67.1631 51.3322 66.5694 50.5197C65.9756 49.7072 65.5538 48.7853 65.3038 47.7541C65.0538 46.6916 64.96 45.5978 65.0225 44.4728C65.1163 42.9103 65.335 41.3322 65.6788 39.7385C66.0225 38.1135 66.2256 36.5978 66.2881 35.1916C66.3819 33.7541 66.21 32.5041 65.7725 31.4416C65.3663 30.3478 64.4444 29.551 63.0069 29.051L63.1944 28.3478C63.6631 28.4416 64.1788 28.5666 64.7413 28.7228C65.3038 28.8791 65.8975 29.0041 66.5225 29.0978C67.1475 29.1916 67.8038 29.2385 68.4913 29.2385C69.21 29.2385 69.9288 29.1447 70.6475 28.9572C70.2725 29.7697 69.9288 30.5353 69.6163 31.2541C69.335 31.9728 69.1006 32.7697 68.9131 33.6447C68.7256 34.5197 68.585 35.5197 68.4913 36.6447C68.3975 37.7697 68.3506 39.1603 68.3506 40.8166C68.3506 42.4728 68.4756 43.8635 68.7256 44.9885C69.0069 46.1135 69.3819 47.0041 69.8506 47.6603C70.3506 48.3166 70.9288 48.7853 71.585 49.0666C72.2413 49.3166 72.9756 49.4103 73.7881 49.3478C74.5694 49.2541 75.2256 48.8947 75.7569 48.2697C76.3194 47.6135 76.7725 46.7697 77.1163 45.7385C77.4913 44.676 77.7725 43.4728 77.96 42.1291C78.1788 40.7853 78.3194 39.3635 78.3819 37.8635C78.4444 36.3635 78.4444 35.0822 78.3819 34.0197C78.3506 32.9572 78.2413 32.0666 78.0538 31.3478C77.8663 30.6291 77.585 30.051 77.21 29.6135C76.835 29.1447 76.335 28.7853 75.71 28.5353L75.8038 27.7853C76.3663 27.7853 77.0381 27.7853 77.8194 27.7853C78.6006 27.7853 79.3819 27.7697 80.1631 27.7385C80.9444 27.676 81.6631 27.5978 82.3194 27.5041C83.0069 27.4103 83.5225 27.2853 83.8663 27.1291C83.335 28.1603 82.8506 29.4728 82.4131 31.0666C82.0069 32.6291 81.6631 34.2853 81.3819 36.0353C81.1006 37.7541 80.9131 39.4885 80.8194 41.2385C80.7256 42.9572 80.7569 44.5197 80.9131 45.926C81.0694 47.301 81.335 48.426 81.71 49.301C82.1163 50.1447 82.6788 50.5666 83.3975 50.5666Z" fill="black"/>
<path d="M98.6183 59.0578C99.3371 59.0578 100.009 58.8078 100.634 58.3078C101.259 57.8078 101.696 56.9641 101.946 55.7766L102.931 56.1516C102.837 56.9016 102.54 57.6672 102.04 58.4484C101.54 59.1984 100.9 59.8391 100.118 60.3703C99.3371 60.9016 98.4465 61.2453 97.4465 61.4016C96.4777 61.5578 95.4777 61.4016 94.4465 60.9328C93.3215 60.4016 92.509 59.7141 92.009 58.8703C91.509 58.0266 91.1965 57.0578 91.0715 55.9641C90.9465 54.8391 90.9308 53.6359 91.0246 52.3547C91.1183 51.0422 91.1652 49.6828 91.1652 48.2766C91.1652 47.4641 91.1496 46.5109 91.1183 45.4172C91.1183 44.2922 91.0871 43.1047 91.0246 41.8547C90.9933 40.6047 90.9308 39.3234 90.8371 38.0109C90.7433 36.6672 90.6496 35.3547 90.5558 34.0734C89.4933 34.1984 88.4777 34.3547 87.509 34.5422C86.5715 34.6984 85.7746 34.9016 85.1183 35.1516C85.0871 34.8703 85.0871 34.6516 85.1183 34.4953C85.1183 34.3391 85.134 34.1984 85.1652 34.0734C85.1652 33.9172 85.1652 33.7609 85.1652 33.6047C85.1652 33.4172 85.134 33.1672 85.0715 32.8547C85.8215 32.7922 86.6496 32.7297 87.5558 32.6672C88.4933 32.6047 89.4465 32.5422 90.4152 32.4797C90.384 32.0422 90.3527 31.6203 90.3215 31.2141C90.2902 30.7766 90.2433 30.3547 90.1808 29.9484C90.0246 28.4797 89.7277 27.3078 89.2902 26.4328C88.884 25.5578 88.4308 24.8859 87.9308 24.4172C87.4308 23.9484 86.9621 23.6359 86.5246 23.4797C86.0871 23.2922 85.759 23.1672 85.5402 23.1047L85.6808 22.2141C86.2746 22.4641 87.009 22.6359 87.884 22.7297C88.759 22.7922 89.6652 22.7922 90.6027 22.7297C91.5715 22.6359 92.509 22.4797 93.4152 22.2609C94.3527 22.0422 95.1652 21.7609 95.8527 21.4172C95.5402 22.2922 95.259 23.6828 95.009 25.5891C94.7902 27.4953 94.6027 29.7141 94.4465 32.2453C96.0715 32.1516 97.2433 32.0266 97.9621 31.8703C97.8058 32.0578 97.7277 32.3703 97.7277 32.8078C97.7277 33.2141 97.7746 33.5891 97.8683 33.9328C97.3371 33.8703 96.7746 33.8391 96.1808 33.8391C95.5871 33.8078 94.9777 33.7922 94.3527 33.7922C94.259 35.6047 94.1965 37.4953 94.1652 39.4641C94.134 41.4328 94.1496 43.3859 94.2121 45.3234C94.3058 47.2297 94.4308 49.1047 94.5871 50.9484C94.7746 52.7609 95.009 54.4328 95.2902 55.9641C95.5402 57.0578 95.9777 57.8391 96.6027 58.3078C97.2277 58.7766 97.8996 59.0266 98.6183 59.0578ZM102.509 47.9016C102.603 46.0578 102.993 44.3391 103.681 42.7453C104.4 41.1516 105.321 39.7922 106.446 38.6672C107.571 37.5109 108.837 36.6359 110.243 36.0422C111.681 35.4484 113.165 35.2453 114.696 35.4328C116.228 35.6203 117.4 36.0891 118.212 36.8391C119.056 37.5891 119.65 38.4328 119.993 39.3703C120.337 40.2766 120.525 41.1828 120.556 42.0891C120.587 42.9953 120.587 43.6984 120.556 44.1984C120.525 44.6672 120.462 45.1828 120.368 45.7453C120.306 46.3078 120.228 46.8703 120.134 47.4328C120.071 47.9641 120.04 48.4797 120.04 48.9797C120.04 49.4484 120.087 49.8391 120.181 50.1516C119.4 49.9016 118.493 49.6359 117.462 49.3547C116.431 49.0422 115.306 48.8078 114.087 48.6516C112.9 48.4953 111.65 48.4484 110.337 48.5109C109.056 48.5422 107.775 48.7609 106.493 49.1672C106.462 50.3547 106.54 51.5422 106.728 52.7297C106.946 53.8859 107.29 54.9953 107.759 56.0578C108.165 56.9641 108.634 57.7609 109.165 58.4484C109.696 59.1359 110.259 59.6672 110.853 60.0422C111.478 60.3859 112.103 60.5734 112.728 60.6047C113.384 60.6359 114.04 60.4484 114.696 60.0422C115.228 59.6672 115.634 59.2141 115.915 58.6828C116.165 58.2453 116.259 57.7141 116.196 57.0891C116.165 56.4641 115.837 55.7453 115.212 54.9328L121.071 54.6516C120.853 55.2766 120.525 56.0578 120.087 56.9953C119.681 57.9328 119.118 58.8391 118.4 59.7141C117.681 60.5891 116.79 61.3234 115.728 61.9172C114.665 62.5109 113.384 62.7766 111.884 62.7141C110.384 62.6203 109.025 62.1359 107.806 61.2609C106.618 60.4172 105.618 59.3078 104.806 57.9328C103.993 56.5578 103.384 55.0109 102.978 53.2922C102.571 51.5422 102.415 49.7453 102.509 47.9016ZM114.134 36.6516C113.259 36.5578 112.4 36.7766 111.556 37.3078C110.743 37.8391 109.993 38.6047 109.306 39.6047C108.65 40.5734 108.087 41.7297 107.618 43.0734C107.15 44.4172 106.821 45.8234 106.634 47.2922C108.415 47.0734 110.071 46.9641 111.603 46.9641C113.134 46.9328 114.556 47.0266 115.868 47.2453C116.212 46.5266 116.525 45.6047 116.806 44.4797C117.087 43.3234 117.212 42.1984 117.181 41.1047C117.15 39.9797 116.9 38.9953 116.431 38.1516C115.993 37.3078 115.228 36.8078 114.134 36.6516Z" fill="black"/>
<path fill-rule="evenodd" clip-rule="evenodd" d="M33.8672 57.3511C33.8643 57.3468 33.8608 57.3418 33.8575 57.337C33.8551 57.3336 33.8528 57.3303 33.8507 57.3274C33.8557 57.3343 33.8622 57.3438 33.8672 57.3511ZM32.8481 55.9349C32.8465 55.9333 32.845 55.9317 32.8436 55.9301L32.8408 55.9271C32.8429 55.9294 32.8454 55.9321 32.8481 55.9349ZM15.1949 72.7411C15.1934 72.7434 15.192 72.7458 15.1906 72.7481C15.1884 72.7517 15.1863 72.7552 15.1844 72.7583C15.1875 72.7533 15.1912 72.747 15.1949 72.7411Z" fill="black"/>
<path fill-rule="evenodd" clip-rule="evenodd" d="M16.1031 88.6147L16.215 88.7231C16.2871 89.003 17.3597 89.8376 17.5187 89.9606L18.3976 90.57C18.4048 90.5748 18.4152 90.5828 18.4225 90.5876L19.3149 91.0616C19.9046 91.4011 20.911 91.7981 21.5522 92.0201C22.3688 92.3035 22.9581 92.421 23.6336 92.6451C23.7656 92.6888 23.9534 92.6721 24.1034 92.7141L24.9584 92.9038C25.124 92.9413 25.2934 92.9302 25.4787 92.9555C25.6713 92.9818 25.6907 93.0404 25.8782 93.0615C26.2277 93.1009 26.5395 93.0776 26.8825 93.1418C27.1163 93.1856 29.1683 93.3462 29.4704 93.2899C29.6671 93.2534 29.602 93.2066 29.9037 93.2055L33.1076 93.1838C33.4779 93.1717 33.7301 93.0806 34.0689 93.0635C34.4268 93.0455 34.7604 93.0725 35.0514 92.9771L37.8 92.4747C38.3117 92.281 38.0259 92.4681 38.4056 92.2973C38.7063 92.1622 40.4132 91.6391 40.8068 91.4083L41.1182 91.2538C41.5568 91.0979 42.655 90.4435 42.9789 90.209C43.5495 89.7957 43.6319 89.7766 44.181 89.2639L45.1251 88.3216C45.2332 88.1906 45.1608 88.2624 45.2269 88.1529C45.343 87.962 45.3132 88.1498 45.5089 87.874L45.9437 87.2563C46.2981 86.7827 46.2919 86.7055 46.5618 86.253C47.0821 85.3804 47.0786 84.966 47.3288 84.3456C47.4566 84.0279 47.6371 83.3263 47.653 83.0551C47.6911 82.4104 47.7192 82.6189 47.7764 82.1176C47.9728 80.3951 47.7199 78.9744 47.5172 77.5329L47.3624 76.9007C47.2945 76.708 47.3399 76.9024 47.2771 76.7375C47.2193 76.5844 47.2941 76.6807 47.1545 76.337L47.0686 75.9826C46.9328 75.6164 46.7707 74.8258 46.6969 74.6291C46.5306 74.187 46.2562 73.5693 46.0431 73.1449L44.8867 71.048C44.7315 70.8093 44.5909 70.6478 44.4561 70.4341C43.9867 69.6906 43.5166 69.2271 43.0281 68.6143C42.8078 68.3381 42.4936 68.0707 42.2583 67.8057L41.3784 67.0667C41.298 66.9995 41.3475 67.0002 41.2308 66.9174L40.274 66.2446C39.6334 65.8185 39.3077 65.6657 38.6675 65.3086C38.5317 65.2327 38.4264 65.1617 38.2771 65.0882L37.7384 64.7473L37.7127 64.7286C37.7055 64.7231 37.6954 64.7148 37.6882 64.7096C37.6809 64.7044 37.6712 64.6961 37.6639 64.6912C37.6015 64.6469 37.5413 64.6205 37.472 64.5845L35.3878 63.1524C35.3064 63.0841 35.3144 63.0817 35.2253 63.0107C34.9354 62.7789 34.4375 62.4754 34.1975 62.1983C34.1781 62.1757 34.1528 62.1466 34.1351 62.1283C34.0416 62.0285 33.9231 61.8958 33.8223 61.8203C33.3598 61.4742 33.5566 61.4046 33.2472 61.133L32.9281 60.7904C32.8155 60.6653 32.7324 60.5811 32.6385 60.4668L31.0383 58.208C30.7709 57.8224 30.7432 57.5966 30.3884 57.6101L29.0747 59.5231C28.888 59.8612 28.5814 60.156 28.3656 60.4855C28.3604 60.4931 28.3541 60.5045 28.3489 60.5118C28.3441 60.5191 28.3372 60.5302 28.332 60.5371L27.038 61.9093C26.9594 61.9869 26.9202 62.0185 26.8378 62.1075C26.4872 62.4851 26.3784 62.5457 25.9852 62.869C25.8522 62.9784 25.6748 63.1402 25.5165 63.2341L24.5752 63.8754C24.4249 63.99 24.279 64.0988 24.1273 64.2107C23.9693 64.3268 23.7995 64.4137 23.6163 64.535C23.2854 64.7536 22.9109 64.907 22.5946 65.136L21.8401 65.5999C21.7611 65.6498 21.6814 65.6886 21.573 65.7246C21.2979 65.8168 20.7935 66.14 20.5784 66.3188L20.1045 66.7189C19.8637 66.9285 19.7868 66.9205 19.2488 67.3969L19.0523 67.5978C18.3695 68.2259 17.6507 68.8966 17.1452 69.6882L16.1696 71.0715C15.9947 71.3002 15.8821 71.5894 15.7716 71.719L15.6746 71.8486C15.387 72.2747 15.3282 72.566 15.2596 72.6585C15.2131 72.7213 15.2689 72.6305 15.2017 72.7303L15.1995 72.7336L15.1949 72.7411L15.1906 72.7481L15.1844 72.7583C15.1808 72.764 15.177 72.771 15.1735 72.7776L15.1719 72.7805L15.1681 72.7874L15.1071 72.9038L14.4097 74.4413C14.3748 74.5296 14.3914 74.5057 14.3682 74.5861L14.1416 75.129C13.9403 75.4868 13.8866 75.9743 13.738 76.3498C13.6247 76.6353 13.4487 77.3832 13.4234 77.6625L13.2184 79.0361C13.1238 79.4743 13.0857 81.739 13.1837 82.2022C13.2381 82.4589 13.2391 82.6605 13.2838 82.9387L13.9978 85.4192C14.073 85.5958 14.1728 85.7483 14.2525 85.9454C14.6038 86.8139 14.7603 86.7917 14.9086 87.0865C15.0901 87.4486 15.713 88.2284 15.906 88.3822L16.0512 88.5298C16.1267 88.6452 16.0207 88.5024 16.1031 88.6147Z" fill="black"/>
<path fill-rule="evenodd" clip-rule="evenodd" d="M12.2102 87.9984C12.1181 87.8768 12.1025 87.7808 12.0259 87.6613L10.8522 85.0772C10.8768 84.7478 10.5446 83.4154 10.4635 82.7686L10.3194 80.2043C10.3277 79.5692 10.4257 79.1341 10.4483 78.5396C10.4787 77.7259 10.9395 75.712 11.2444 74.8674C11.3126 74.6793 11.3382 74.7101 11.377 74.5771L11.7297 73.5167L13.3957 70.2255C13.4283 70.1697 13.4543 70.1053 13.4827 70.0551L13.7827 69.56C13.9339 69.3134 14.0729 69.0893 14.2082 68.8775C14.7167 68.0819 15.1717 67.4619 16.0141 66.4868L16.2379 66.2723C16.2438 66.2658 16.2528 66.2564 16.2594 66.2502C16.2656 66.2436 16.275 66.2346 16.2815 66.2284L17.9673 64.7151C18.1249 64.5973 18.2379 64.5121 18.3931 64.3957C18.9508 63.9769 19.5186 63.628 20.1138 63.2681L21.3554 62.5811C21.4549 62.5319 21.4902 62.5135 21.5827 62.4577C21.7438 62.3604 21.8779 62.2797 22.048 62.1782L22.9996 61.5522C23.0097 61.5442 23.0367 61.5196 23.0467 61.5113C23.3232 61.2892 23.7393 61.0415 24.1962 60.6452C24.2783 60.5738 24.3234 60.535 24.4086 60.463L25.9578 58.9005C25.9779 58.8784 26.0147 58.8337 26.0375 58.8053L26.1778 58.6386C26.1837 58.6317 26.1927 58.6224 26.1983 58.6154L26.8641 57.7033C26.8693 57.696 26.8773 57.6859 26.8828 57.6783L27.0706 57.3839C27.0753 57.3773 27.0822 57.3682 27.0876 57.3612L27.0893 57.3589L27.5632 56.6494C27.6055 56.5867 27.6076 56.5784 27.6519 56.5191L28.394 55.6389C28.4608 55.5786 28.5208 55.5425 28.5478 55.4542C28.7297 55.432 28.7345 55.3821 28.9015 55.2806C28.9098 55.2754 28.9212 55.2692 28.9299 55.264L29.1883 55.0925C29.1828 54.7731 29.1101 54.3387 29.029 54.0515C28.984 53.8918 28.995 53.6891 28.9774 53.5124C28.9531 53.2724 28.9012 53.2824 28.8613 53.0073C28.8014 52.5909 28.809 52.7853 28.7432 52.575L28.3864 51.3143C28.2554 51.0056 28.3181 50.9786 28.2263 50.7316C28.1698 50.5799 28.1248 50.4136 28.0749 50.2691L27.6498 48.9516C27.5944 48.4926 28.1213 47.6729 28.9323 48.1416C29.3969 48.4105 29.656 49.146 29.7995 49.6372C29.8521 49.8177 29.9096 49.8676 29.9734 50.0657L30.9794 53.7937C31.2493 55.0541 30.9309 54.8303 31.6688 55.0541C31.8587 55.1116 31.5379 55.0908 31.8784 55.1192L32.2238 55.3607C32.2398 55.3721 32.3049 55.422 32.3236 55.4362L32.7365 55.8121C32.7916 55.8706 32.7958 55.8786 32.8408 55.9271L32.8436 55.9301L32.8481 55.9349L32.8574 55.9448L32.862 55.9496L32.8834 55.9721L33.1121 56.269C33.1176 56.2766 33.1252 56.287 33.1304 56.2947L33.8507 57.3274L33.8575 57.337L33.8672 57.3511L33.8687 57.3534L35.3719 59.3121C35.4062 59.3502 35.4062 59.352 35.4325 59.3831L35.4526 59.407C35.4581 59.414 35.4665 59.424 35.4724 59.4309L36.8505 60.7259C36.9024 60.7703 36.8858 60.7571 36.9454 60.8063C37.1002 60.9341 37.2284 61.0336 37.3874 61.1531L38.0772 61.6467L38.1049 61.663L38.3405 61.8217L38.3672 61.839L38.4202 61.8733C38.4839 61.9149 38.468 61.9038 38.5262 61.9429L39.4792 62.5239C39.5357 62.5548 39.5586 62.562 39.597 62.5811L40.5909 63.1212C40.6685 63.1614 40.619 63.1361 40.7011 63.1863L41.5578 63.6879C41.5689 63.6952 41.5994 63.7163 41.6101 63.7233L44.4236 65.9935C44.4731 66.0402 44.4953 66.0569 44.5393 66.0971L45.9898 67.7142L46.0099 67.7381L46.0303 67.7617L46.0508 67.7849L48.4568 71.5583C48.5143 71.6705 48.5191 71.711 48.5836 71.8257C48.7914 72.1936 48.9296 72.6239 49.1115 73.0067C49.123 73.0306 49.1489 73.0795 49.168 73.1259L49.229 73.2839C49.274 73.3823 49.2331 73.262 49.2872 73.401L49.4486 73.8531C49.4521 73.8645 49.4541 73.8766 49.4576 73.888L49.9634 75.3982C50.0019 75.5485 49.9745 75.5776 50.0275 75.7283L50.6355 79.3274V82.3515C50.6341 82.3657 50.6324 82.3785 50.6306 82.3903C50.605 82.5628 50.5679 82.5036 50.5496 82.7034C50.4734 83.5307 50.385 83.6423 50.2665 84.349C50.2035 84.7256 50.0569 85.0602 49.9721 85.4129L49.5688 86.5L49.5676 86.5036C49.5645 86.513 49.5611 86.5233 49.5574 86.5323L48.1127 89.1194L46.7097 90.7841C46.6844 90.8107 46.6189 90.8766 46.6006 90.8942L46.3044 91.1676C46.2742 91.1946 46.2666 91.2001 46.2351 91.2299L45.4895 91.8868C45.0534 92.227 44.6075 92.5685 44.1301 92.8499L44.1024 92.8661C44.0941 92.871 44.0834 92.8779 44.0754 92.8828L43.528 93.2121C43.5197 93.2169 43.5086 93.2232 43.5003 93.2281L42.9363 93.5405C42.8324 93.6041 42.9138 93.5612 42.7967 93.62L42.4121 93.8052C42.3252 93.8437 42.2476 93.8708 42.1662 93.9098C42.0661 93.9577 42.1107 93.9445 42.0234 93.9862C41.9805 94.0067 41.9406 94.0195 41.8984 94.0366C41.7383 94.1011 41.7778 94.1035 41.6302 94.1628C41.5831 94.1817 41.5765 94.1795 41.5329 94.1971C41.5232 94.2011 41.5114 94.2055 41.5017 94.2096C41.4924 94.2137 41.4809 94.2191 41.4716 94.2234L38.777 95.1224C38.5962 95.1586 38.5844 95.1949 38.4811 95.2208L37.2291 95.5028C37.1096 95.5197 37.013 95.525 36.881 95.549C36.6696 95.5875 36.5078 95.6655 36.2605 95.6734C36.0208 95.6811 36.1008 95.674 35.921 95.7286C35.5628 95.8376 35.2617 95.7929 34.9201 95.8672C34.4968 95.9592 33.9432 95.9465 33.5264 96.0072C33.0601 96.0751 32.5758 96.0686 32.0541 96.0686C31.4994 96.0686 31.0837 96.1131 30.5637 96.1125C30.0226 96.1118 29.6152 96.0686 29.0737 96.0686C28.5322 96.0687 28.068 96.0541 27.585 96.0234C27.3283 96.0071 27.161 95.9379 26.8842 95.9355C26.5766 95.9328 26.4453 95.9288 26.183 95.8918L25.4801 95.8056C25.2237 95.7951 25.0547 95.702 24.8614 95.6794C24.729 95.6639 24.6272 95.6793 24.4886 95.6579C24.3535 95.6371 24.2783 95.6035 24.1775 95.5745C23.9693 95.5143 23.7479 95.5297 23.5394 95.4677L21.9866 95.092L19.4573 94.2031C19.4473 94.199 19.4351 94.1953 19.4251 94.1915C18.5926 93.8877 17.8045 93.4362 17.0416 92.9812L16.7943 92.834L14.6148 91.0616C14.5629 90.9341 13.6736 90.0271 13.5925 89.946C13.2703 89.6232 12.9131 89.0924 12.6554 88.6853L12.4264 88.3455C12.3242 88.1751 12.3332 88.1612 12.2102 87.9984ZM16.1031 88.6147L16.215 88.7231C16.2871 89.003 17.3597 89.8376 17.5187 89.9606L18.3976 90.57C18.4048 90.5748 18.4152 90.5828 18.4225 90.5876L19.3149 91.0616C19.9046 91.4011 20.911 91.7981 21.5522 92.0201C22.3688 92.3035 22.9581 92.421 23.6336 92.6451C23.7656 92.6888 23.9534 92.6721 24.1034 92.7141L24.9584 92.9038C25.124 92.9413 25.2934 92.9302 25.4787 92.9555C25.6713 92.9818 25.6907 93.0404 25.8782 93.0615C26.2277 93.1009 26.5395 93.0776 26.8825 93.1418C27.1163 93.1856 29.1683 93.3462 29.4704 93.2899C29.6671 93.2534 29.602 93.2066 29.9037 93.2055L33.1076 93.1838C33.4779 93.1717 33.7301 93.0806 34.0689 93.0635C34.4268 93.0455 34.7604 93.0725 35.0514 92.9771L37.8 92.4747C38.3117 92.281 38.0259 92.4681 38.4056 92.2973C38.7063 92.1622 40.4132 91.6391 40.8068 91.4083L41.1182 91.2538C41.5568 91.0979 42.655 90.4435 42.9789 90.209C43.5495 89.7957 43.6319 89.7766 44.181 89.2639L45.1251 88.3216C45.2332 88.1906 45.1608 88.2624 45.2269 88.1529C45.343 87.962 45.3132 88.1498 45.5089 87.874L45.9437 87.2563C46.2981 86.7827 46.2919 86.7055 46.5618 86.253C47.0821 85.3804 47.0786 84.966 47.3288 84.3456C47.4566 84.0279 47.6371 83.3263 47.653 83.0551C47.6911 82.4104 47.7192 82.6189 47.7764 82.1176C47.9728 80.3951 47.7199 78.9744 47.5172 77.5329L47.3624 76.9007C47.2945 76.708 47.3399 76.9024 47.2771 76.7375C47.2193 76.5844 47.2941 76.6807 47.1545 76.337L47.0686 75.9826C46.9328 75.6164 46.7707 74.8258 46.6969 74.6291C46.5306 74.187 46.2562 73.5693 46.0431 73.1449L44.8867 71.048C44.7315 70.8093 44.5909 70.6478 44.4561 70.4341C43.9867 69.6906 43.5166 69.2271 43.0281 68.6143C42.8078 68.3381 42.4936 68.0707 42.2583 67.8057L41.3784 67.0667C41.298 66.9995 41.3475 67.0002 41.2308 66.9174L40.274 66.2446C39.6334 65.8185 39.3077 65.6657 38.6675 65.3086C38.5317 65.2327 38.4264 65.1617 38.2771 65.0882L37.7384 64.7473L37.7127 64.7286C37.7055 64.7231 37.6954 64.7148 37.6882 64.7096C37.6809 64.7044 37.6712 64.6961 37.6639 64.6912C37.6015 64.6469 37.5413 64.6205 37.472 64.5845L35.3878 63.1524C35.3064 63.0841 35.3144 63.0817 35.2253 63.0107C34.9354 62.7789 34.4375 62.4754 34.1975 62.1983C34.1781 62.1757 34.1528 62.1466 34.1351 62.1283C34.0416 62.0285 33.9231 61.8958 33.8223 61.8203C33.3598 61.4742 33.5566 61.4046 33.2472 61.133L32.9281 60.7904C32.8155 60.6653 32.7324 60.5811 32.6385 60.4668L31.0383 58.208C30.7709 57.8224 30.7432 57.5966 30.3884 57.6101L29.0747 59.5231C28.888 59.8612 28.5814 60.156 28.3656 60.4855C28.3604 60.4931 28.3541 60.5045 28.3489 60.5118C28.3441 60.5191 28.3372 60.5302 28.332 60.5371L27.038 61.9093C26.9594 61.9869 26.9202 62.0185 26.8378 62.1075C26.4872 62.4851 26.3784 62.5457 25.9852 62.869C25.8522 62.9784 25.6748 63.1402 25.5165 63.2341L24.5752 63.8754C24.4249 63.99 24.279 64.0988 24.1273 64.2107C23.9693 64.3268 23.7995 64.4137 23.6163 64.535C23.2854 64.7536 22.9109 64.907 22.5946 65.136L21.8401 65.5999C21.7611 65.6498 21.6814 65.6886 21.573 65.7246C21.2979 65.8168 20.7935 66.14 20.5784 66.3188L20.1045 66.7189C19.8637 66.9285 19.7868 66.9205 19.2488 67.3969L19.0523 67.5978C18.3695 68.2259 17.6507 68.8966 17.1452 69.6882L16.1696 71.0715C15.9947 71.3002 15.8821 71.5894 15.7716 71.719L15.6746 71.8486C15.387 72.2747 15.3282 72.566 15.2596 72.6585C15.2131 72.7213 15.2689 72.6305 15.2017 72.7303L15.1995 72.7336L15.1949 72.7411L15.1906 72.7481L15.1844 72.7583C15.1808 72.764 15.177 72.771 15.1735 72.7776L15.1719 72.7805L15.1681 72.7874L15.1071 72.9038L14.4097 74.4413C14.3748 74.5296 14.3914 74.5057 14.3682 74.5861L14.1416 75.129C13.9403 75.4868 13.8866 75.9743 13.738 76.3498C13.6247 76.6353 13.4487 77.3832 13.4234 77.6625L13.2184 79.0361C13.1238 79.4743 13.0857 81.739 13.1837 82.2022C13.2381 82.4589 13.2391 82.6605 13.2838 82.9387L13.9978 85.4192C14.073 85.5958 14.1728 85.7483 14.2525 85.9454C14.6038 86.8139 14.7603 86.7917 14.9086 87.0865C15.0901 87.4486 15.713 88.2284 15.906 88.3822L16.0512 88.5298C16.1267 88.6452 16.0207 88.5024 16.1031 88.6147Z" fill="black"/>
<path fill-rule="evenodd" clip-rule="evenodd" d="M18.8039 73.0063C18.6889 73.2094 18.6117 73.3244 18.4277 73.4612C17.218 74.3602 15.8201 72.9939 16.5164 71.7162C16.5888 71.5835 16.5015 71.7266 16.6055 71.5967C16.646 71.5465 16.6505 71.5385 16.681 71.4935C16.7042 71.4588 16.7212 71.4235 16.7527 71.3885C16.8556 71.2749 16.7582 71.3615 16.8726 71.2894C16.9571 71.1394 16.9346 71.2669 17.0908 70.9385L17.5672 70.2757C17.7459 70.028 17.7068 69.974 17.8523 69.8122C17.8616 69.8018 17.9046 69.7578 17.9153 69.7457L20.6328 66.9874C20.7464 66.8949 20.8521 66.854 20.9709 66.7542C21.7989 66.0589 23.1351 65.3584 24.095 64.7944L25.2476 64.0624C25.3533 63.9772 25.4285 63.8767 25.5359 63.7811C25.8473 63.5043 26.5731 63.4028 26.8936 63.5875C27.5954 63.9911 27.9 64.7473 27.3834 65.4994C27.2383 65.7108 27.2559 65.6481 27.0688 65.796C26.9715 65.8725 26.8794 65.9993 26.7844 66.0804C26.2443 66.5436 25.513 66.906 25.0488 67.2389L24.3421 67.6671C24.2087 67.7513 24.0996 67.7814 23.9686 67.8677L23.6156 68.0814C23.4829 68.1511 23.3928 68.2124 23.2511 68.2907L22.5447 68.767C21.7525 69.4363 21.7213 69.3265 20.7312 70.3707L19.6825 71.6445C19.5671 71.8416 19.5304 71.8299 19.4306 71.9622L18.8039 73.0063ZM16.215 88.7231C16.3917 88.818 17.3375 89.7375 17.7702 90.0108C17.8893 90.0863 17.9922 90.1573 18.1118 90.2367C18.3501 90.3953 18.5403 90.5187 18.7918 90.6607L19.9108 91.2493C20.2555 91.4305 20.6688 91.5691 21.0499 91.7343C21.3849 91.8798 22.3223 92.1362 22.3234 92.1369C22.332 92.1403 22.3424 92.1469 22.3511 92.1511C22.3601 92.1549 22.3701 92.1618 22.3792 92.1656C22.3882 92.1698 22.3986 92.176 22.4079 92.1798L22.7377 92.282C22.9941 92.3884 24.2561 92.6219 24.5035 92.7036L25.4344 92.8783C26.1595 92.9696 28.9129 93.2867 29.4163 93.1755L29.5746 92.8848C29.5867 92.8236 29.6075 92.7587 29.6262 92.6751C29.6668 92.4958 29.637 92.5027 29.7198 92.3288C29.8868 91.9799 30.0042 91.8258 30.2495 91.5905C30.7182 91.1416 31.2004 91.0186 31.8361 90.9386C32.2352 90.888 32.5387 90.9237 32.8772 90.8294L35.551 90.1951C35.8281 90.1327 36.1219 89.9976 36.4368 89.9374C37.1138 89.8074 39.3226 88.8024 39.9438 88.4013C40.0605 88.3257 40.1465 88.2793 40.2722 88.2048C41.0164 87.7642 42.1534 86.835 42.6768 86.1387C43.2103 85.4288 42.8878 85.8404 43.1261 85.4378C43.1306 85.4302 43.1379 85.4198 43.1428 85.4126L43.1798 85.3661C43.1854 85.3592 43.1944 85.3499 43.1999 85.3429C43.4331 85.054 43.765 84.3663 43.9306 84.0119C44.214 83.4063 44.1111 83.4157 44.198 83.1798C44.3698 82.7121 44.5296 81.7473 44.5472 81.3011C44.5729 80.6595 44.5943 79.6901 44.5351 79.0634C44.5147 78.8476 44.4814 78.9657 44.4513 78.585C44.3944 77.8689 44.3182 77.817 44.2922 77.6164C44.2573 77.3468 44.2767 76.8431 44.3615 76.594C44.4679 76.2805 44.5278 76.1419 44.7606 75.8634C45.3271 75.1858 45.7469 74.9939 46.6639 75.0074C46.666 74.8411 46.5811 74.5934 46.5195 74.4576L46.2139 73.7581C45.8786 73.0642 45.1885 71.6154 44.7696 71.0771C44.6276 70.8941 44.5826 70.8075 44.4578 70.6083C44.0629 69.9768 43.4736 69.2718 43.0153 68.7594C42.735 68.4459 42.5001 68.1895 42.2053 67.9058C41.9652 67.6751 41.4258 67.2503 41.3784 67.0667C41.298 66.9995 41.3475 67.0002 41.2308 66.9174L40.2739 66.2446C39.6334 65.8185 39.3077 65.6657 38.6675 65.3086C38.5317 65.2327 38.4264 65.1617 38.2771 65.0882L37.7384 64.7473C37.7308 64.7418 37.7204 64.7342 37.7127 64.7286C37.7055 64.7231 37.6954 64.7148 37.6881 64.7096C37.6809 64.7044 37.6712 64.696 37.6639 64.6912C37.6015 64.6469 37.5413 64.6205 37.472 64.5845L35.3878 63.1523C35.3064 63.0841 35.3144 63.0817 35.2253 63.0106C34.9354 62.7789 34.4375 62.4754 34.1975 62.1982C34.1781 62.1757 34.1528 62.1466 34.1351 62.1283C34.0416 62.0285 33.9231 61.8958 33.8223 61.8203C33.3598 61.4742 33.5566 61.4046 33.2472 61.133L32.9281 60.7903C32.8155 60.6653 32.7324 60.5811 32.6385 60.4668L31.0383 58.208C30.7709 57.8224 30.7432 57.5965 30.3884 57.6101L29.0747 59.5231C28.888 59.8612 28.5814 60.156 28.3656 60.4855C28.3604 60.4931 28.3541 60.5045 28.3489 60.5118C28.3441 60.5191 28.3371 60.5302 28.332 60.5371L27.038 61.9093C26.9594 61.9869 26.9202 62.0185 26.8378 62.1075C26.4872 62.4851 26.3784 62.5457 25.9852 62.8689C25.8522 62.9784 25.6748 63.1402 25.5165 63.2341L24.5752 63.8753C24.4249 63.99 24.279 64.0988 24.1273 64.2107C23.9693 64.3268 23.7995 64.4137 23.6163 64.535C23.2854 64.7536 22.9109 64.907 22.5946 65.136L21.8401 65.5999C21.7611 65.6498 21.6814 65.6886 21.573 65.7246C21.2979 65.8168 20.7935 66.14 20.5784 66.3188L20.1045 66.7189C19.8637 66.9285 19.7868 66.9205 19.2488 67.3969L19.0523 67.5978C18.3695 68.2259 17.6506 68.8966 17.1452 69.6882L16.1696 71.0715C15.9947 71.3002 15.8821 71.5894 15.7716 71.719L15.6746 71.8486C15.387 72.2747 15.3281 72.566 15.2596 72.6585C15.2131 72.7212 15.2689 72.6305 15.2017 72.7302C15.1962 72.7386 15.1896 72.75 15.1844 72.7583C15.1788 72.767 15.1729 72.7787 15.1681 72.7874C15.1664 72.7905 15.1109 72.8965 15.1071 72.9038L14.4097 74.4413C14.3748 74.5296 14.3914 74.5057 14.3682 74.5861L14.1416 75.129C13.9403 75.4868 13.8866 75.9743 13.738 76.3498C13.6247 76.6353 13.4487 77.3832 13.4234 77.6624L13.2184 79.0361C13.1238 79.4743 13.0857 81.739 13.1837 82.2021C13.2381 82.4588 13.2391 82.6605 13.2838 82.9387L13.9978 85.4191C14.073 85.5958 14.1728 85.7483 14.2525 85.9454C14.6037 86.8139 14.7603 86.7917 14.9086 87.0865C15.0901 87.4486 15.713 88.2284 15.906 88.3822L16.0512 88.5298C16.1267 88.6451 16.0207 88.5024 16.1031 88.6147L16.215 88.7231Z" fill="#633F61"/>
<path fill-rule="evenodd" clip-rule="evenodd" d="M16.215 88.7231C16.2871 89.0031 17.3596 89.8376 17.5187 89.9606L18.3976 90.57C18.4048 90.5748 18.4152 90.5828 18.4225 90.5877L19.3149 91.0616C19.9046 91.4011 20.911 91.7981 21.5522 92.0202C22.3688 92.3035 22.958 92.421 23.6336 92.6451C23.7656 92.6889 23.9534 92.6722 24.1034 92.7141L24.9584 92.9038C25.124 92.9413 25.2934 92.9302 25.4787 92.9555C25.6713 92.9818 25.6907 93.0404 25.8782 93.0615C26.2277 93.1009 26.5395 93.0776 26.8825 93.1418C27.1163 93.1856 29.1683 93.3462 29.4703 93.29C29.6671 93.2534 29.602 93.2066 29.9037 93.2055L33.1076 93.1838C33.4779 93.1717 33.7301 93.0806 34.0689 93.0635C34.4268 93.0455 34.7604 93.0726 35.0514 92.9772L37.8 92.4747C38.3117 92.281 38.0259 92.4681 38.4056 92.2973C38.7063 92.1622 40.4132 91.6391 40.8068 91.4084L41.1182 91.2538C41.5568 91.098 42.655 90.4435 42.9789 90.209C43.5495 89.7957 43.6319 89.7766 44.181 89.2639L45.1251 88.3216C45.2332 88.1907 45.1608 88.2624 45.2269 88.1529C45.343 87.962 45.3132 88.1498 45.5089 87.874L45.9437 87.2563C46.2981 86.7827 46.2919 86.7055 46.5618 86.253C47.0821 85.3804 47.0786 84.966 47.3288 84.3456C47.4566 84.0279 47.6371 83.3264 47.653 83.0551C47.6911 82.4104 47.7192 82.6189 47.7764 82.1176C47.9728 80.3952 47.7199 78.9744 47.5172 77.5329L47.3624 76.9007C47.2945 76.7081 47.3398 76.9024 47.2771 76.7375C47.2193 76.5844 47.2941 76.6807 47.1545 76.337L47.0686 75.9826C46.9328 75.6164 46.7707 74.8259 46.6969 74.6291C46.5306 74.187 46.2562 73.5693 46.0431 73.145L44.8867 71.048C44.7315 70.8093 44.5909 70.6479 44.4561 70.4341C43.9867 69.6907 43.5166 69.2271 43.0281 68.6143C42.8078 68.3382 42.4936 68.0707 42.2583 67.8057L41.3784 67.0667C41.4258 67.2504 41.9652 67.6751 42.2053 67.9058C42.5001 68.1895 42.735 68.4459 43.0153 68.7594C43.4736 69.2718 44.0629 69.9768 44.4578 70.6084C44.5826 70.8076 44.6276 70.8942 44.7696 71.0771C45.1885 71.6154 45.8786 73.0642 46.2139 73.7582L46.5195 74.4576C46.5811 74.5934 46.666 74.8411 46.6639 75.0074C45.7469 74.9939 45.3271 75.1858 44.7606 75.8634C44.5278 76.142 44.4679 76.2806 44.3615 76.5941C44.2767 76.8432 44.2573 77.3469 44.2922 77.6164C44.3182 77.817 44.3944 77.869 44.4513 78.585C44.4814 78.9658 44.5147 78.8476 44.5351 79.0635C44.5943 79.6902 44.5729 80.6595 44.5472 81.3011C44.5296 81.7473 44.3698 82.7121 44.198 83.1798C44.1111 83.4157 44.214 83.4064 43.9306 84.012C43.765 84.3664 43.4331 85.054 43.1999 85.343C43.1944 85.3499 43.1854 85.3592 43.1798 85.3662L43.1428 85.4126C43.1379 85.4199 43.1306 85.4303 43.1261 85.4379C42.8878 85.8404 43.2103 85.4289 42.6768 86.1387C42.1534 86.8351 41.0164 87.7642 40.2722 88.2049C40.1465 88.2794 40.0605 88.3258 39.9438 88.4013C39.3226 88.8025 37.1138 89.8075 36.4368 89.9374C36.1219 89.9977 35.8281 90.1328 35.551 90.1951L32.8772 90.8295C32.5387 90.9237 32.2352 90.888 31.8362 90.9386C31.2004 91.0186 30.7182 91.1416 30.2495 91.5906C30.0042 91.8258 29.8868 91.98 29.7198 92.3288C29.637 92.5027 29.6668 92.4958 29.6262 92.6752C29.6075 92.7587 29.5867 92.8236 29.5746 92.8848L29.4163 93.1756C28.9129 93.2867 26.1595 92.9696 25.4344 92.8783L24.5035 92.7037C24.2561 92.6219 22.9941 92.3884 22.7377 92.2821L22.4079 92.1799C22.3986 92.1761 22.3882 92.1698 22.3792 92.1657C22.3701 92.1619 22.3601 92.1549 22.3511 92.1511C22.3424 92.147 22.332 92.1404 22.3234 92.1369C22.3223 92.1362 21.3849 91.8799 21.0499 91.7344C20.6688 91.5691 20.2555 91.4305 19.9108 91.2493L18.7918 90.6607C18.5403 90.5187 18.3501 90.3954 18.1118 90.2367C17.9922 90.1574 17.8893 90.0864 17.7702 90.0108C17.3375 89.7375 16.3917 88.8181 16.215 88.7231Z" fill="#432C43"/>
<path fill-rule="evenodd" clip-rule="evenodd" d="M16.8726 71.2894C16.8486 71.4277 16.6103 71.8444 16.5095 71.9823C16.3186 72.2445 16.5358 71.8278 16.452 72.0526C16.4433 72.5248 16.4308 72.7067 16.5892 73.0725C16.6914 73.3091 17.3486 73.7069 17.7643 73.64C18.3252 73.5496 18.5261 73.2468 18.7748 72.8643C18.8625 72.9281 18.8258 72.7961 18.8379 72.9395C18.8552 73.1418 18.8659 72.9492 18.8039 73.0064L19.4306 71.9622C19.5304 71.8299 19.5671 71.8416 19.6825 71.6445L20.7312 70.3707C21.7213 69.3265 21.7524 69.4363 22.5447 68.767L23.2511 68.2907C23.3928 68.2124 23.4829 68.1511 23.6156 68.0814L23.9686 67.8677C24.0995 67.7814 24.2087 67.7513 24.3421 67.6671L25.0488 67.2389C25.513 66.906 26.2443 66.5436 26.7844 66.0804C26.8793 65.9994 26.9715 65.8726 27.0688 65.796C27.2559 65.6481 27.2383 65.7108 27.3834 65.4994C27.8999 64.7473 27.5954 63.9911 26.8936 63.5875C26.5731 63.4028 25.8473 63.5043 25.5359 63.7811C25.4285 63.8767 25.3533 63.9772 25.2476 64.0624L24.095 64.7944C23.1351 65.3584 21.7989 66.0589 20.9709 66.7542C20.8521 66.854 20.7464 66.8949 20.6328 66.9874L17.9153 69.7457C17.9046 69.7578 17.8616 69.8018 17.8523 69.8122C17.7068 69.974 17.7459 70.0281 17.5672 70.2758L17.0908 70.9385C16.9346 71.2669 16.9571 71.1394 16.8726 71.2894Z" fill="#FDFDFD"/>
<path fill-rule="evenodd" clip-rule="evenodd" d="M28.5478 55.4542C28.7297 55.4321 28.7345 55.3822 28.9015 55.2807C28.9098 55.2755 28.9213 55.2692 28.9299 55.264L29.1884 55.0925C29.1828 54.7731 29.1101 54.3387 29.029 54.0515C28.984 53.8918 28.995 53.6891 28.9774 53.5125C28.9531 53.2724 28.9012 53.2824 28.8613 53.0073C28.8014 52.5909 28.809 52.7853 28.7432 52.575L28.3864 51.3143C28.2554 51.0056 28.3181 50.9786 28.2263 50.7316C28.1698 50.5799 28.1248 50.4136 28.0749 50.2691L27.6498 48.9516C27.5944 48.4926 28.1213 47.6729 28.9323 48.1417C29.3969 48.4105 29.656 49.146 29.7995 49.6372C29.8521 49.8177 29.9096 49.8676 29.9734 50.0658L30.9794 53.7938C31.2493 55.0541 30.9309 54.8303 31.6688 55.0541C31.8587 55.1116 31.5379 55.0908 31.8784 55.1192C31.8524 54.7225 31.7107 54.055 31.621 53.641L31.444 52.7659C31.4097 52.4177 31.3418 52.5151 31.3089 52.1998C31.268 51.8104 31.2462 52.1385 31.1714 51.6365L31.0245 51.0819C30.9683 50.8941 30.9642 51.0368 30.9219 50.8338C30.8797 50.6325 30.9406 50.7427 30.8523 50.5528L30.2949 49.0067C30.1476 48.6506 30.2096 48.6804 29.9387 48.2671C29.9339 48.2594 29.9266 48.2484 29.9214 48.2407C29.6037 47.7561 29.1056 47.3462 28.4955 47.3026C28.2017 47.2818 27.8043 47.4644 27.5376 47.6837L27.089 48.2868C26.9937 48.5477 27.0252 48.9852 27.0522 49.2253C27.082 49.4862 27.2597 49.8693 27.3058 50.0238C27.3509 50.1752 27.3141 50.143 27.3793 50.301L27.8653 51.9182C27.9356 52.2681 27.9505 52.1274 28.0091 52.4759C28.0666 52.8172 28.1186 52.717 28.1501 53.0361C28.1709 53.2478 28.1428 53.156 28.2093 53.3275C28.35 53.6905 28.2357 53.6354 28.3271 53.9109C28.501 54.4347 28.3649 54.3855 28.5 54.7898C28.5703 55.0004 28.5478 55.1864 28.5478 55.4542Z" fill="#422B41"/>
<path fill-rule="evenodd" clip-rule="evenodd" d="M18.8039 73.0064C18.8659 72.9492 18.8552 73.1418 18.8379 72.9395C18.8258 72.7961 18.8625 72.9281 18.7748 72.8643C18.5261 73.2468 18.3252 73.5496 17.7643 73.64C17.3486 73.7069 16.6914 73.3092 16.5892 73.0725C16.4308 72.7067 16.4433 72.5248 16.452 72.0526C16.5358 71.8278 16.3186 72.2446 16.5095 71.9823C16.6103 71.8444 16.8487 71.4277 16.8726 71.2894C16.7582 71.3615 16.8556 71.2749 16.7527 71.3885C16.7212 71.4235 16.7042 71.4588 16.681 71.4935C16.6505 71.5385 16.646 71.5465 16.6055 71.5967C16.5015 71.7266 16.5888 71.5836 16.5164 71.7162C15.8201 72.9939 17.218 74.3602 18.4277 73.4612C18.6117 73.3244 18.6889 73.2094 18.8039 73.0064Z" fill="#B8A8B7"/>
<path d="M124.061 21.4209C112.364 -8.88857 32.724 -1.09089 13.259 16.6606C-6.20608 34.4121 0.359902 94.1658 13.259 106.782C26.158 119.399 98.6772 138.599 110.759 122.539C122.841 106.478 135.759 51.7303 124.061 21.4209Z" stroke="black" stroke-width="2"/>
</svg>
