<svg width="196" height="67" viewBox="0 0 196 67" fill="none" xmlns="http://www.w3.org/2000/svg">
<path d="M138.281 19.1562C138.188 17.0938 137.562 15.5156 136.406 14.4219C135.25 13.2969 133.828 12.625 132.141 12.4062L132.375 11.1875C133.188 11.5625 134.219 11.8594 135.469 12.0781C136.719 12.2969 138.094 12.4688 139.594 12.5938C141.125 12.6875 142.719 12.7344 144.375 12.7344C146.062 12.7344 147.719 12.7031 149.344 12.6406C151 12.5469 152.578 12.4219 154.078 12.2656C155.609 12.1094 156.984 11.9219 158.203 11.7031C158.078 12.5156 157.938 13.4375 157.781 14.4688C157.656 15.5 157.547 16.5312 157.453 17.5625C157.359 18.5938 157.312 19.5938 157.312 20.5625C157.312 21.5 157.391 22.3125 157.547 23L156.609 23.1406C156.172 21.4531 155.641 20.0156 155.016 18.8281C154.422 17.6094 153.609 16.6719 152.578 16.0156C151.547 15.3281 150.25 14.9375 148.688 14.8438C147.125 14.75 145.172 14.9531 142.828 15.4531C142.672 17.9531 142.547 20.1719 142.453 22.1094C142.359 24.0469 142.312 25.9375 142.312 27.7812C143.812 27.5625 145.031 27.2812 145.969 26.9375C146.938 26.5938 147.719 26.1875 148.312 25.7188C148.906 25.2188 149.359 24.6406 149.672 23.9844C150.016 23.2969 150.328 22.4844 150.609 21.5469L151.781 21.7812C151.5 22.9688 151.312 24.0625 151.219 25.0625C151.125 26.0625 151.062 27.0469 151.031 28.0156C151.031 28.9844 151.062 29.9688 151.125 30.9688C151.188 31.9375 151.25 32.9688 151.312 34.0625L150.328 33.875C150.266 32.5625 149.969 31.5781 149.438 30.9219C148.906 30.2344 148.25 29.7812 147.469 29.5625C146.688 29.3125 145.844 29.2344 144.938 29.3281C144.031 29.4219 143.156 29.5625 142.312 29.75C142.344 31.2812 142.406 32.8594 142.5 34.4844C142.594 36.0781 142.734 37.875 142.922 39.875C143.016 41.0625 143.188 42.0469 143.438 42.8281C143.719 43.6094 144.047 44.25 144.422 44.75C144.797 45.2188 145.203 45.5781 145.641 45.8281C146.109 46.0469 146.578 46.2188 147.047 46.3438V47.375C146.609 47.3125 145.875 47.25 144.844 47.1875C143.844 47.125 142.75 47.1094 141.562 47.1406C140.375 47.1719 139.172 47.2656 137.953 47.4219C136.766 47.5781 135.75 47.8438 134.906 48.2188L134.578 47.2344C135.359 46.8906 136.031 46.5312 136.594 46.1562C137.156 45.75 137.625 45.2812 138 44.75C138.375 44.1875 138.641 43.5312 138.797 42.7812C138.984 42 139.078 41.0625 139.078 39.9688C139.078 39.25 139.062 38.3281 139.031 37.2031C139 36.0781 138.953 34.8594 138.891 33.5469C138.859 32.2344 138.812 30.875 138.75 29.4688C138.688 28.0625 138.625 26.7188 138.562 25.4375C138.5 24.125 138.438 22.9219 138.375 21.8281C138.344 20.7344 138.312 19.8438 138.281 19.1562ZM157.219 46.7656C157.938 46.5156 158.531 46.1875 159 45.7812C159.469 45.375 159.828 44.9688 160.078 44.5625C160.391 44.0938 160.594 43.6094 160.688 43.1094C161.375 39.9219 161.719 36.8906 161.719 34.0156C161.719 31.1094 161.5 28.625 161.062 26.5625C160.938 25.9062 160.703 25.2969 160.359 24.7344C160.078 24.2656 159.688 23.8281 159.188 23.4219C158.688 22.9844 158.047 22.7031 157.266 22.5781L157.219 21.8281C157.844 21.8906 158.422 21.9375 158.953 21.9688C159.516 21.9688 160 21.9688 160.406 21.9688H161.719C162.094 22 162.469 22.0156 162.844 22.0156C163.188 22.0469 163.531 22.0625 163.875 22.0625C164.25 22.0625 164.609 22.0938 164.953 22.1562C164.859 23.2812 164.781 24.4375 164.719 25.625C164.656 26.7812 164.609 27.8281 164.578 28.7656C164.516 29.8594 164.484 30.9219 164.484 31.9531C164.422 33.1094 164.375 34.375 164.344 35.75C164.312 37.0938 164.328 38.375 164.391 39.5938C164.453 40.8125 164.562 41.8906 164.719 42.8281C164.875 43.7344 165.125 44.3281 165.469 44.6094C165.656 44.7344 165.906 44.8594 166.219 44.9844C166.469 45.1094 166.797 45.2344 167.203 45.3594C167.641 45.4844 168.172 45.6094 168.797 45.7344L168.844 46.5312C168.219 46.5 167.609 46.5 167.016 46.5312C166.453 46.5312 165.953 46.5312 165.516 46.5312C164.984 46.5625 164.484 46.5781 164.016 46.5781C163.359 46.6094 162.656 46.6719 161.906 46.7656C161.281 46.8281 160.578 46.9062 159.797 47C159.016 47.0938 158.266 47.2031 157.547 47.3281L157.219 46.7656ZM162.047 18.6875C161.078 18.75 160.328 18.5312 159.797 18.0312C159.266 17.5 158.969 16.9062 158.906 16.25C158.844 15.5938 159.016 14.9844 159.422 14.4219C159.859 13.8281 160.547 13.4687 161.484 13.3438C162.453 13.2188 163.219 13.4219 163.781 13.9531C164.375 14.4844 164.719 15.0938 164.812 15.7812C164.906 16.4375 164.734 17.0781 164.297 17.7031C163.859 18.2969 163.109 18.625 162.047 18.6875ZM188.719 60.4062C188.219 61.25 187.625 62.0312 186.938 62.75C186.25 63.5 185.484 64.125 184.641 64.625C183.797 65.1562 182.906 65.5469 181.969 65.7969C181.031 66.0469 180.062 66.1406 179.062 66.0781C177.938 65.9844 176.953 65.6875 176.109 65.1875C175.266 64.6875 174.562 64.0625 174 63.3125C173.438 62.5938 173.031 61.8125 172.781 60.9688C172.562 60.1562 172.5 59.3906 172.594 58.6719C172.688 57.9219 172.922 57.1875 173.297 56.4688C173.703 55.75 174.219 55.1094 174.844 54.5469C175.469 53.9844 176.219 53.5312 177.094 53.1875C177.969 52.8438 178.953 52.6875 180.047 52.7188C180.547 52.75 181.047 52.875 181.547 53.0938C182.047 53.3125 182.484 53.6094 182.859 53.9844C183.266 54.3594 183.562 54.7969 183.75 55.2969C183.969 55.8281 184.062 56.375 184.031 56.9375C183.969 57.5 183.797 58.0625 183.516 58.625C183.266 59.1875 182.922 59.6875 182.484 60.125C182.078 60.5938 181.594 60.9375 181.031 61.1562C180.469 61.4062 179.875 61.4844 179.25 61.3906C178.562 61.2969 178.047 60.9375 177.703 60.3125C177.359 59.7188 177.203 59.0781 177.234 58.3906C177.297 57.7031 177.547 57.0625 177.984 56.4688C178.453 55.9062 179.141 55.5938 180.047 55.5312C180.672 55.5 181.125 55.7188 181.406 56.1875C181.719 56.6875 181.75 57.1406 181.5 57.5469C181.219 57.9844 180.828 58.1719 180.328 58.1094C179.828 58.0781 179.469 57.75 179.25 57.125C179 57.3125 178.797 57.5781 178.641 57.9219C178.516 58.2969 178.469 58.6562 178.5 59C178.531 59.375 178.656 59.6875 178.875 59.9375C179.094 60.2188 179.438 60.3594 179.906 60.3594C180.469 60.3594 180.938 60.2344 181.312 59.9844C181.719 59.7656 182.047 59.4688 182.297 59.0938C182.547 58.75 182.719 58.375 182.812 57.9688C182.938 57.5938 183 57.25 183 56.9375C183 56.625 182.938 56.2812 182.812 55.9062C182.688 55.5625 182.484 55.2344 182.203 54.9219C181.922 54.6406 181.547 54.4062 181.078 54.2188C180.609 54.0625 180.031 54 179.344 54.0312C178.719 54.0625 178.094 54.2031 177.469 54.4531C176.875 54.7031 176.328 55.0469 175.828 55.4844C175.328 55.9219 174.922 56.4531 174.609 57.0781C174.297 57.7031 174.141 58.3906 174.141 59.1406C174.141 59.9219 174.297 60.625 174.609 61.25C174.953 61.875 175.406 62.3906 175.969 62.7969C176.531 63.2344 177.172 63.5625 177.891 63.7812C178.609 64.0312 179.359 64.1406 180.141 64.1094C180.891 64.0781 181.734 63.7969 182.672 63.2656C183.609 62.7656 184.453 61.9844 185.203 60.9219C185.953 59.8906 186.516 58.5469 186.891 56.8906C187.297 55.2656 187.328 53.2969 186.984 50.9844C186.828 49.8906 186.703 48.8438 186.609 47.8438C186.547 46.8438 186.516 45.875 186.516 44.9375C186.109 45.5312 185.625 46.1562 185.062 46.8125C184.531 47.4375 183.922 48 183.234 48.5C182.578 49.0312 181.844 49.4531 181.031 49.7656C180.219 50.1094 179.344 50.25 178.406 50.1875C177.281 50.125 176.172 49.8594 175.078 49.3906C174.016 48.9219 173.062 48.1406 172.219 47.0469C171.406 45.9844 170.766 44.5781 170.297 42.8281C169.859 41.0781 169.719 38.8906 169.875 36.2656C170 33.6406 170.469 31.5 171.281 29.8438C172.094 28.1875 173.047 26.9062 174.141 26C175.234 25.0938 176.375 24.5 177.562 24.2188C178.781 23.9062 179.844 23.7969 180.75 23.8906C182.094 24.0469 183.406 24.5938 184.688 25.5312C186 26.4688 187.016 27.9062 187.734 29.8438C187.984 28.6562 188.219 27.6719 188.438 26.8906C188.688 26.1094 188.797 25.5 188.766 25.0625C189.766 25.3438 190.859 25.5 192.047 25.5312C193.234 25.5625 194.453 25.5312 195.703 25.4375L195.656 26.3281C194.25 26.4531 193.141 27.0469 192.328 28.1094C191.547 29.1406 190.938 30.7969 190.5 33.0781C190.219 34.5156 190.047 35.9062 189.984 37.25C189.922 38.5938 189.906 39.9062 189.938 41.1875C189.969 42.4375 190.031 43.6719 190.125 44.8906C190.25 46.0781 190.359 47.2656 190.453 48.4531C190.516 49.1719 190.562 50.0156 190.594 50.9844C190.625 51.9531 190.594 52.9688 190.5 54.0312C190.406 55.0938 190.219 56.1719 189.938 57.2656C189.688 58.3906 189.281 59.4375 188.719 60.4062ZM186.797 36.5469C186.828 35.5469 186.922 34.5625 187.078 33.5938C186.859 31.9375 186.359 30.5781 185.578 29.5156C184.828 28.4219 183.625 27.7812 181.969 27.5938C181 27.4688 180.047 27.5938 179.109 27.9688C178.172 28.3125 177.312 28.9062 176.531 29.75C175.781 30.5625 175.141 31.625 174.609 32.9375C174.078 34.2188 173.75 35.75 173.625 37.5312C173.469 39.3125 173.531 40.9062 173.812 42.3125C174.125 43.6875 174.578 44.8438 175.172 45.7812C175.797 46.6875 176.516 47.3438 177.328 47.75C178.141 48.1875 178.984 48.3594 179.859 48.2656C180.641 48.1406 181.406 47.8281 182.156 47.3281C182.906 46.8281 183.578 46.2344 184.172 45.5469C184.797 44.8281 185.312 44.0625 185.719 43.25C186.156 42.4062 186.453 41.5781 186.609 40.7656C186.641 40.0781 186.672 39.4062 186.703 38.75C186.734 38.0625 186.766 37.3281 186.797 36.5469Z" fill="black"/>
<path d="M14.4354 50.375C12.6854 50.3125 10.9823 49.8281 9.32605 48.9219C7.70105 48.0469 6.26355 46.7812 5.01355 45.125C3.7948 43.4375 2.84167 41.375 2.15417 38.9375C1.46667 36.5 1.18542 33.6875 1.31042 30.5C1.43542 27.3125 1.99792 24.4844 2.99792 22.0156C4.02917 19.5469 5.2948 17.5 6.7948 15.875C8.2948 14.2187 9.93542 13 11.7167 12.2188C13.5292 11.4375 15.3104 11.1406 17.0604 11.3281C18.1229 11.4531 19.0604 11.75 19.8729 12.2188C20.6854 12.6875 21.3885 13.2656 21.9823 13.9531C22.576 14.6094 23.076 15.3281 23.4823 16.1094C23.8885 16.8594 24.2167 17.5938 24.4667 18.3125C24.6542 18.5 24.8573 18.5938 25.076 18.5938C25.6698 18.625 26.201 18.1875 26.6698 17.2812C27.1698 16.3438 27.5917 14.8125 27.9354 12.6875L29.2479 12.8281C28.9667 13.8906 28.6542 15.125 28.3104 16.5312C27.9979 17.9062 27.701 19.3281 27.4198 20.7969C27.1698 22.2656 26.951 23.7188 26.7635 25.1562C26.6073 26.5938 26.5604 27.8906 26.6229 29.0469C26.1542 28.8594 25.7167 28.7344 25.3104 28.6719C24.9042 28.5781 24.5292 28.5156 24.1854 28.4844C23.8104 28.4531 23.4667 28.4531 23.1542 28.4844C23.2167 26.5469 23.1542 24.6875 22.9667 22.9062C22.8104 21.125 22.4979 19.5625 22.0292 18.2188C21.5604 16.8438 20.9354 15.7344 20.1542 14.8906C19.4042 14.0469 18.4667 13.5781 17.3417 13.4844C16.3417 13.3906 15.2635 13.6094 14.1073 14.1406C12.951 14.6406 11.8573 15.5625 10.826 16.9062C9.7948 18.2188 8.90417 19.9844 8.15417 22.2031C7.40417 24.4219 6.93542 27.1875 6.74792 30.5C6.65417 32.25 6.71667 34.0938 6.93542 36.0312C7.15417 37.9688 7.59167 39.7656 8.24792 41.4219C8.90417 43.0469 9.7948 44.4062 10.9198 45.5C12.0448 46.5625 13.4667 47.0781 15.1854 47.0469C16.4979 46.9531 17.7167 46.6094 18.8417 46.0156C19.8104 45.4844 20.7635 44.6875 21.701 43.625C22.6385 42.5625 23.3104 41.0312 23.7167 39.0312L25.2635 39.9688C25.0135 40.7812 24.6385 41.7969 24.1385 43.0156C23.6385 44.2031 22.951 45.3594 22.076 46.4844C21.2323 47.6094 20.1698 48.5469 18.8885 49.2969C17.6385 50.0781 16.1542 50.4375 14.4354 50.375ZM49.6385 45.2656C49.8573 45.2656 50.076 45.2031 50.2948 45.0781C50.4823 44.9844 50.6542 44.8438 50.8104 44.6562C50.9979 44.4688 51.1542 44.1875 51.2792 43.8125H51.9823C51.951 44.125 51.8573 44.4844 51.701 44.8906C51.5448 45.2656 51.3104 45.625 50.9979 45.9688C50.6854 46.2812 50.2948 46.5469 49.826 46.7656C49.3573 46.9844 48.8104 47.0625 48.1854 47C46.1854 46.8125 44.9823 44.875 44.576 41.1875C44.2948 41.9375 43.9667 42.7031 43.5917 43.4844C43.2479 44.2656 42.826 44.9844 42.326 45.6406C41.826 46.2969 41.2323 46.8281 40.5448 47.2344C39.8885 47.6719 39.0917 47.8906 38.1542 47.8906C36.9667 47.8906 35.9198 47.6406 35.0135 47.1406C34.1385 46.6719 33.4042 46.0312 32.8104 45.2188C32.2167 44.4062 31.7948 43.4844 31.5448 42.4531C31.2948 41.3906 31.201 40.2969 31.2635 39.1719C31.3573 37.6094 31.576 36.0312 31.9198 34.4375C32.2635 32.8125 32.4667 31.2969 32.5292 29.8906C32.6229 28.4531 32.451 27.2031 32.0135 26.1406C31.6073 25.0469 30.6854 24.25 29.2479 23.75L29.4354 23.0469C29.9042 23.1406 30.4198 23.2656 30.9823 23.4219C31.5448 23.5781 32.1385 23.7031 32.7635 23.7969C33.3885 23.8906 34.0448 23.9375 34.7323 23.9375C35.451 23.9375 36.1698 23.8438 36.8885 23.6562C36.5135 24.4688 36.1698 25.2344 35.8573 25.9531C35.576 26.6719 35.3417 27.4688 35.1542 28.3438C34.9667 29.2188 34.826 30.2188 34.7323 31.3438C34.6385 32.4688 34.5917 33.8594 34.5917 35.5156C34.5917 37.1719 34.7167 38.5625 34.9667 39.6875C35.2479 40.8125 35.6229 41.7031 36.0917 42.3594C36.5917 43.0156 37.1698 43.4844 37.826 43.7656C38.4823 44.0156 39.2167 44.1094 40.0292 44.0469C40.8104 43.9531 41.4667 43.5938 41.9979 42.9688C42.5604 42.3125 43.0135 41.4688 43.3573 40.4375C43.7323 39.375 44.0135 38.1719 44.201 36.8281C44.4198 35.4844 44.5604 34.0625 44.6229 32.5625C44.6854 31.0625 44.6854 29.7812 44.6229 28.7188C44.5917 27.6562 44.4823 26.7656 44.2948 26.0469C44.1073 25.3281 43.826 24.75 43.451 24.3125C43.076 23.8438 42.576 23.4844 41.951 23.2344L42.0448 22.4844C42.6073 22.4844 43.2792 22.4844 44.0604 22.4844C44.8417 22.4844 45.6229 22.4688 46.4042 22.4375C47.1854 22.375 47.9042 22.2969 48.5604 22.2031C49.2479 22.1094 49.7635 21.9844 50.1073 21.8281C49.576 22.8594 49.0917 24.1719 48.6542 25.7656C48.2479 27.3281 47.9042 28.9844 47.6229 30.7344C47.3417 32.4531 47.1542 34.1875 47.0604 35.9375C46.9667 37.6562 46.9979 39.2188 47.1542 40.625C47.3104 42 47.576 43.125 47.951 44C48.3573 44.8438 48.9198 45.2656 49.6385 45.2656Z" fill="black"/>
<path d="M64.8594 45.4531C65.5781 45.4531 66.25 45.2031 66.875 44.7031C67.5 44.2031 67.9375 43.3594 68.1875 42.1719L69.1719 42.5469C69.0781 43.2969 68.7812 44.0625 68.2812 44.8438C67.7812 45.5938 67.1406 46.2344 66.3594 46.7656C65.5781 47.2969 64.6875 47.6406 63.6875 47.7969C62.7188 47.9531 61.7188 47.7969 60.6875 47.3281C59.5625 46.7969 58.75 46.1094 58.25 45.2656C57.75 44.4219 57.4375 43.4531 57.3125 42.3594C57.1875 41.2344 57.1719 40.0312 57.2656 38.75C57.3594 37.4375 57.4062 36.0781 57.4062 34.6719C57.4062 33.8594 57.3906 32.9062 57.3594 31.8125C57.3594 30.6875 57.3281 29.5 57.2656 28.25C57.2344 27 57.1719 25.7188 57.0781 24.4062C56.9844 23.0625 56.8906 21.75 56.7969 20.4688C55.7344 20.5938 54.7188 20.75 53.75 20.9375C52.8125 21.0938 52.0156 21.2969 51.3594 21.5469C51.3281 21.2656 51.3281 21.0469 51.3594 20.8906C51.3594 20.7344 51.375 20.5938 51.4062 20.4688C51.4062 20.3125 51.4062 20.1562 51.4062 20C51.4062 19.8125 51.375 19.5625 51.3125 19.25C52.0625 19.1875 52.8906 19.125 53.7969 19.0625C54.7344 19 55.6875 18.9375 56.6562 18.875C56.625 18.4375 56.5938 18.0156 56.5625 17.6094C56.5312 17.1719 56.4844 16.75 56.4219 16.3438C56.2656 14.875 55.9688 13.7031 55.5312 12.8281C55.125 11.9531 54.6719 11.2812 54.1719 10.8125C53.6719 10.3438 53.2031 10.0313 52.7656 9.875C52.3281 9.6875 52 9.5625 51.7812 9.5L51.9219 8.60938C52.5156 8.85938 53.25 9.03125 54.125 9.125C55 9.1875 55.9062 9.1875 56.8438 9.125C57.8125 9.03125 58.75 8.875 59.6562 8.65625C60.5938 8.4375 61.4062 8.15625 62.0938 7.8125C61.7812 8.6875 61.5 10.0781 61.25 11.9844C61.0312 13.8906 60.8438 16.1094 60.6875 18.6406C62.3125 18.5469 63.4844 18.4219 64.2031 18.2656C64.0469 18.4531 63.9688 18.7656 63.9688 19.2031C63.9688 19.6094 64.0156 19.9844 64.1094 20.3281C63.5781 20.2656 63.0156 20.2344 62.4219 20.2344C61.8281 20.2031 61.2188 20.1875 60.5938 20.1875C60.5 22 60.4375 23.8906 60.4062 25.8594C60.375 27.8281 60.3906 29.7812 60.4531 31.7188C60.5469 33.625 60.6719 35.5 60.8281 37.3438C61.0156 39.1562 61.25 40.8281 61.5312 42.3594C61.7812 43.4531 62.2188 44.2344 62.8438 44.7031C63.4688 45.1719 64.1406 45.4219 64.8594 45.4531ZM68.75 34.2969C68.8438 32.4531 69.2344 30.7344 69.9219 29.1406C70.6406 27.5469 71.5625 26.1875 72.6875 25.0625C73.8125 23.9062 75.0781 23.0312 76.4844 22.4375C77.9219 21.8438 79.4062 21.6406 80.9375 21.8281C82.4688 22.0156 83.6406 22.4844 84.4531 23.2344C85.2969 23.9844 85.8906 24.8281 86.2344 25.7656C86.5781 26.6719 86.7656 27.5781 86.7969 28.4844C86.8281 29.3906 86.8281 30.0938 86.7969 30.5938C86.7656 31.0625 86.7031 31.5781 86.6094 32.1406C86.5469 32.7031 86.4688 33.2656 86.375 33.8281C86.3125 34.3594 86.2812 34.875 86.2812 35.375C86.2812 35.8438 86.3281 36.2344 86.4219 36.5469C85.6406 36.2969 84.7344 36.0312 83.7031 35.75C82.6719 35.4375 81.5469 35.2031 80.3281 35.0469C79.1406 34.8906 77.8906 34.8438 76.5781 34.9062C75.2969 34.9375 74.0156 35.1562 72.7344 35.5625C72.7031 36.75 72.7812 37.9375 72.9688 39.125C73.1875 40.2812 73.5312 41.3906 74 42.4531C74.4062 43.3594 74.875 44.1562 75.4062 44.8438C75.9375 45.5312 76.5 46.0625 77.0938 46.4375C77.7188 46.7812 78.3438 46.9688 78.9688 47C79.625 47.0312 80.2812 46.8438 80.9375 46.4375C81.4688 46.0625 81.875 45.6094 82.1562 45.0781C82.4062 44.6406 82.5 44.1094 82.4375 43.4844C82.4062 42.8594 82.0781 42.1406 81.4531 41.3281L87.3125 41.0469C87.0938 41.6719 86.7656 42.4531 86.3281 43.3906C85.9219 44.3281 85.3594 45.2344 84.6406 46.1094C83.9219 46.9844 83.0312 47.7188 81.9688 48.3125C80.9062 48.9062 79.625 49.1719 78.125 49.1094C76.625 49.0156 75.2656 48.5312 74.0469 47.6562C72.8594 46.8125 71.8594 45.7031 71.0469 44.3281C70.2344 42.9531 69.625 41.4062 69.2188 39.6875C68.8125 37.9375 68.6562 36.1406 68.75 34.2969ZM80.375 23.0469C79.5 22.9531 78.6406 23.1719 77.7969 23.7031C76.9844 24.2344 76.2344 25 75.5469 26C74.8906 26.9688 74.3281 28.125 73.8594 29.4688C73.3906 30.8125 73.0625 32.2188 72.875 33.6875C74.6562 33.4688 76.3125 33.3594 77.8438 33.3594C79.375 33.3281 80.7969 33.4219 82.1094 33.6406C82.4531 32.9219 82.7656 32 83.0469 30.875C83.3281 29.7188 83.4531 28.5938 83.4219 27.5C83.3906 26.375 83.1406 25.3906 82.6719 24.5469C82.2344 23.7031 81.4688 23.2031 80.375 23.0469Z" fill="black"/>
<path fill-rule="evenodd" clip-rule="evenodd" d="M115.548 11.0502C115.545 11.0459 115.541 11.0409 115.538 11.0361C115.536 11.0326 115.533 11.0293 115.531 11.0264C115.536 11.0333 115.543 11.0428 115.548 11.0502ZM114.529 9.63398C114.527 9.63232 114.526 9.6307 114.524 9.62916L114.521 9.62613C114.524 9.62848 114.526 9.63118 114.529 9.63398ZM96.8755 26.4401C96.8741 26.4424 96.8726 26.4448 96.8712 26.4471C96.869 26.4508 96.8669 26.4543 96.865 26.4574C96.8682 26.4523 96.8718 26.4461 96.8755 26.4401Z" fill="black"/>
<path fill-rule="evenodd" clip-rule="evenodd" d="M97.7837 42.3137L97.8956 42.4221C97.9677 42.7021 99.0403 43.5366 99.1993 43.6596L100.078 44.269C100.085 44.2738 100.096 44.2818 100.103 44.2867L100.996 44.7606C101.585 45.1001 102.592 45.4971 103.233 45.7192C104.049 46.0026 104.639 46.12 105.314 46.3441C105.446 46.3879 105.634 46.3712 105.784 46.4131L106.639 46.6028C106.805 46.6403 106.974 46.6292 107.159 46.6546C107.352 46.6808 107.371 46.7394 107.559 46.7606C107.908 46.8 108.22 46.7766 108.563 46.8408C108.797 46.8847 110.849 47.0452 111.151 46.989C111.348 46.9524 111.283 46.9056 111.584 46.9045L114.788 46.8829C115.159 46.8707 115.411 46.7796 115.75 46.7625C116.107 46.7445 116.441 46.7716 116.732 46.6762L119.481 46.1737C119.992 45.98 119.707 46.1671 120.086 45.9963C120.387 45.8612 122.094 45.3381 122.487 45.1074L122.799 44.9529C123.237 44.797 124.336 44.1425 124.66 43.908C125.23 43.4947 125.313 43.4757 125.862 42.9629L126.806 42.0206C126.914 41.8897 126.841 41.9614 126.908 41.8519C127.024 41.661 126.994 41.8488 127.19 41.573L127.624 40.9553C127.979 40.4818 127.973 40.4045 128.242 39.9521C128.763 39.0794 128.759 38.6651 129.009 38.0446C129.137 37.7269 129.318 37.0254 129.334 36.7541C129.372 36.1094 129.4 36.318 129.457 35.8167C129.653 34.0942 129.401 32.6735 129.198 31.2319L129.043 30.5997C128.975 30.4071 129.02 30.6014 128.958 30.4365C128.9 30.2834 128.975 30.3797 128.835 30.036L128.749 29.6816C128.613 29.3155 128.451 28.5249 128.377 28.3281C128.211 27.8861 127.937 27.2684 127.724 26.844L126.567 24.747C126.412 24.5083 126.271 24.3469 126.137 24.1331C125.667 23.3897 125.197 22.9261 124.709 22.3133C124.488 22.0372 124.174 21.7697 123.939 21.5047L123.059 20.7658C122.979 20.6986 123.028 20.6992 122.911 20.6164L121.955 19.9437C121.314 19.5176 120.988 19.3648 120.348 19.0076C120.212 18.9317 120.107 18.8607 119.958 18.7873L119.419 18.4464L119.393 18.4277C119.386 18.4221 119.376 18.4138 119.369 18.4086C119.361 18.4034 119.352 18.3951 119.345 18.3903C119.282 18.3459 119.222 18.3196 119.153 18.2836L117.068 16.8514C116.987 16.7831 116.995 16.7807 116.906 16.7097C116.616 16.4779 116.118 16.1744 115.878 15.8973C115.859 15.8748 115.833 15.8457 115.816 15.8273C115.722 15.7276 115.604 15.5949 115.503 15.5193C115.04 15.1733 115.237 15.1036 114.928 14.832L114.609 14.4894C114.496 14.3643 114.413 14.2801 114.319 14.1658L112.719 11.9071C112.451 11.5215 112.424 11.2956 112.069 11.3091L110.755 13.2221C110.569 13.5603 110.262 13.8551 110.046 14.1845C110.041 14.1921 110.035 14.2036 110.03 14.2108C110.025 14.2181 110.018 14.2292 110.013 14.2361L108.719 15.6084C108.64 15.686 108.601 15.7175 108.518 15.8065C108.168 16.1842 108.059 16.2448 107.666 16.568C107.533 16.6775 107.355 16.8393 107.197 16.9331L106.256 17.5744C106.105 17.6891 105.96 17.7978 105.808 17.9097C105.65 18.0258 105.48 18.1128 105.297 18.234C104.966 18.4526 104.592 18.6061 104.275 18.8351L103.521 19.299C103.442 19.3488 103.362 19.3876 103.254 19.4237C102.979 19.5158 102.474 19.839 102.259 20.0178L101.785 20.4179C101.544 20.6275 101.467 20.6196 100.929 21.0959L100.733 21.2968C100.05 21.9249 99.3313 22.5956 98.8258 23.3872L97.8503 24.7706C97.6753 24.9992 97.5627 25.2885 97.4522 25.418L97.3552 25.5476C97.0677 25.9737 97.0088 26.2651 96.9402 26.3576C96.8938 26.4203 96.9495 26.3295 96.8823 26.4293L96.8801 26.4326L96.8755 26.4401L96.8712 26.4471L96.865 26.4574C96.8614 26.463 96.8576 26.47 96.8541 26.4766L96.8525 26.4795L96.8487 26.4865L96.7877 26.6029L96.0904 28.1403C96.0554 28.2287 96.072 28.2048 96.0488 28.2851L95.8222 28.828C95.6209 29.1859 95.5672 29.6733 95.4186 30.0489C95.3053 30.3343 95.1294 31.0823 95.1041 31.3615L94.899 32.7351C94.8044 33.1734 94.7663 35.438 94.8643 35.9012C94.9187 36.1579 94.9198 36.3595 94.9645 36.6377L95.6785 39.1182C95.7536 39.2949 95.8534 39.4473 95.9331 39.6444C96.2844 40.5129 96.441 40.4908 96.5892 40.7856C96.7708 41.1476 97.3937 41.9274 97.5866 42.0813L97.7318 42.2288C97.8073 42.3442 97.7013 42.2015 97.7837 42.3137Z" fill="black"/>
<path fill-rule="evenodd" clip-rule="evenodd" d="M93.8908 41.6974C93.7987 41.5758 93.7831 41.4798 93.7065 41.3603L92.5328 38.7763C92.5574 38.4468 92.2252 37.1144 92.1441 36.4676L92 33.9033C92.0083 33.2683 92.1064 32.8332 92.1289 32.2387C92.1594 31.4249 92.6201 29.4111 92.925 28.5665C92.9932 28.3783 93.0189 28.4092 93.0577 28.2761L93.4103 27.2157L95.0763 23.9246C95.1089 23.8688 95.1349 23.8044 95.1633 23.7541L95.4633 23.2591C95.6145 23.0125 95.7536 22.7883 95.8889 22.5766C96.3973 21.7809 96.8523 21.161 97.6947 20.1858L97.9185 19.9714C97.9244 19.9648 97.9334 19.9554 97.94 19.9492C97.9462 19.9426 97.9556 19.9336 97.9622 19.9274L99.6479 18.4142C99.8055 18.2964 99.9185 18.2111 100.074 18.0947C100.631 17.6759 101.199 17.327 101.794 16.9671L103.036 16.2801C103.135 16.2309 103.171 16.2126 103.263 16.1568C103.424 16.0594 103.558 15.9787 103.729 15.8772L104.68 15.2512C104.69 15.2432 104.717 15.2186 104.727 15.2103C105.004 14.9883 105.42 14.7405 105.877 14.3442C105.959 14.2729 106.004 14.2341 106.089 14.162L107.638 12.5996C107.659 12.5774 107.695 12.5327 107.718 12.5043L107.858 12.3377C107.864 12.3307 107.873 12.3214 107.879 12.3145L108.545 11.4023C108.55 11.395 108.558 11.385 108.563 11.3774L108.751 11.0829C108.756 11.0763 108.763 11.0673 108.768 11.0602L108.77 11.0579L109.244 10.3484C109.286 10.2857 109.288 10.2774 109.333 10.2182L110.075 9.33789C110.141 9.27761 110.201 9.24158 110.228 9.15324C110.41 9.13107 110.415 9.08118 110.582 8.97967C110.59 8.97447 110.602 8.96824 110.611 8.96305L110.869 8.79156C110.863 8.47215 110.791 8.03772 110.71 7.75052C110.665 7.59082 110.676 7.38815 110.658 7.21147C110.634 6.97139 110.582 6.98143 110.542 6.70636C110.482 6.28995 110.49 6.4843 110.424 6.27401L110.067 5.01334C109.936 4.70466 109.999 4.67763 109.907 4.43063C109.85 4.27889 109.805 4.1126 109.756 3.96814L109.33 2.65064C109.275 2.19162 109.802 1.37195 110.613 1.84068C111.078 2.10951 111.337 2.84499 111.48 3.33624C111.533 3.51673 111.59 3.56662 111.654 3.76478L112.66 7.49277C112.93 8.7531 112.612 8.52931 113.349 8.75311C113.539 8.81062 113.218 8.78983 113.559 8.81823L113.904 9.0597C113.92 9.07114 113.986 9.12102 114.004 9.13522L114.417 9.5111C114.472 9.56965 114.476 9.57762 114.521 9.62613L114.524 9.62916L114.529 9.63398L114.538 9.64388L114.543 9.64864L114.564 9.67116L114.793 9.96806C114.798 9.97568 114.806 9.98607 114.811 9.99369L115.531 11.0264L115.538 11.0361L115.548 11.0502L115.549 11.0524L117.052 13.0111C117.087 13.0493 117.087 13.051 117.113 13.0822L117.133 13.1061C117.139 13.113 117.147 13.123 117.153 13.13L118.531 14.4249C118.583 14.4693 118.566 14.4561 118.626 14.5053C118.781 14.6332 118.909 14.7326 119.068 14.8521L119.758 15.3458L119.786 15.3621L120.021 15.5207L120.048 15.5381L120.101 15.5723C120.165 15.6139 120.149 15.6028 120.207 15.642L121.16 16.223C121.216 16.2538 121.239 16.2611 121.278 16.2801L122.272 16.8202C122.349 16.8604 122.3 16.8351 122.382 16.8853L123.238 17.387C123.25 17.3942 123.28 17.4154 123.291 17.4223L126.104 19.6925C126.154 19.7393 126.176 19.7559 126.22 19.7961L127.67 21.4132L127.69 21.4372L127.711 21.4607L127.731 21.4839L130.137 25.2573C130.195 25.3695 130.2 25.4101 130.264 25.5247C130.472 25.8927 130.61 26.3229 130.792 26.7057C130.804 26.7297 130.83 26.7785 130.849 26.8249L130.91 26.9829C130.955 27.0813 130.914 26.9611 130.968 27.1L131.129 27.5521C131.133 27.5635 131.135 27.5756 131.138 27.5871L131.644 29.0972C131.682 29.2475 131.655 29.2766 131.708 29.4273L132.316 33.0265V36.0505C132.315 36.0647 132.313 36.0775 132.311 36.0893C132.286 36.2618 132.249 36.2026 132.23 36.4025C132.154 37.2298 132.066 37.3413 131.947 38.0481C131.884 38.4246 131.738 38.7593 131.653 39.112L131.249 40.1991L131.248 40.2026C131.245 40.2121 131.242 40.2224 131.238 40.2313L129.793 42.8185L128.39 44.4831C128.365 44.5098 128.3 44.5756 128.281 44.5933L127.985 44.8666C127.955 44.8936 127.947 44.8992 127.916 44.929L127.17 45.5858C126.734 45.926 126.288 46.2676 125.811 46.5489L125.783 46.5651C125.775 46.5701 125.764 46.577 125.756 46.5819L125.209 46.9111C125.2 46.916 125.189 46.9222 125.181 46.9272L124.617 47.2395C124.513 47.3031 124.594 47.2603 124.477 47.3191L124.093 47.5042C124.006 47.5427 123.928 47.5699 123.847 47.6089C123.747 47.6567 123.791 47.6435 123.704 47.6852C123.661 47.7057 123.621 47.7185 123.579 47.7356C123.419 47.8002 123.458 47.8025 123.311 47.8619C123.264 47.8808 123.257 47.8786 123.214 47.8961C123.204 47.9001 123.192 47.9045 123.182 47.9087C123.173 47.9128 123.162 47.9181 123.152 47.9224L120.458 48.8214C120.277 48.8576 120.265 48.894 120.162 48.9199L118.91 49.2019C118.79 49.2187 118.694 49.224 118.562 49.2481C118.35 49.2865 118.188 49.3645 117.941 49.3725C117.701 49.3802 117.781 49.373 117.602 49.4277C117.243 49.5366 116.942 49.492 116.601 49.5662C116.177 49.6583 115.624 49.6456 115.207 49.7063C114.741 49.7741 114.256 49.7677 113.735 49.7677C113.18 49.7677 112.764 49.8121 112.244 49.8115C111.703 49.8109 111.296 49.7677 110.754 49.7677C110.213 49.7677 109.749 49.7531 109.266 49.7224C109.009 49.7061 108.842 49.6369 108.565 49.6345C108.257 49.6318 108.126 49.6279 107.864 49.5909L107.161 49.5046C106.904 49.4942 106.735 49.4011 106.542 49.3784C106.41 49.3629 106.308 49.3784 106.169 49.3569C106.034 49.3361 105.959 49.3026 105.858 49.2735C105.65 49.2134 105.429 49.2288 105.22 49.1667L103.667 48.791L101.138 47.9021C101.128 47.8981 101.116 47.8943 101.106 47.8905C100.273 47.5868 99.4851 47.1353 98.7222 46.6802L98.4749 46.533L96.2955 44.7606C96.2435 44.6331 95.3542 43.7261 95.2731 43.6451C94.9509 43.3222 94.5938 42.7914 94.336 42.3844L94.107 42.0445C94.0048 41.8741 94.0138 41.8602 93.8908 41.6974ZM97.7837 42.3137L97.8956 42.4221C97.9677 42.7021 99.0403 43.5366 99.1993 43.6596L100.078 44.269C100.085 44.2738 100.096 44.2818 100.103 44.2867L100.996 44.7606C101.585 45.1001 102.592 45.4971 103.233 45.7192C104.049 46.0026 104.639 46.12 105.314 46.3441C105.446 46.3879 105.634 46.3712 105.784 46.4131L106.639 46.6028C106.805 46.6403 106.974 46.6292 107.159 46.6546C107.352 46.6808 107.371 46.7394 107.559 46.7606C107.908 46.8 108.22 46.7766 108.563 46.8408C108.797 46.8847 110.849 47.0452 111.151 46.989C111.348 46.9524 111.283 46.9056 111.584 46.9045L114.788 46.8829C115.159 46.8707 115.411 46.7796 115.75 46.7625C116.107 46.7445 116.441 46.7716 116.732 46.6762L119.481 46.1737C119.992 45.98 119.707 46.1671 120.086 45.9963C120.387 45.8612 122.094 45.3381 122.487 45.1074L122.799 44.9529C123.237 44.797 124.336 44.1425 124.66 43.908C125.23 43.4947 125.313 43.4757 125.862 42.9629L126.806 42.0206C126.914 41.8897 126.841 41.9614 126.908 41.8519C127.024 41.661 126.994 41.8488 127.19 41.573L127.624 40.9553C127.979 40.4818 127.973 40.4045 128.242 39.9521C128.763 39.0794 128.759 38.6651 129.009 38.0446C129.137 37.7269 129.318 37.0254 129.334 36.7541C129.372 36.1094 129.4 36.318 129.457 35.8167C129.653 34.0942 129.401 32.6735 129.198 31.2319L129.043 30.5997C128.975 30.4071 129.02 30.6014 128.958 30.4365C128.9 30.2834 128.975 30.3797 128.835 30.036L128.749 29.6816C128.613 29.3155 128.451 28.5249 128.377 28.3281C128.211 27.8861 127.937 27.2684 127.724 26.844L126.567 24.747C126.412 24.5083 126.271 24.3469 126.137 24.1331C125.667 23.3897 125.197 22.9261 124.709 22.3133C124.488 22.0372 124.174 21.7697 123.939 21.5047L123.059 20.7658C122.979 20.6986 123.028 20.6992 122.911 20.6164L121.955 19.9437C121.314 19.5176 120.988 19.3648 120.348 19.0076C120.212 18.9317 120.107 18.8607 119.958 18.7873L119.419 18.4464L119.393 18.4277C119.386 18.4221 119.376 18.4138 119.369 18.4086C119.361 18.4034 119.352 18.3951 119.345 18.3903C119.282 18.3459 119.222 18.3196 119.153 18.2836L117.068 16.8514C116.987 16.7831 116.995 16.7807 116.906 16.7097C116.616 16.4779 116.118 16.1744 115.878 15.8973C115.859 15.8748 115.833 15.8457 115.816 15.8273C115.722 15.7276 115.604 15.5949 115.503 15.5193C115.04 15.1733 115.237 15.1036 114.928 14.832L114.609 14.4894C114.496 14.3643 114.413 14.2801 114.319 14.1658L112.719 11.9071C112.451 11.5215 112.424 11.2956 112.069 11.3091L110.755 13.2221C110.569 13.5603 110.262 13.8551 110.046 14.1845C110.041 14.1921 110.035 14.2036 110.03 14.2108C110.025 14.2181 110.018 14.2292 110.013 14.2361L108.719 15.6084C108.64 15.686 108.601 15.7175 108.518 15.8065C108.168 16.1842 108.059 16.2448 107.666 16.568C107.533 16.6775 107.355 16.8393 107.197 16.9331L106.256 17.5744C106.105 17.6891 105.96 17.7978 105.808 17.9097C105.65 18.0258 105.48 18.1128 105.297 18.234C104.966 18.4526 104.592 18.6061 104.275 18.8351L103.521 19.299C103.442 19.3488 103.362 19.3876 103.254 19.4237C102.979 19.5158 102.474 19.839 102.259 20.0178L101.785 20.4179C101.544 20.6275 101.467 20.6196 100.929 21.0959L100.733 21.2968C100.05 21.9249 99.3313 22.5956 98.8258 23.3872L97.8503 24.7706C97.6753 24.9992 97.5627 25.2885 97.4522 25.418L97.3552 25.5476C97.0677 25.9737 97.0088 26.2651 96.9402 26.3576C96.8938 26.4203 96.9495 26.3295 96.8823 26.4293L96.8801 26.4326L96.8755 26.4401L96.8712 26.4471L96.865 26.4574C96.8614 26.463 96.8576 26.47 96.8541 26.4766L96.8525 26.4795L96.8487 26.4865L96.7877 26.6029L96.0904 28.1403C96.0554 28.2287 96.072 28.2048 96.0488 28.2851L95.8222 28.828C95.6209 29.1859 95.5672 29.6733 95.4186 30.0489C95.3053 30.3343 95.1294 31.0823 95.1041 31.3615L94.899 32.7351C94.8044 33.1734 94.7663 35.438 94.8643 35.9012C94.9187 36.1579 94.9198 36.3595 94.9645 36.6377L95.6785 39.1182C95.7536 39.2949 95.8534 39.4473 95.9331 39.6444C96.2844 40.5129 96.441 40.4908 96.5892 40.7856C96.7708 41.1476 97.3937 41.9274 97.5866 42.0813L97.7318 42.2288C97.8073 42.3442 97.7013 42.2015 97.7837 42.3137Z" fill="black"/>
<path fill-rule="evenodd" clip-rule="evenodd" d="M100.485 26.7054C100.37 26.9084 100.292 27.0234 100.108 27.1603C98.8986 28.0593 97.5007 26.6929 98.197 25.4153C98.2694 25.2826 98.1821 25.4257 98.2861 25.2958C98.3266 25.2455 98.3311 25.2376 98.3616 25.1925C98.3848 25.1579 98.4018 25.1225 98.4333 25.0876C98.5362 24.9739 98.4388 25.0605 98.5532 24.9885C98.6377 24.8385 98.6152 24.966 98.7714 24.6375L99.2478 23.9748C99.4265 23.7271 99.3874 23.6731 99.5329 23.5113C99.5422 23.5009 99.5852 23.4569 99.5959 23.4448L102.313 20.6864C102.427 20.5939 102.533 20.5531 102.651 20.4533C103.479 19.758 104.816 19.0575 105.776 18.4935L106.928 17.7615C107.034 17.6763 107.109 17.5758 107.216 17.4802C107.528 17.2034 108.254 17.1019 108.574 17.2865C109.276 17.6901 109.581 18.4464 109.064 19.1985C108.919 19.4098 108.937 19.3471 108.749 19.495C108.652 19.5716 108.56 19.6984 108.465 19.7795C107.925 20.2427 107.194 20.605 106.729 20.938L106.023 21.3661C105.889 21.4503 105.78 21.4805 105.649 21.5667L105.296 21.7805C105.163 21.8501 105.073 21.9114 104.932 21.9897L104.225 22.4661C103.433 23.1354 103.402 23.0256 102.412 24.0697L101.363 25.3436C101.248 25.5407 101.211 25.5289 101.111 25.6613L100.485 26.7054ZM97.8956 42.4222C98.0723 42.5171 99.0181 43.4365 99.4508 43.7099C99.5699 43.7854 99.6728 43.8564 99.7924 43.9357C100.031 44.0944 100.221 44.2177 100.472 44.3598L101.591 44.9484C101.936 45.1296 102.349 45.2681 102.73 45.4334C103.065 45.5789 104.003 45.8352 104.004 45.8359C104.013 45.8394 104.023 45.846 104.032 45.8501C104.041 45.854 104.051 45.8609 104.06 45.8647C104.069 45.8689 104.079 45.8751 104.089 45.8789L104.418 45.9811C104.675 46.0875 105.937 46.3209 106.184 46.4027L107.115 46.5773C107.84 46.6687 110.594 46.9857 111.097 46.8746L111.255 46.5838C111.267 46.5226 111.288 46.4578 111.307 46.3742C111.347 46.1948 111.318 46.2018 111.4 46.0279C111.567 45.679 111.685 45.5248 111.93 45.2896C112.399 44.8406 112.881 44.7176 113.517 44.6376C113.916 44.587 114.219 44.6227 114.558 44.5285L117.232 43.8942C117.509 43.8318 117.803 43.6967 118.117 43.6364C118.794 43.5065 121.003 42.5015 121.624 42.1003C121.741 42.0248 121.827 41.9784 121.953 41.9039C122.697 41.4632 123.834 40.5341 124.357 39.8378C124.891 39.1279 124.568 39.5395 124.807 39.1369C124.811 39.1293 124.819 39.1189 124.823 39.1116L124.86 39.0652C124.866 39.0583 124.875 39.0489 124.881 39.042C125.114 38.7531 125.446 38.0654 125.611 37.711C125.895 37.1054 125.792 37.1148 125.879 36.8788C126.05 36.4112 126.21 35.4463 126.228 35.0001C126.253 34.3585 126.275 33.3892 126.216 32.7625C126.195 32.5467 126.162 32.6648 126.132 32.2841C126.075 31.568 125.999 31.516 125.973 31.3154C125.938 31.0459 125.957 30.5422 126.042 30.2931C126.148 29.9796 126.208 29.841 126.441 29.5625C127.008 28.8848 127.428 28.6929 128.345 28.7064C128.347 28.5401 128.262 28.2924 128.2 28.1566L127.895 27.4572C127.559 26.7633 126.869 25.3145 126.45 24.7761C126.308 24.5932 126.263 24.5066 126.138 24.3074C125.744 23.6758 125.154 22.9708 124.696 22.4585C124.416 22.1449 124.181 21.8886 123.886 21.6048C123.646 21.3741 123.106 20.9494 123.059 20.7658C122.979 20.6986 123.028 20.6993 122.911 20.6165L121.955 19.9437C121.314 19.5176 120.988 19.3648 120.348 19.0076C120.212 18.9317 120.107 18.8607 119.958 18.7873L119.419 18.4464C119.411 18.4408 119.401 18.4332 119.393 18.4277C119.386 18.4221 119.376 18.4138 119.369 18.4086C119.361 18.4034 119.352 18.3951 119.344 18.3903C119.282 18.3459 119.222 18.3196 119.153 18.2836L117.068 16.8514C116.987 16.7832 116.995 16.7807 116.906 16.7097C116.616 16.4779 116.118 16.1745 115.878 15.8973C115.859 15.8748 115.833 15.8457 115.816 15.8273C115.722 15.7276 115.604 15.5949 115.503 15.5194C115.04 15.1733 115.237 15.1036 114.928 14.832L114.609 14.4894C114.496 14.3643 114.413 14.2802 114.319 14.1658L112.719 11.9071C112.451 11.5215 112.424 11.2956 112.069 11.3091L110.755 13.2221C110.569 13.5603 110.262 13.8551 110.046 14.1845C110.041 14.1922 110.035 14.2036 110.03 14.2109C110.025 14.2181 110.018 14.2292 110.013 14.2362L108.719 15.6084C108.64 15.686 108.601 15.7175 108.518 15.8066C108.168 16.1842 108.059 16.2448 107.666 16.568C107.533 16.6775 107.355 16.8393 107.197 16.9332L106.256 17.5744C106.105 17.6891 105.96 17.7979 105.808 17.9098C105.65 18.0258 105.48 18.1128 105.297 18.234C104.966 18.4526 104.592 18.6061 104.275 18.8351L103.521 19.299C103.442 19.3489 103.362 19.3877 103.254 19.4237C102.979 19.5158 102.474 19.8391 102.259 20.0178L101.785 20.418C101.544 20.6275 101.467 20.6196 100.929 21.0959L100.733 21.2969C100.05 21.9249 99.3312 22.5956 98.8258 23.3873L97.8502 24.7706C97.6753 24.9992 97.5627 25.2885 97.4522 25.4181L97.3552 25.5476C97.0676 25.9737 97.0087 26.2651 96.9402 26.3576C96.8937 26.4203 96.9495 26.3295 96.8823 26.4293C96.8768 26.4376 96.8702 26.4491 96.865 26.4574C96.8594 26.466 96.8535 26.4778 96.8487 26.4865C96.847 26.4896 96.7915 26.5956 96.7877 26.6029L96.0903 28.1404C96.0554 28.2287 96.072 28.2048 96.0488 28.2852L95.8222 28.828C95.6209 29.1859 95.5672 29.6733 95.4186 30.0489C95.3053 30.3343 95.1293 31.0823 95.104 31.3615L94.899 32.7351C94.8044 33.1734 94.7663 35.438 94.8643 35.9012C94.9187 36.1579 94.9197 36.3595 94.9644 36.6377L95.6784 39.1182C95.7536 39.2949 95.8534 39.4473 95.9331 39.6444C96.2843 40.513 96.4409 40.4908 96.5892 40.7856C96.7707 41.1476 97.3936 41.9275 97.5866 42.0813L97.7318 42.2289C97.8073 42.3442 97.7013 42.2015 97.7837 42.3137L97.8956 42.4222Z" fill="#633F61"/>
<path fill-rule="evenodd" clip-rule="evenodd" d="M97.8956 42.4222C97.9677 42.7021 99.0403 43.5367 99.1993 43.6596L100.078 44.269C100.085 44.2739 100.096 44.2818 100.103 44.2867L100.996 44.7606C101.585 45.1001 102.592 45.4971 103.233 45.7192C104.049 46.0026 104.639 46.12 105.314 46.3442C105.446 46.3879 105.634 46.3712 105.784 46.4131L106.639 46.6028C106.805 46.6403 106.974 46.6293 107.159 46.6546C107.352 46.6809 107.371 46.7395 107.559 46.7606C107.908 46.8 108.22 46.7766 108.563 46.8409C108.797 46.8847 110.849 47.0452 111.151 46.989C111.348 46.9524 111.283 46.9056 111.584 46.9046L114.788 46.8829C115.159 46.8707 115.411 46.7796 115.75 46.7626C116.107 46.7445 116.441 46.7716 116.732 46.6762L119.481 46.1737C119.992 45.9801 119.707 46.1671 120.086 45.9963C120.387 45.8612 122.094 45.3381 122.487 45.1074L122.799 44.9529C123.237 44.797 124.336 44.1426 124.66 43.908C125.23 43.4947 125.313 43.4757 125.862 42.963L126.806 42.0206C126.914 41.8897 126.841 41.9614 126.908 41.8519C127.024 41.6611 126.994 41.8488 127.19 41.5731L127.624 40.9554C127.979 40.4818 127.972 40.4045 128.242 39.9521C128.763 39.0794 128.759 38.6651 129.009 38.0446C129.137 37.7269 129.318 37.0254 129.334 36.7541C129.372 36.1094 129.4 36.318 129.457 35.8167C129.653 34.0942 129.4 32.6735 129.198 31.232L129.043 30.5997C128.975 30.4071 129.02 30.6014 128.958 30.4365C128.9 30.2834 128.975 30.3797 128.835 30.0361L128.749 29.6817C128.613 29.3155 128.451 28.5249 128.377 28.3281C128.211 27.8861 127.937 27.2684 127.724 26.844L126.567 24.747C126.412 24.5083 126.271 24.3469 126.137 24.1331C125.667 23.3897 125.197 22.9262 124.709 22.3133C124.488 22.0372 124.174 21.7698 123.939 21.5047L123.059 20.7658C123.106 20.9494 123.646 21.3741 123.886 21.6048C124.181 21.8886 124.416 22.1449 124.696 22.4585C125.154 22.9708 125.744 23.6758 126.138 24.3074C126.263 24.5066 126.308 24.5932 126.45 24.7761C126.869 25.3145 127.559 26.7633 127.895 27.4572L128.2 28.1566C128.262 28.2924 128.347 28.5401 128.345 28.7064C127.428 28.6929 127.008 28.8848 126.441 29.5625C126.208 29.841 126.148 29.9796 126.042 30.2931C125.957 30.5422 125.938 31.0459 125.973 31.3154C125.999 31.516 126.075 31.568 126.132 32.2841C126.162 32.6648 126.195 32.5467 126.216 32.7625C126.275 33.3892 126.253 34.3585 126.228 35.0001C126.21 35.4463 126.05 36.4112 125.879 36.8789C125.792 37.1148 125.895 37.1054 125.611 37.711C125.446 38.0654 125.114 38.7531 124.881 39.042C124.875 39.0489 124.866 39.0583 124.86 39.0652L124.823 39.1116C124.819 39.1189 124.811 39.1293 124.807 39.1369C124.568 39.5395 124.891 39.1279 124.357 39.8378C123.834 40.5341 122.697 41.4632 121.953 41.9039C121.827 41.9784 121.741 42.0248 121.624 42.1003C121.003 42.5015 118.794 43.5065 118.117 43.6364C117.803 43.6967 117.509 43.8318 117.232 43.8942L114.558 44.5285C114.219 44.6227 113.916 44.587 113.517 44.6376C112.881 44.7177 112.399 44.8406 111.93 45.2896C111.685 45.5248 111.567 45.679 111.4 46.0279C111.318 46.2018 111.347 46.1949 111.307 46.3742C111.288 46.4578 111.267 46.5227 111.255 46.5838L111.097 46.8746C110.594 46.9857 107.84 46.6687 107.115 46.5774L106.184 46.4027C105.937 46.321 104.675 46.0875 104.418 45.9811L104.089 45.8789C104.079 45.8751 104.069 45.8689 104.06 45.8647C104.051 45.8609 104.041 45.854 104.032 45.8502C104.023 45.846 104.013 45.8394 104.004 45.8359C104.003 45.8353 103.065 45.5789 102.73 45.4334C102.349 45.2681 101.936 45.1296 101.591 44.9484L100.472 44.3598C100.221 44.2177 100.031 44.0944 99.7924 43.9357C99.6728 43.8564 99.57 43.7854 99.4508 43.7099C99.0181 43.4365 98.0723 42.5171 97.8956 42.4222Z" fill="#432C43"/>
<path fill-rule="evenodd" clip-rule="evenodd" d="M98.5532 24.9885C98.5293 25.1267 98.2909 25.5435 98.1901 25.6813C97.9992 25.9436 98.2164 25.5268 98.1326 25.7517C98.1239 26.2239 98.1114 26.4057 98.2698 26.7716C98.372 27.0082 99.0292 27.4059 99.4449 27.339C100.006 27.2486 100.207 26.9458 100.455 26.5634C100.543 26.6271 100.506 26.4951 100.518 26.6385C100.536 26.8409 100.547 26.6482 100.485 26.7054L101.111 25.6612C101.211 25.5289 101.248 25.5407 101.363 25.3436L102.412 24.0697C103.402 23.0256 103.433 23.1354 104.225 22.4661L104.932 21.9897C105.073 21.9114 105.163 21.8501 105.296 21.7805L105.649 21.5667C105.78 21.4805 105.889 21.4503 106.023 21.3661L106.729 20.9379C107.194 20.605 107.925 20.2426 108.465 19.7795C108.56 19.6984 108.652 19.5716 108.749 19.495C108.937 19.3471 108.919 19.4098 109.064 19.1985C109.581 18.4464 109.276 17.6901 108.574 17.2865C108.254 17.1019 107.528 17.2034 107.216 17.4802C107.109 17.5758 107.034 17.6762 106.928 17.7615L105.776 18.4935C104.816 19.0575 103.479 19.758 102.651 20.4533C102.533 20.553 102.427 20.5939 102.313 20.6864L99.5959 23.4447C99.5852 23.4569 99.5422 23.5009 99.5329 23.5113C99.3874 23.673 99.4265 23.7271 99.2478 23.9748L98.7714 24.6375C98.6152 24.9659 98.6377 24.8385 98.5532 24.9885Z" fill="#FDFDFD"/>
<path fill-rule="evenodd" clip-rule="evenodd" d="M110.228 9.15326C110.41 9.13109 110.415 9.0812 110.582 8.97969C110.59 8.97449 110.602 8.96826 110.611 8.96306L110.869 8.79158C110.863 8.47217 110.791 8.03773 110.71 7.75054C110.665 7.59083 110.676 7.38817 110.658 7.21149C110.634 6.97141 110.582 6.98145 110.542 6.70638C110.482 6.28997 110.49 6.48431 110.424 6.27403L110.067 5.01335C109.936 4.70468 109.999 4.67765 109.907 4.43064C109.85 4.2789 109.805 4.11262 109.756 3.96815L109.33 2.65066C109.275 2.19163 109.802 1.37196 110.613 1.84069C111.078 2.10953 111.337 2.84501 111.48 3.33625C111.533 3.51674 111.59 3.56664 111.654 3.7648L112.66 7.49279C112.93 8.75312 112.612 8.52933 113.349 8.75313C113.539 8.81063 113.218 8.78984 113.559 8.81825C113.533 8.42158 113.391 7.754 113.302 7.34001L113.125 6.46492C113.09 6.11675 113.022 6.2141 112.989 5.89884C112.949 5.50945 112.927 5.83752 112.852 5.33554L112.705 4.78089C112.649 4.59312 112.645 4.73585 112.603 4.53284C112.56 4.33156 112.621 4.44173 112.533 4.25188L111.975 2.70574C111.828 2.3496 111.89 2.3794 111.619 1.9661C111.614 1.95848 111.607 1.94739 111.602 1.93977C111.284 1.45511 110.786 1.04528 110.176 1.00163C109.882 0.980841 109.485 1.16341 109.218 1.38271L108.77 1.98585C108.674 2.24672 108.706 2.68427 108.733 2.92434C108.763 3.18521 108.94 3.56837 108.986 3.72288C109.031 3.87427 108.995 3.84205 109.06 4.00003L109.546 5.61719C109.616 5.96709 109.631 5.82643 109.69 6.17495C109.747 6.51619 109.799 6.41607 109.831 6.73514C109.851 6.94681 109.823 6.855 109.89 7.02649C110.031 7.38955 109.916 7.33447 110.008 7.60989C110.182 8.1337 110.045 8.0845 110.181 8.48879C110.251 8.69943 110.228 8.88546 110.228 9.15326Z" fill="#422B41"/>
<path fill-rule="evenodd" clip-rule="evenodd" d="M100.485 26.7054C100.547 26.6482 100.536 26.8409 100.519 26.6385C100.506 26.4951 100.543 26.6271 100.455 26.5634C100.207 26.9458 100.006 27.2486 99.4449 27.339C99.0292 27.4059 98.372 27.0082 98.2698 26.7716C98.1115 26.4057 98.124 26.2239 98.1326 25.7517C98.2165 25.5268 97.9992 25.9436 98.1901 25.6813C98.2909 25.5435 98.5293 25.1267 98.5532 24.9885C98.4389 25.0605 98.5362 24.9739 98.4333 25.0875C98.4018 25.1225 98.3848 25.1579 98.3616 25.1925C98.3311 25.2376 98.3266 25.2455 98.2861 25.2958C98.1822 25.4257 98.2695 25.2826 98.1971 25.4153C97.5007 26.6929 98.8986 28.0593 100.108 27.1603C100.292 27.0234 100.37 26.9084 100.485 26.7054Z" fill="#B8A8B7"/>
</svg>
